M48
; DRILL file {KiCad (6.0.1)} date Tue Jun 28 21:47:42 2022
; FORMAT={-:-/ absolute / metric / decimal}
; #@! TF.CreationDate,2022-06-28T21:47:42+02:00
; #@! TF.GenerationSoftware,Kicad,Pcbnew,(6.0.1)
; #@! TF.FileFunction,NonPlated,1,2,NPTH
FMAT,2
METRIC
; #@! TA.AperFunction,NonPlated,NPTH,ComponentDrill
T1C0.650
; #@! TA.AperFunction,NonPlated,NPTH,ComponentDrill
T2C1.707
; #@! TA.AperFunction,NonPlated,NPTH,ComponentDrill
T3C2.200
; #@! TA.AperFunction,NonPlated,NPTH,ComponentDrill
T4C2.700
; #@! TA.AperFunction,NonPlated,NPTH,ComponentDrill
T5C4.089
%
G90
G05
T1
X147.11Y-64.7
X152.89Y-64.7
T2
X125.32Y-100.0
X125.32Y-119.6
X135.48Y-100.0
X135.48Y-119.6
X144.92Y-100.0
X144.92Y-119.6
X155.08Y-100.0
X155.08Y-119.6
X164.52Y-100.0
X164.52Y-119.6
X174.68Y-100.0
X174.68Y-119.6
T4
X115.5Y-65.5
X115.5Y-134.5
X184.4Y-65.5
X184.5Y-134.5
T5
X130.4Y-80.4
X130.4Y-100.0
X130.4Y-119.6
X150.0Y-80.4
X150.0Y-100.0
X150.0Y-119.6
X169.6Y-80.4
X169.6Y-100.0
X169.6Y-119.6
T3
X125.32Y-80.0G85X125.32Y-80.8
G05
X135.48Y-80.0G85X135.48Y-80.8
G05
X144.92Y-80.0G85X144.92Y-80.8
G05
X155.08Y-80.0G85X155.08Y-80.8
G05
X164.52Y-80.0G85X164.52Y-80.8
G05
X174.68Y-80.0G85X174.68Y-80.8
G05
T0
M30
