G04 #@! TF.GenerationSoftware,KiCad,Pcbnew,(6.0.1)*
G04 #@! TF.CreationDate,2022-06-28T21:47:16+02:00*
G04 #@! TF.ProjectId,RecyclingPad_embedded,52656379-636c-4696-9e67-5061645f656d,rev?*
G04 #@! TF.SameCoordinates,Original*
G04 #@! TF.FileFunction,Soldermask,Bot*
G04 #@! TF.FilePolarity,Negative*
%FSLAX46Y46*%
G04 Gerber Fmt 4.6, Leading zero omitted, Abs format (unit mm)*
G04 Created by KiCad (PCBNEW (6.0.1)) date 2022-06-28 21:47:16*
%MOMM*%
%LPD*%
G01*
G04 APERTURE LIST*
G04 Aperture macros list*
%AMRoundRect*
0 Rectangle with rounded corners*
0 $1 Rounding radius*
0 $2 $3 $4 $5 $6 $7 $8 $9 X,Y pos of 4 corners*
0 Add a 4 corners polygon primitive as box body*
4,1,4,$2,$3,$4,$5,$6,$7,$8,$9,$2,$3,0*
0 Add four circle primitives for the rounded corners*
1,1,$1+$1,$2,$3*
1,1,$1+$1,$4,$5*
1,1,$1+$1,$6,$7*
1,1,$1+$1,$8,$9*
0 Add four rect primitives between the rounded corners*
20,1,$1+$1,$2,$3,$4,$5,0*
20,1,$1+$1,$4,$5,$6,$7,0*
20,1,$1+$1,$6,$7,$8,$9,0*
20,1,$1+$1,$8,$9,$2,$3,0*%
G04 Aperture macros list end*
%ADD10R,0.500000X0.500000*%
%ADD11C,4.089400*%
%ADD12O,2.327000X3.127000*%
%ADD13C,1.627000*%
%ADD14C,2.413000*%
%ADD15C,1.706881*%
%ADD16C,3.352800*%
%ADD17C,2.700000*%
%ADD18C,0.650000*%
%ADD19R,0.600000X1.450000*%
%ADD20R,0.300000X1.450000*%
%ADD21O,1.000000X1.600000*%
%ADD22O,1.000000X2.100000*%
%ADD23RoundRect,0.150000X0.512500X0.150000X-0.512500X0.150000X-0.512500X-0.150000X0.512500X-0.150000X0*%
%ADD24RoundRect,0.250000X-0.262500X-0.450000X0.262500X-0.450000X0.262500X0.450000X-0.262500X0.450000X0*%
%ADD25R,1.400000X1.200000*%
%ADD26RoundRect,0.250000X0.250000X0.475000X-0.250000X0.475000X-0.250000X-0.475000X0.250000X-0.475000X0*%
%ADD27RoundRect,0.250000X0.262500X0.450000X-0.262500X0.450000X-0.262500X-0.450000X0.262500X-0.450000X0*%
%ADD28RoundRect,0.250000X0.450000X-0.262500X0.450000X0.262500X-0.450000X0.262500X-0.450000X-0.262500X0*%
%ADD29RoundRect,0.250000X0.475000X-0.250000X0.475000X0.250000X-0.475000X0.250000X-0.475000X-0.250000X0*%
%ADD30RoundRect,0.250000X-0.375000X-0.625000X0.375000X-0.625000X0.375000X0.625000X-0.375000X0.625000X0*%
%ADD31RoundRect,0.250000X-0.450000X0.262500X-0.450000X-0.262500X0.450000X-0.262500X0.450000X0.262500X0*%
%ADD32R,1.700000X1.000000*%
%ADD33RoundRect,0.250000X-0.250000X-0.475000X0.250000X-0.475000X0.250000X0.475000X-0.250000X0.475000X0*%
%ADD34R,1.600000X0.550000*%
%ADD35R,0.550000X1.600000*%
G04 APERTURE END LIST*
D10*
X148900000Y-129200000D03*
X151100000Y-129200000D03*
X148900000Y-109600000D03*
X151100000Y-109600000D03*
X129300000Y-129200000D03*
X131500000Y-129200000D03*
X129300000Y-109600000D03*
X131500000Y-109600000D03*
X148900000Y-90000000D03*
X151100000Y-90000000D03*
X129300000Y-90000000D03*
X131500000Y-90000000D03*
X168500000Y-90000000D03*
X170700000Y-90000000D03*
X168500000Y-129200000D03*
X170700000Y-129200000D03*
X168500000Y-109600000D03*
X170700000Y-109600000D03*
D11*
X169600000Y-80400000D03*
D12*
X174680000Y-80400000D03*
X164520000Y-80400000D03*
D13*
X172100000Y-72900000D03*
X167100000Y-72900000D03*
X169600000Y-72900000D03*
X172100000Y-87400000D03*
X167100000Y-87400000D03*
D14*
X173410000Y-82940000D03*
X167060000Y-85480000D03*
D11*
X130400000Y-80400000D03*
D12*
X135480000Y-80400000D03*
X125320000Y-80400000D03*
D13*
X132900000Y-72900000D03*
X127900000Y-72900000D03*
X130400000Y-72900000D03*
X132900000Y-87400000D03*
X127900000Y-87400000D03*
D14*
X134210000Y-82940000D03*
X127860000Y-85480000D03*
D11*
X150000000Y-80400000D03*
D12*
X155080000Y-80400000D03*
X144920000Y-80400000D03*
D13*
X152500000Y-72900000D03*
X147500000Y-72900000D03*
X150000000Y-72900000D03*
X152500000Y-87400000D03*
X147500000Y-87400000D03*
D14*
X153810000Y-82940000D03*
X147460000Y-85480000D03*
D15*
X135480000Y-100000000D03*
X125320000Y-100000000D03*
D11*
X130400000Y-100000000D03*
D16*
X134210000Y-102540000D03*
X127860000Y-105080000D03*
D15*
X135480000Y-119600000D03*
X125320000Y-119600000D03*
D11*
X130400000Y-119600000D03*
D16*
X134210000Y-122140000D03*
X127860000Y-124680000D03*
D15*
X174680000Y-119600000D03*
X164520000Y-119600000D03*
D11*
X169600000Y-119600000D03*
D16*
X173410000Y-122140000D03*
X167060000Y-124680000D03*
D15*
X174680000Y-100000000D03*
X164520000Y-100000000D03*
D11*
X169600000Y-100000000D03*
D16*
X173410000Y-102540000D03*
X167060000Y-105080000D03*
D15*
X155080000Y-100000000D03*
X144920000Y-100000000D03*
D11*
X150000000Y-100000000D03*
D16*
X153810000Y-102540000D03*
X147460000Y-105080000D03*
D15*
X155080000Y-119600000D03*
X144920000Y-119600000D03*
D11*
X150000000Y-119600000D03*
D16*
X153810000Y-122140000D03*
X147460000Y-124680000D03*
D17*
X115500000Y-134500000D03*
X184500000Y-134500000D03*
X184400000Y-65500000D03*
X115500000Y-65500000D03*
D18*
X147110000Y-64700000D03*
X152890000Y-64700000D03*
D19*
X146750000Y-66145000D03*
X147550000Y-66145000D03*
D20*
X148750000Y-66145000D03*
X149750000Y-66145000D03*
X150250000Y-66145000D03*
X151250000Y-66145000D03*
D19*
X152450000Y-66145000D03*
X153250000Y-66145000D03*
X153250000Y-66145000D03*
X152450000Y-66145000D03*
D20*
X151750000Y-66145000D03*
X150750000Y-66145000D03*
X149250000Y-66145000D03*
X148250000Y-66145000D03*
D19*
X147550000Y-66145000D03*
X146750000Y-66145000D03*
D21*
X154320000Y-61050000D03*
D22*
X154320000Y-65230000D03*
D21*
X145680000Y-61050000D03*
D22*
X145680000Y-65230000D03*
D23*
X140837500Y-62296000D03*
X140837500Y-63246000D03*
X140837500Y-64196000D03*
X138562500Y-64196000D03*
X138562500Y-63246000D03*
X138562500Y-62296000D03*
D24*
X132691500Y-68834000D03*
X134516500Y-68834000D03*
D25*
X116162000Y-78320000D03*
X113962000Y-78320000D03*
X113962000Y-76620000D03*
X116162000Y-76620000D03*
D26*
X134554000Y-62738000D03*
X132654000Y-62738000D03*
D24*
X146915500Y-69342000D03*
X148740500Y-69342000D03*
D27*
X153566500Y-69342000D03*
X151741500Y-69342000D03*
D28*
X117348000Y-108862500D03*
X117348000Y-107037500D03*
D29*
X114046000Y-90950000D03*
X114046000Y-89050000D03*
D30*
X138300000Y-66548000D03*
X141100000Y-66548000D03*
D31*
X118618000Y-89087500D03*
X118618000Y-90912500D03*
D32*
X121818000Y-63886000D03*
X128118000Y-63886000D03*
X128118000Y-67686000D03*
X121818000Y-67686000D03*
D31*
X116332000Y-89087500D03*
X116332000Y-90912500D03*
D26*
X134554000Y-64770000D03*
X132654000Y-64770000D03*
X134554000Y-66802000D03*
X132654000Y-66802000D03*
X116012000Y-81026000D03*
X114112000Y-81026000D03*
D33*
X114112000Y-74168000D03*
X116012000Y-74168000D03*
D34*
X121090000Y-96768000D03*
X121090000Y-97568000D03*
X121090000Y-98368000D03*
X121090000Y-99168000D03*
X121090000Y-99968000D03*
X121090000Y-100768000D03*
X121090000Y-101568000D03*
X121090000Y-102368000D03*
D35*
X119640000Y-103818000D03*
X118840000Y-103818000D03*
X118040000Y-103818000D03*
X117240000Y-103818000D03*
X116440000Y-103818000D03*
X115640000Y-103818000D03*
X114840000Y-103818000D03*
X114040000Y-103818000D03*
D34*
X112590000Y-102368000D03*
X112590000Y-101568000D03*
X112590000Y-100768000D03*
X112590000Y-99968000D03*
X112590000Y-99168000D03*
X112590000Y-98368000D03*
X112590000Y-97568000D03*
X112590000Y-96768000D03*
D35*
X114040000Y-95318000D03*
X114840000Y-95318000D03*
X115640000Y-95318000D03*
X116440000Y-95318000D03*
X117240000Y-95318000D03*
X118040000Y-95318000D03*
X118840000Y-95318000D03*
X119640000Y-95318000D03*
M02*
