%FSLAX45Y45*%
G04 Gerber Fmt 4.5, Leading zero omitted, Abs format (unit mm)*
G04 Created by KiCad (PCBNEW (6.0.1)) date 2022-06-28 21:47:59*
%MOMM*%
%LPD*%
G01*
G04 APERTURE LIST*
%TA.AperFunction,Profile*%
%ADD10C,0.349999*%
%TD*%
%ADD11C,0.200000*%
%ADD12C,0.065000*%
%ADD13C,0.170688*%
%ADD14C,0.220000*%
%ADD15C,0.270000*%
%ADD16C,0.408940*%
G04 APERTURE END LIST*
D10*
X18710005Y-6027735D02*
X18685475Y-6016867D01*
X18660445Y-13992793D02*
X18685475Y-13983134D01*
X11289995Y-13972265D02*
X11314525Y-13983134D01*
X18917077Y-6197784D02*
X18900445Y-6176434D01*
X18780140Y-6067407D02*
X18757383Y-6053024D01*
X18475000Y-5975000D02*
X18475000Y-5975000D01*
X11027735Y-13710005D02*
X11039794Y-13733989D01*
X18863909Y-6136092D02*
X18844146Y-6117285D01*
X19025000Y-6525000D02*
X19024324Y-6497727D01*
X10985666Y-6417200D02*
X10981028Y-6443782D01*
X11007207Y-13660445D02*
X11016867Y-13685475D01*
X19014334Y-6417200D02*
X19008412Y-6390938D01*
X18900445Y-13823567D02*
X18917077Y-13802216D01*
X19022308Y-6470640D02*
X19018972Y-6443782D01*
X11497727Y-14024324D02*
X11525000Y-14025000D01*
X10991588Y-6390938D02*
X10985666Y-6417200D01*
X18992793Y-6339555D02*
X18983134Y-6314525D01*
X11027735Y-6289995D02*
X11016867Y-6314525D01*
X18823567Y-13900444D02*
X18844146Y-13882716D01*
X18863909Y-13863909D02*
X18863909Y-13863909D01*
X18844146Y-13882716D02*
X18863909Y-13863909D01*
X11176434Y-6099556D02*
X11155855Y-6117285D01*
X10975000Y-13475000D02*
X10975676Y-13502272D01*
X19024324Y-13502272D02*
X19025000Y-13475000D01*
X11365041Y-5998774D02*
X11339555Y-6007207D01*
X10998774Y-13634959D02*
X11007207Y-13660445D01*
X11390938Y-5991588D02*
X11365041Y-5998774D01*
X18582800Y-5985666D02*
X18556218Y-5981028D01*
X11266011Y-13960206D02*
X11289995Y-13972265D01*
X11525000Y-14025000D02*
X11525000Y-14025000D01*
X11219860Y-6067407D02*
X11197784Y-6082924D01*
X11197784Y-6082924D02*
X11176434Y-6099556D01*
X19025000Y-13475000D02*
X19025000Y-6525000D01*
X11417200Y-5985666D02*
X11390938Y-5991588D01*
X19024324Y-6497727D02*
X19022308Y-6470640D01*
X18529360Y-5977692D02*
X18502273Y-5975676D01*
X11136092Y-6136092D02*
X11136092Y-6136092D01*
X18802216Y-6082924D02*
X18780140Y-6067407D01*
X18960206Y-6266011D02*
X18946976Y-6242617D01*
X18972265Y-6289995D02*
X18960206Y-6266011D01*
X18946976Y-13757383D02*
X18960206Y-13733989D01*
X10985666Y-13582800D02*
X10991588Y-13609062D01*
X18634959Y-5998774D02*
X18609062Y-5991588D01*
X18634959Y-14001226D02*
X18660445Y-13992793D01*
X11053024Y-13757383D02*
X11067407Y-13780140D01*
X18932594Y-6219860D02*
X18917077Y-6197784D01*
X10981028Y-6443782D02*
X10977692Y-6470640D01*
X18556218Y-14018972D02*
X18582800Y-14014334D01*
X18917077Y-13802216D02*
X18932594Y-13780140D01*
X19025000Y-6525000D02*
X19025000Y-6525000D01*
X19018972Y-13556218D02*
X19022308Y-13529360D01*
X18609062Y-5991588D02*
X18582800Y-5985666D01*
X18780140Y-13932593D02*
X18802216Y-13917077D01*
X10998774Y-6365041D02*
X10991588Y-6390938D01*
X11136092Y-13863909D02*
X11136092Y-13863909D01*
X18502273Y-5975676D02*
X18475000Y-5975000D01*
X11067407Y-6219860D02*
X11053024Y-6242617D01*
X18802216Y-13917077D02*
X18823567Y-13900444D01*
X18983134Y-6314525D02*
X18972265Y-6289995D01*
X10975676Y-6497727D02*
X10975000Y-6525000D01*
X18660445Y-6007207D02*
X18634959Y-5998774D01*
X10991588Y-13609062D02*
X10998774Y-13634959D01*
X18863909Y-6136092D02*
X18863909Y-6136092D01*
X11099556Y-13823567D02*
X11117285Y-13844146D01*
X19014334Y-13582800D02*
X19018972Y-13556218D01*
X18685475Y-13983134D02*
X18710005Y-13972265D01*
X18733989Y-6039794D02*
X18710005Y-6027735D01*
X18733989Y-13960206D02*
X18757383Y-13946976D01*
X11016867Y-6314525D02*
X11007207Y-6339555D01*
X11016867Y-13685475D02*
X11027735Y-13710005D01*
X19022308Y-13529360D02*
X19024324Y-13502272D01*
X10977692Y-6470640D02*
X10975676Y-6497727D01*
X11390938Y-14008412D02*
X11417200Y-14014334D01*
X11155855Y-13882716D02*
X11176434Y-13900444D01*
X11242617Y-13946976D02*
X11266011Y-13960206D01*
X19001226Y-13634959D02*
X19008412Y-13609062D01*
X11497727Y-5975676D02*
X11470640Y-5977692D01*
X18992793Y-13660445D02*
X19001226Y-13634959D01*
X18882716Y-13844146D02*
X18900445Y-13823567D01*
X18475000Y-5975000D02*
X11525000Y-5975000D01*
X11525000Y-5975000D02*
X11497727Y-5975676D01*
X18900445Y-6176434D02*
X18882716Y-6155854D01*
X11339555Y-6007207D02*
X11314525Y-6016867D01*
X19008412Y-13609062D02*
X19014334Y-13582800D01*
X11314525Y-13983134D02*
X11339555Y-13992793D01*
X10975676Y-13502272D02*
X10977692Y-13529360D01*
X11289995Y-6027735D02*
X11266011Y-6039794D01*
X19008412Y-6390938D02*
X19001226Y-6365041D01*
X11039794Y-6266011D02*
X11027735Y-6289995D01*
X11155855Y-6117285D02*
X11136092Y-6136092D01*
X11197784Y-13917077D02*
X11219860Y-13932593D01*
X19001226Y-6365041D02*
X18992793Y-6339555D01*
X18932594Y-13780140D02*
X18946976Y-13757383D01*
X10975000Y-6525000D02*
X10975000Y-6525000D01*
X10975000Y-6525000D02*
X10975000Y-13475000D01*
X11314525Y-6016867D02*
X11289995Y-6027735D01*
X18502273Y-14024324D02*
X18529360Y-14022308D01*
X11176434Y-13900444D02*
X11197784Y-13917077D01*
X18972265Y-13710005D02*
X18983134Y-13685475D01*
X11365041Y-14001226D02*
X11390938Y-14008412D01*
X18475000Y-14025000D02*
X18475000Y-14025000D01*
X11443782Y-5981028D02*
X11417200Y-5985666D01*
X11099556Y-6176434D02*
X11082924Y-6197784D01*
X18582800Y-14014334D02*
X18609062Y-14008412D01*
X18710005Y-13972265D02*
X18733989Y-13960206D01*
X18844146Y-6117285D02*
X18823567Y-6099556D01*
X18556218Y-5981028D02*
X18529360Y-5977692D01*
X11136092Y-13863909D02*
X11155855Y-13882716D01*
X11242617Y-6053024D02*
X11219860Y-6067407D01*
X18946976Y-6242617D02*
X18932594Y-6219860D01*
X11266011Y-6039794D02*
X11242617Y-6053024D01*
X11470640Y-14022308D02*
X11497727Y-14024324D01*
X18882716Y-6155854D02*
X18863909Y-6136092D01*
X11339555Y-13992793D02*
X11365041Y-14001226D01*
X10977692Y-13529360D02*
X10981028Y-13556218D01*
X18757383Y-6053024D02*
X18733989Y-6039794D01*
X11082924Y-6197784D02*
X11067407Y-6219860D01*
X18685475Y-6016867D02*
X18660445Y-6007207D01*
X18475000Y-14025000D02*
X18502273Y-14024324D01*
X18983134Y-13685475D02*
X18992793Y-13660445D01*
X18960206Y-13733989D02*
X18972265Y-13710005D01*
X11117285Y-6155854D02*
X11099556Y-6176434D01*
X11219860Y-13932593D02*
X11242617Y-13946976D01*
X11082924Y-13802216D02*
X11099556Y-13823567D01*
X11039794Y-13733989D02*
X11053024Y-13757383D01*
X18757383Y-13946976D02*
X18780140Y-13932593D01*
X10981028Y-13556218D02*
X10985666Y-13582800D01*
X11136092Y-6136092D02*
X11117285Y-6155854D01*
X18529360Y-14022308D02*
X18556218Y-14018972D01*
X11470640Y-5977692D02*
X11443782Y-5981028D01*
X11053024Y-6242617D02*
X11039794Y-6266011D01*
X18823567Y-6099556D02*
X18802216Y-6082924D01*
X11443782Y-14018972D02*
X11470640Y-14022308D01*
X11525000Y-5975000D02*
X11525000Y-5975000D01*
X11067407Y-13780140D02*
X11082924Y-13802216D01*
X18863909Y-13863909D02*
X18882716Y-13844146D01*
X10975000Y-13475000D02*
X10975000Y-13475000D01*
X11417200Y-14014334D02*
X11443782Y-14018972D01*
X11007207Y-6339555D02*
X10998774Y-6365041D01*
X19018972Y-6443782D02*
X19014334Y-6417200D01*
X18609062Y-14008412D02*
X18634959Y-14001226D01*
X11525000Y-14025000D02*
X18475000Y-14025000D01*
X11117285Y-13844146D02*
X11136092Y-13863909D01*
D11*
D12*
X14678500Y-6437500D02*
X14743500Y-6502500D01*
X14743500Y-6437500D02*
X14678500Y-6502500D01*
X15256500Y-6437500D02*
X15321500Y-6502500D01*
X15321500Y-6437500D02*
X15256500Y-6502500D01*
D13*
X12617344Y-10000000D02*
G75*
G03*
X12617344Y-10000000I-85344J0D01*
G01*
X12617344Y-11960000D02*
G75*
G03*
X12617344Y-11960000I-85344J0D01*
G01*
X13633344Y-10000000D02*
G75*
G03*
X13633344Y-10000000I-85344J0D01*
G01*
X13633344Y-11960000D02*
G75*
G03*
X13633344Y-11960000I-85344J0D01*
G01*
X14577344Y-10000000D02*
G75*
G03*
X14577344Y-10000000I-85344J0D01*
G01*
X14577344Y-11960000D02*
G75*
G03*
X14577344Y-11960000I-85344J0D01*
G01*
X15593344Y-10000000D02*
G75*
G03*
X15593344Y-10000000I-85344J0D01*
G01*
X15593344Y-11960000D02*
G75*
G03*
X15593344Y-11960000I-85344J0D01*
G01*
X16537344Y-10000000D02*
G75*
G03*
X16537344Y-10000000I-85344J0D01*
G01*
X16537344Y-11960000D02*
G75*
G03*
X16537344Y-11960000I-85344J0D01*
G01*
X17553344Y-10000000D02*
G75*
G03*
X17553344Y-10000000I-85344J0D01*
G01*
X17553344Y-11960000D02*
G75*
G03*
X17553344Y-11960000I-85344J0D01*
G01*
D14*
X12532000Y-7930000D02*
X12532000Y-8150000D01*
X12422000Y-8040000D02*
X12642000Y-8040000D01*
D11*
X12432000Y-8000000D02*
X12432000Y-8080000D01*
X12632000Y-8000000D02*
X12632000Y-8080000D01*
X12432000Y-8080000D02*
G75*
G03*
X12632000Y-8080000I100000J0D01*
G01*
X12632000Y-8000000D02*
G75*
G03*
X12432000Y-8000000I-100000J0D01*
G01*
D14*
X13548000Y-7930000D02*
X13548000Y-8150000D01*
X13438000Y-8040000D02*
X13658000Y-8040000D01*
D11*
X13448000Y-8000000D02*
X13448000Y-8080000D01*
X13648000Y-8000000D02*
X13648000Y-8080000D01*
X13448000Y-8080000D02*
G75*
G03*
X13648000Y-8080000I100000J0D01*
G01*
X13648000Y-8000000D02*
G75*
G03*
X13448000Y-8000000I-100000J0D01*
G01*
D14*
X14492000Y-7930000D02*
X14492000Y-8150000D01*
X14382000Y-8040000D02*
X14602000Y-8040000D01*
D11*
X14392000Y-8000000D02*
X14392000Y-8080000D01*
X14592000Y-8000000D02*
X14592000Y-8080000D01*
X14392000Y-8080000D02*
G75*
G03*
X14592000Y-8080000I100000J0D01*
G01*
X14592000Y-8000000D02*
G75*
G03*
X14392000Y-8000000I-100000J0D01*
G01*
D14*
X15508000Y-7930000D02*
X15508000Y-8150000D01*
X15398000Y-8040000D02*
X15618000Y-8040000D01*
D11*
X15408000Y-8000000D02*
X15408000Y-8080000D01*
X15608000Y-8000000D02*
X15608000Y-8080000D01*
X15408000Y-8080000D02*
G75*
G03*
X15608000Y-8080000I100000J0D01*
G01*
X15608000Y-8000000D02*
G75*
G03*
X15408000Y-8000000I-100000J0D01*
G01*
D14*
X16452000Y-7930000D02*
X16452000Y-8150000D01*
X16342000Y-8040000D02*
X16562000Y-8040000D01*
D11*
X16352000Y-8000000D02*
X16352000Y-8080000D01*
X16552000Y-8000000D02*
X16552000Y-8080000D01*
X16352000Y-8080000D02*
G75*
G03*
X16552000Y-8080000I100000J0D01*
G01*
X16552000Y-8000000D02*
G75*
G03*
X16352000Y-8000000I-100000J0D01*
G01*
D14*
X17468000Y-7930000D02*
X17468000Y-8150000D01*
X17358000Y-8040000D02*
X17578000Y-8040000D01*
D11*
X17368000Y-8000000D02*
X17368000Y-8080000D01*
X17568000Y-8000000D02*
X17568000Y-8080000D01*
X17368000Y-8080000D02*
G75*
G03*
X17568000Y-8080000I100000J0D01*
G01*
X17568000Y-8000000D02*
G75*
G03*
X17368000Y-8000000I-100000J0D01*
G01*
D15*
X11645460Y-6645460D02*
X11645460Y-6454540D01*
X11454540Y-6454540D01*
X11454540Y-6645460D01*
X11645460Y-6645460D01*
X11645460Y-13545460D02*
X11645460Y-13354540D01*
X11454540Y-13354540D01*
X11454540Y-13545460D01*
X11645460Y-13545460D01*
X18535460Y-6645460D02*
X18535460Y-6454540D01*
X18344540Y-6454540D01*
X18344540Y-6645460D01*
X18535460Y-6645460D01*
X18545460Y-13545460D02*
X18545460Y-13354540D01*
X18354540Y-13354540D01*
X18354540Y-13545460D01*
X18545460Y-13545460D01*
D16*
X13040000Y-8244470D02*
X13244470Y-8040000D01*
X13040000Y-7835530D01*
X12835530Y-8040000D01*
X13040000Y-8244470D01*
X13040000Y-10204470D02*
X13244470Y-10000000D01*
X13040000Y-9795530D01*
X12835530Y-10000000D01*
X13040000Y-10204470D01*
X13040000Y-12164470D02*
X13244470Y-11960000D01*
X13040000Y-11755530D01*
X12835530Y-11960000D01*
X13040000Y-12164470D01*
X15000000Y-8244470D02*
X15204470Y-8040000D01*
X15000000Y-7835530D01*
X14795530Y-8040000D01*
X15000000Y-8244470D01*
X15000000Y-10204470D02*
X15204470Y-10000000D01*
X15000000Y-9795530D01*
X14795530Y-10000000D01*
X15000000Y-10204470D01*
X15000000Y-12164470D02*
X15204470Y-11960000D01*
X15000000Y-11755530D01*
X14795530Y-11960000D01*
X15000000Y-12164470D01*
X16960000Y-8244470D02*
X17164470Y-8040000D01*
X16960000Y-7835530D01*
X16755530Y-8040000D01*
X16960000Y-8244470D01*
X16960000Y-10204470D02*
X17164470Y-10000000D01*
X16960000Y-9795530D01*
X16755530Y-10000000D01*
X16960000Y-10204470D01*
X16960000Y-12164470D02*
X17164470Y-11960000D01*
X16960000Y-11755530D01*
X16755530Y-11960000D01*
X16960000Y-12164470D01*
D11*
X11215119Y-14352976D02*
X11215119Y-14152976D01*
X11262738Y-14152976D01*
X11291310Y-14162500D01*
X11310358Y-14181547D01*
X11319881Y-14200595D01*
X11329405Y-14238690D01*
X11329405Y-14267261D01*
X11319881Y-14305357D01*
X11310358Y-14324404D01*
X11291310Y-14343452D01*
X11262738Y-14352976D01*
X11215119Y-14352976D01*
X11415119Y-14352976D02*
X11415119Y-14219642D01*
X11415119Y-14257738D02*
X11424643Y-14238690D01*
X11434167Y-14229166D01*
X11453215Y-14219642D01*
X11472262Y-14219642D01*
X11538929Y-14352976D02*
X11538929Y-14219642D01*
X11538929Y-14152976D02*
X11529405Y-14162500D01*
X11538929Y-14172023D01*
X11548453Y-14162500D01*
X11538929Y-14152976D01*
X11538929Y-14172023D01*
X11662738Y-14352976D02*
X11643691Y-14343452D01*
X11634167Y-14324404D01*
X11634167Y-14152976D01*
X11767500Y-14352976D02*
X11748453Y-14343452D01*
X11738929Y-14324404D01*
X11738929Y-14152976D01*
X11996072Y-14352976D02*
X11996072Y-14152976D01*
X12062738Y-14295833D01*
X12129405Y-14152976D01*
X12129405Y-14352976D01*
X12310358Y-14352976D02*
X12310358Y-14248214D01*
X12300834Y-14229166D01*
X12281786Y-14219642D01*
X12243691Y-14219642D01*
X12224643Y-14229166D01*
X12310358Y-14343452D02*
X12291310Y-14352976D01*
X12243691Y-14352976D01*
X12224643Y-14343452D01*
X12215119Y-14324404D01*
X12215119Y-14305357D01*
X12224643Y-14286309D01*
X12243691Y-14276785D01*
X12291310Y-14276785D01*
X12310358Y-14267261D01*
X12405596Y-14219642D02*
X12405596Y-14419642D01*
X12405596Y-14229166D02*
X12424643Y-14219642D01*
X12462738Y-14219642D01*
X12481786Y-14229166D01*
X12491310Y-14238690D01*
X12500834Y-14257738D01*
X12500834Y-14314880D01*
X12491310Y-14333928D01*
X12481786Y-14343452D01*
X12462738Y-14352976D01*
X12424643Y-14352976D01*
X12405596Y-14343452D01*
X12586548Y-14333928D02*
X12596072Y-14343452D01*
X12586548Y-14352976D01*
X12577024Y-14343452D01*
X12586548Y-14333928D01*
X12586548Y-14352976D01*
X12586548Y-14229166D02*
X12596072Y-14238690D01*
X12586548Y-14248214D01*
X12577024Y-14238690D01*
X12586548Y-14229166D01*
X12586548Y-14248214D01*
D12*
X10892501Y-14650000D02*
X10957501Y-14715000D01*
X10957501Y-14650000D02*
X10892501Y-14715000D01*
D11*
X11253215Y-14572976D02*
X11272262Y-14572976D01*
X11291310Y-14582500D01*
X11300834Y-14592023D01*
X11310358Y-14611071D01*
X11319881Y-14649166D01*
X11319881Y-14696785D01*
X11310358Y-14734880D01*
X11300834Y-14753928D01*
X11291310Y-14763452D01*
X11272262Y-14772976D01*
X11253215Y-14772976D01*
X11234167Y-14763452D01*
X11224643Y-14753928D01*
X11215119Y-14734880D01*
X11205596Y-14696785D01*
X11205596Y-14649166D01*
X11215119Y-14611071D01*
X11224643Y-14592023D01*
X11234167Y-14582500D01*
X11253215Y-14572976D01*
X11405596Y-14753928D02*
X11415119Y-14763452D01*
X11405596Y-14772976D01*
X11396072Y-14763452D01*
X11405596Y-14753928D01*
X11405596Y-14772976D01*
X11586548Y-14572976D02*
X11548453Y-14572976D01*
X11529405Y-14582500D01*
X11519881Y-14592023D01*
X11500834Y-14620595D01*
X11491310Y-14658690D01*
X11491310Y-14734880D01*
X11500834Y-14753928D01*
X11510358Y-14763452D01*
X11529405Y-14772976D01*
X11567500Y-14772976D01*
X11586548Y-14763452D01*
X11596072Y-14753928D01*
X11605596Y-14734880D01*
X11605596Y-14687261D01*
X11596072Y-14668214D01*
X11586548Y-14658690D01*
X11567500Y-14649166D01*
X11529405Y-14649166D01*
X11510358Y-14658690D01*
X11500834Y-14668214D01*
X11491310Y-14687261D01*
X11786548Y-14572976D02*
X11691310Y-14572976D01*
X11681786Y-14668214D01*
X11691310Y-14658690D01*
X11710358Y-14649166D01*
X11757977Y-14649166D01*
X11777024Y-14658690D01*
X11786548Y-14668214D01*
X11796072Y-14687261D01*
X11796072Y-14734880D01*
X11786548Y-14753928D01*
X11777024Y-14763452D01*
X11757977Y-14772976D01*
X11710358Y-14772976D01*
X11691310Y-14763452D01*
X11681786Y-14753928D01*
X11919881Y-14572976D02*
X11938929Y-14572976D01*
X11957977Y-14582500D01*
X11967500Y-14592023D01*
X11977024Y-14611071D01*
X11986548Y-14649166D01*
X11986548Y-14696785D01*
X11977024Y-14734880D01*
X11967500Y-14753928D01*
X11957977Y-14763452D01*
X11938929Y-14772976D01*
X11919881Y-14772976D01*
X11900834Y-14763452D01*
X11891310Y-14753928D01*
X11881786Y-14734880D01*
X11872262Y-14696785D01*
X11872262Y-14649166D01*
X11881786Y-14611071D01*
X11891310Y-14592023D01*
X11900834Y-14582500D01*
X11919881Y-14572976D01*
X12072262Y-14772976D02*
X12072262Y-14639642D01*
X12072262Y-14658690D02*
X12081786Y-14649166D01*
X12100834Y-14639642D01*
X12129405Y-14639642D01*
X12148453Y-14649166D01*
X12157977Y-14668214D01*
X12157977Y-14772976D01*
X12157977Y-14668214D02*
X12167500Y-14649166D01*
X12186548Y-14639642D01*
X12215119Y-14639642D01*
X12234167Y-14649166D01*
X12243691Y-14668214D01*
X12243691Y-14772976D01*
X12338929Y-14772976D02*
X12338929Y-14639642D01*
X12338929Y-14658690D02*
X12348453Y-14649166D01*
X12367500Y-14639642D01*
X12396072Y-14639642D01*
X12415119Y-14649166D01*
X12424643Y-14668214D01*
X12424643Y-14772976D01*
X12424643Y-14668214D02*
X12434167Y-14649166D01*
X12453215Y-14639642D01*
X12481786Y-14639642D01*
X12500834Y-14649166D01*
X12510358Y-14668214D01*
X12510358Y-14772976D01*
X12900834Y-14563452D02*
X12729405Y-14820595D01*
X13157977Y-14572976D02*
X13177024Y-14572976D01*
X13196072Y-14582500D01*
X13205596Y-14592023D01*
X13215119Y-14611071D01*
X13224643Y-14649166D01*
X13224643Y-14696785D01*
X13215119Y-14734880D01*
X13205596Y-14753928D01*
X13196072Y-14763452D01*
X13177024Y-14772976D01*
X13157977Y-14772976D01*
X13138929Y-14763452D01*
X13129405Y-14753928D01*
X13119881Y-14734880D01*
X13110358Y-14696785D01*
X13110358Y-14649166D01*
X13119881Y-14611071D01*
X13129405Y-14592023D01*
X13138929Y-14582500D01*
X13157977Y-14572976D01*
X13310358Y-14753928D02*
X13319881Y-14763452D01*
X13310358Y-14772976D01*
X13300834Y-14763452D01*
X13310358Y-14753928D01*
X13310358Y-14772976D01*
X13443691Y-14572976D02*
X13462738Y-14572976D01*
X13481786Y-14582500D01*
X13491310Y-14592023D01*
X13500834Y-14611071D01*
X13510358Y-14649166D01*
X13510358Y-14696785D01*
X13500834Y-14734880D01*
X13491310Y-14753928D01*
X13481786Y-14763452D01*
X13462738Y-14772976D01*
X13443691Y-14772976D01*
X13424643Y-14763452D01*
X13415119Y-14753928D01*
X13405596Y-14734880D01*
X13396072Y-14696785D01*
X13396072Y-14649166D01*
X13405596Y-14611071D01*
X13415119Y-14592023D01*
X13424643Y-14582500D01*
X13443691Y-14572976D01*
X13586548Y-14592023D02*
X13596072Y-14582500D01*
X13615119Y-14572976D01*
X13662738Y-14572976D01*
X13681786Y-14582500D01*
X13691310Y-14592023D01*
X13700834Y-14611071D01*
X13700834Y-14630119D01*
X13691310Y-14658690D01*
X13577024Y-14772976D01*
X13700834Y-14772976D01*
X13881786Y-14572976D02*
X13786548Y-14572976D01*
X13777024Y-14668214D01*
X13786548Y-14658690D01*
X13805596Y-14649166D01*
X13853215Y-14649166D01*
X13872262Y-14658690D01*
X13881786Y-14668214D01*
X13891310Y-14687261D01*
X13891310Y-14734880D01*
X13881786Y-14753928D01*
X13872262Y-14763452D01*
X13853215Y-14772976D01*
X13805596Y-14772976D01*
X13786548Y-14763452D01*
X13777024Y-14753928D01*
X14062738Y-14572976D02*
X14024643Y-14572976D01*
X14005596Y-14582500D01*
X13996072Y-14592023D01*
X13977024Y-14620595D01*
X13967500Y-14658690D01*
X13967500Y-14734880D01*
X13977024Y-14753928D01*
X13986548Y-14763452D01*
X14005596Y-14772976D01*
X14043691Y-14772976D01*
X14062738Y-14763452D01*
X14072262Y-14753928D01*
X14081786Y-14734880D01*
X14081786Y-14687261D01*
X14072262Y-14668214D01*
X14062738Y-14658690D01*
X14043691Y-14649166D01*
X14005596Y-14649166D01*
X13986548Y-14658690D01*
X13977024Y-14668214D01*
X13967500Y-14687261D01*
X14157977Y-14572976D02*
X14157977Y-14611071D01*
X14234167Y-14572976D02*
X14234167Y-14611071D01*
X14529405Y-14849166D02*
X14519881Y-14839642D01*
X14500834Y-14811071D01*
X14491310Y-14792023D01*
X14481786Y-14763452D01*
X14472262Y-14715833D01*
X14472262Y-14677738D01*
X14481786Y-14630119D01*
X14491310Y-14601547D01*
X14500834Y-14582500D01*
X14519881Y-14553928D01*
X14529405Y-14544404D01*
X14596072Y-14592023D02*
X14605596Y-14582500D01*
X14624643Y-14572976D01*
X14672262Y-14572976D01*
X14691310Y-14582500D01*
X14700834Y-14592023D01*
X14710358Y-14611071D01*
X14710358Y-14630119D01*
X14700834Y-14658690D01*
X14586548Y-14772976D01*
X14710358Y-14772976D01*
X14948453Y-14772976D02*
X14948453Y-14572976D01*
X15034167Y-14772976D02*
X15034167Y-14668214D01*
X15024643Y-14649166D01*
X15005596Y-14639642D01*
X14977024Y-14639642D01*
X14957977Y-14649166D01*
X14948453Y-14658690D01*
X15157977Y-14772976D02*
X15138929Y-14763452D01*
X15129405Y-14753928D01*
X15119881Y-14734880D01*
X15119881Y-14677738D01*
X15129405Y-14658690D01*
X15138929Y-14649166D01*
X15157977Y-14639642D01*
X15186548Y-14639642D01*
X15205596Y-14649166D01*
X15215119Y-14658690D01*
X15224643Y-14677738D01*
X15224643Y-14734880D01*
X15215119Y-14753928D01*
X15205596Y-14763452D01*
X15186548Y-14772976D01*
X15157977Y-14772976D01*
X15338929Y-14772976D02*
X15319881Y-14763452D01*
X15310358Y-14744404D01*
X15310358Y-14572976D01*
X15491310Y-14763452D02*
X15472262Y-14772976D01*
X15434167Y-14772976D01*
X15415119Y-14763452D01*
X15405596Y-14744404D01*
X15405596Y-14668214D01*
X15415119Y-14649166D01*
X15434167Y-14639642D01*
X15472262Y-14639642D01*
X15491310Y-14649166D01*
X15500834Y-14668214D01*
X15500834Y-14687261D01*
X15405596Y-14706309D01*
X15577024Y-14763452D02*
X15596072Y-14772976D01*
X15634167Y-14772976D01*
X15653215Y-14763452D01*
X15662738Y-14744404D01*
X15662738Y-14734880D01*
X15653215Y-14715833D01*
X15634167Y-14706309D01*
X15605596Y-14706309D01*
X15586548Y-14696785D01*
X15577024Y-14677738D01*
X15577024Y-14668214D01*
X15586548Y-14649166D01*
X15605596Y-14639642D01*
X15634167Y-14639642D01*
X15653215Y-14649166D01*
X15729405Y-14849166D02*
X15738929Y-14839642D01*
X15757977Y-14811071D01*
X15767500Y-14792023D01*
X15777024Y-14763452D01*
X15786548Y-14715833D01*
X15786548Y-14677738D01*
X15777024Y-14630119D01*
X15767500Y-14601547D01*
X15757977Y-14582500D01*
X15738929Y-14553928D01*
X15729405Y-14544404D01*
X16091310Y-14849166D02*
X16081786Y-14839642D01*
X16062738Y-14811071D01*
X16053215Y-14792023D01*
X16043691Y-14763452D01*
X16034167Y-14715833D01*
X16034167Y-14677738D01*
X16043691Y-14630119D01*
X16053215Y-14601547D01*
X16062738Y-14582500D01*
X16081786Y-14553928D01*
X16091310Y-14544404D01*
X16167500Y-14639642D02*
X16167500Y-14772976D01*
X16167500Y-14658690D02*
X16177024Y-14649166D01*
X16196072Y-14639642D01*
X16224643Y-14639642D01*
X16243691Y-14649166D01*
X16253215Y-14668214D01*
X16253215Y-14772976D01*
X16377024Y-14772976D02*
X16357977Y-14763452D01*
X16348453Y-14753928D01*
X16338929Y-14734880D01*
X16338929Y-14677738D01*
X16348453Y-14658690D01*
X16357977Y-14649166D01*
X16377024Y-14639642D01*
X16405596Y-14639642D01*
X16424643Y-14649166D01*
X16434167Y-14658690D01*
X16443691Y-14677738D01*
X16443691Y-14734880D01*
X16434167Y-14753928D01*
X16424643Y-14763452D01*
X16405596Y-14772976D01*
X16377024Y-14772976D01*
X16500834Y-14639642D02*
X16577024Y-14639642D01*
X16529405Y-14572976D02*
X16529405Y-14744404D01*
X16538929Y-14763452D01*
X16557977Y-14772976D01*
X16577024Y-14772976D01*
X16796072Y-14639642D02*
X16796072Y-14839642D01*
X16796072Y-14649166D02*
X16815120Y-14639642D01*
X16853215Y-14639642D01*
X16872262Y-14649166D01*
X16881786Y-14658690D01*
X16891310Y-14677738D01*
X16891310Y-14734880D01*
X16881786Y-14753928D01*
X16872262Y-14763452D01*
X16853215Y-14772976D01*
X16815120Y-14772976D01*
X16796072Y-14763452D01*
X17005596Y-14772976D02*
X16986548Y-14763452D01*
X16977024Y-14744404D01*
X16977024Y-14572976D01*
X17167500Y-14772976D02*
X17167500Y-14668214D01*
X17157977Y-14649166D01*
X17138929Y-14639642D01*
X17100834Y-14639642D01*
X17081786Y-14649166D01*
X17167500Y-14763452D02*
X17148453Y-14772976D01*
X17100834Y-14772976D01*
X17081786Y-14763452D01*
X17072262Y-14744404D01*
X17072262Y-14725357D01*
X17081786Y-14706309D01*
X17100834Y-14696785D01*
X17148453Y-14696785D01*
X17167500Y-14687261D01*
X17234167Y-14639642D02*
X17310358Y-14639642D01*
X17262739Y-14572976D02*
X17262739Y-14744404D01*
X17272262Y-14763452D01*
X17291310Y-14772976D01*
X17310358Y-14772976D01*
X17453215Y-14763452D02*
X17434167Y-14772976D01*
X17396072Y-14772976D01*
X17377024Y-14763452D01*
X17367500Y-14744404D01*
X17367500Y-14668214D01*
X17377024Y-14649166D01*
X17396072Y-14639642D01*
X17434167Y-14639642D01*
X17453215Y-14649166D01*
X17462739Y-14668214D01*
X17462739Y-14687261D01*
X17367500Y-14706309D01*
X17634167Y-14772976D02*
X17634167Y-14572976D01*
X17634167Y-14763452D02*
X17615120Y-14772976D01*
X17577024Y-14772976D01*
X17557977Y-14763452D01*
X17548453Y-14753928D01*
X17538929Y-14734880D01*
X17538929Y-14677738D01*
X17548453Y-14658690D01*
X17557977Y-14649166D01*
X17577024Y-14639642D01*
X17615120Y-14639642D01*
X17634167Y-14649166D01*
X17710358Y-14849166D02*
X17719881Y-14839642D01*
X17738929Y-14811071D01*
X17748453Y-14792023D01*
X17757977Y-14763452D01*
X17767500Y-14715833D01*
X17767500Y-14677738D01*
X17757977Y-14630119D01*
X17748453Y-14601547D01*
X17738929Y-14582500D01*
X17719881Y-14553928D01*
X17710358Y-14544404D01*
D13*
X10957501Y-14946500D02*
G75*
G03*
X10957501Y-14946500I-85344J0D01*
G01*
D11*
X11319881Y-15036976D02*
X11205596Y-15036976D01*
X11262738Y-15036976D02*
X11262738Y-14836976D01*
X11243691Y-14865547D01*
X11224643Y-14884595D01*
X11205596Y-14894119D01*
X11405596Y-15017928D02*
X11415119Y-15027452D01*
X11405596Y-15036976D01*
X11396072Y-15027452D01*
X11405596Y-15017928D01*
X11405596Y-15036976D01*
X11481786Y-14836976D02*
X11615119Y-14836976D01*
X11529405Y-15036976D01*
X11729405Y-14836976D02*
X11748453Y-14836976D01*
X11767500Y-14846500D01*
X11777024Y-14856023D01*
X11786548Y-14875071D01*
X11796072Y-14913166D01*
X11796072Y-14960785D01*
X11786548Y-14998880D01*
X11777024Y-15017928D01*
X11767500Y-15027452D01*
X11748453Y-15036976D01*
X11729405Y-15036976D01*
X11710358Y-15027452D01*
X11700834Y-15017928D01*
X11691310Y-14998880D01*
X11681786Y-14960785D01*
X11681786Y-14913166D01*
X11691310Y-14875071D01*
X11700834Y-14856023D01*
X11710358Y-14846500D01*
X11729405Y-14836976D01*
X11862738Y-14836976D02*
X11996072Y-14836976D01*
X11910358Y-15036976D01*
X12072262Y-15036976D02*
X12072262Y-14903642D01*
X12072262Y-14922690D02*
X12081786Y-14913166D01*
X12100834Y-14903642D01*
X12129405Y-14903642D01*
X12148453Y-14913166D01*
X12157977Y-14932214D01*
X12157977Y-15036976D01*
X12157977Y-14932214D02*
X12167500Y-14913166D01*
X12186548Y-14903642D01*
X12215119Y-14903642D01*
X12234167Y-14913166D01*
X12243691Y-14932214D01*
X12243691Y-15036976D01*
X12338929Y-15036976D02*
X12338929Y-14903642D01*
X12338929Y-14922690D02*
X12348453Y-14913166D01*
X12367500Y-14903642D01*
X12396072Y-14903642D01*
X12415119Y-14913166D01*
X12424643Y-14932214D01*
X12424643Y-15036976D01*
X12424643Y-14932214D02*
X12434167Y-14913166D01*
X12453215Y-14903642D01*
X12481786Y-14903642D01*
X12500834Y-14913166D01*
X12510358Y-14932214D01*
X12510358Y-15036976D01*
X12900834Y-14827452D02*
X12729405Y-15084595D01*
X13157977Y-14836976D02*
X13177024Y-14836976D01*
X13196072Y-14846500D01*
X13205596Y-14856023D01*
X13215119Y-14875071D01*
X13224643Y-14913166D01*
X13224643Y-14960785D01*
X13215119Y-14998880D01*
X13205596Y-15017928D01*
X13196072Y-15027452D01*
X13177024Y-15036976D01*
X13157977Y-15036976D01*
X13138929Y-15027452D01*
X13129405Y-15017928D01*
X13119881Y-14998880D01*
X13110358Y-14960785D01*
X13110358Y-14913166D01*
X13119881Y-14875071D01*
X13129405Y-14856023D01*
X13138929Y-14846500D01*
X13157977Y-14836976D01*
X13310358Y-15017928D02*
X13319881Y-15027452D01*
X13310358Y-15036976D01*
X13300834Y-15027452D01*
X13310358Y-15017928D01*
X13310358Y-15036976D01*
X13443691Y-14836976D02*
X13462738Y-14836976D01*
X13481786Y-14846500D01*
X13491310Y-14856023D01*
X13500834Y-14875071D01*
X13510358Y-14913166D01*
X13510358Y-14960785D01*
X13500834Y-14998880D01*
X13491310Y-15017928D01*
X13481786Y-15027452D01*
X13462738Y-15036976D01*
X13443691Y-15036976D01*
X13424643Y-15027452D01*
X13415119Y-15017928D01*
X13405596Y-14998880D01*
X13396072Y-14960785D01*
X13396072Y-14913166D01*
X13405596Y-14875071D01*
X13415119Y-14856023D01*
X13424643Y-14846500D01*
X13443691Y-14836976D01*
X13681786Y-14836976D02*
X13643691Y-14836976D01*
X13624643Y-14846500D01*
X13615119Y-14856023D01*
X13596072Y-14884595D01*
X13586548Y-14922690D01*
X13586548Y-14998880D01*
X13596072Y-15017928D01*
X13605596Y-15027452D01*
X13624643Y-15036976D01*
X13662738Y-15036976D01*
X13681786Y-15027452D01*
X13691310Y-15017928D01*
X13700834Y-14998880D01*
X13700834Y-14951261D01*
X13691310Y-14932214D01*
X13681786Y-14922690D01*
X13662738Y-14913166D01*
X13624643Y-14913166D01*
X13605596Y-14922690D01*
X13596072Y-14932214D01*
X13586548Y-14951261D01*
X13767500Y-14836976D02*
X13900834Y-14836976D01*
X13815119Y-15036976D01*
X13967500Y-14856023D02*
X13977024Y-14846500D01*
X13996072Y-14836976D01*
X14043691Y-14836976D01*
X14062738Y-14846500D01*
X14072262Y-14856023D01*
X14081786Y-14875071D01*
X14081786Y-14894119D01*
X14072262Y-14922690D01*
X13957977Y-15036976D01*
X14081786Y-15036976D01*
X14157977Y-14836976D02*
X14157977Y-14875071D01*
X14234167Y-14836976D02*
X14234167Y-14875071D01*
X14529405Y-15113166D02*
X14519881Y-15103642D01*
X14500834Y-15075071D01*
X14491310Y-15056023D01*
X14481786Y-15027452D01*
X14472262Y-14979833D01*
X14472262Y-14941738D01*
X14481786Y-14894119D01*
X14491310Y-14865547D01*
X14500834Y-14846500D01*
X14519881Y-14817928D01*
X14529405Y-14808404D01*
X14710358Y-15036976D02*
X14596072Y-15036976D01*
X14653215Y-15036976D02*
X14653215Y-14836976D01*
X14634167Y-14865547D01*
X14615119Y-14884595D01*
X14596072Y-14894119D01*
X14786548Y-14856023D02*
X14796072Y-14846500D01*
X14815119Y-14836976D01*
X14862738Y-14836976D01*
X14881786Y-14846500D01*
X14891310Y-14856023D01*
X14900834Y-14875071D01*
X14900834Y-14894119D01*
X14891310Y-14922690D01*
X14777024Y-15036976D01*
X14900834Y-15036976D01*
X15138929Y-15036976D02*
X15138929Y-14836976D01*
X15224643Y-15036976D02*
X15224643Y-14932214D01*
X15215119Y-14913166D01*
X15196072Y-14903642D01*
X15167500Y-14903642D01*
X15148453Y-14913166D01*
X15138929Y-14922690D01*
X15348453Y-15036976D02*
X15329405Y-15027452D01*
X15319881Y-15017928D01*
X15310358Y-14998880D01*
X15310358Y-14941738D01*
X15319881Y-14922690D01*
X15329405Y-14913166D01*
X15348453Y-14903642D01*
X15377024Y-14903642D01*
X15396072Y-14913166D01*
X15405596Y-14922690D01*
X15415119Y-14941738D01*
X15415119Y-14998880D01*
X15405596Y-15017928D01*
X15396072Y-15027452D01*
X15377024Y-15036976D01*
X15348453Y-15036976D01*
X15529405Y-15036976D02*
X15510358Y-15027452D01*
X15500834Y-15008404D01*
X15500834Y-14836976D01*
X15681786Y-15027452D02*
X15662738Y-15036976D01*
X15624643Y-15036976D01*
X15605596Y-15027452D01*
X15596072Y-15008404D01*
X15596072Y-14932214D01*
X15605596Y-14913166D01*
X15624643Y-14903642D01*
X15662738Y-14903642D01*
X15681786Y-14913166D01*
X15691310Y-14932214D01*
X15691310Y-14951261D01*
X15596072Y-14970309D01*
X15767500Y-15027452D02*
X15786548Y-15036976D01*
X15824643Y-15036976D01*
X15843691Y-15027452D01*
X15853215Y-15008404D01*
X15853215Y-14998880D01*
X15843691Y-14979833D01*
X15824643Y-14970309D01*
X15796072Y-14970309D01*
X15777024Y-14960785D01*
X15767500Y-14941738D01*
X15767500Y-14932214D01*
X15777024Y-14913166D01*
X15796072Y-14903642D01*
X15824643Y-14903642D01*
X15843691Y-14913166D01*
X15919881Y-15113166D02*
X15929405Y-15103642D01*
X15948453Y-15075071D01*
X15957977Y-15056023D01*
X15967500Y-15027452D01*
X15977024Y-14979833D01*
X15977024Y-14941738D01*
X15967500Y-14894119D01*
X15957977Y-14865547D01*
X15948453Y-14846500D01*
X15929405Y-14817928D01*
X15919881Y-14808404D01*
X16281786Y-15113166D02*
X16272262Y-15103642D01*
X16253215Y-15075071D01*
X16243691Y-15056023D01*
X16234167Y-15027452D01*
X16224643Y-14979833D01*
X16224643Y-14941738D01*
X16234167Y-14894119D01*
X16243691Y-14865547D01*
X16253215Y-14846500D01*
X16272262Y-14817928D01*
X16281786Y-14808404D01*
X16357977Y-14903642D02*
X16357977Y-15036976D01*
X16357977Y-14922690D02*
X16367500Y-14913166D01*
X16386548Y-14903642D01*
X16415119Y-14903642D01*
X16434167Y-14913166D01*
X16443691Y-14932214D01*
X16443691Y-15036976D01*
X16567500Y-15036976D02*
X16548453Y-15027452D01*
X16538929Y-15017928D01*
X16529405Y-14998880D01*
X16529405Y-14941738D01*
X16538929Y-14922690D01*
X16548453Y-14913166D01*
X16567500Y-14903642D01*
X16596072Y-14903642D01*
X16615119Y-14913166D01*
X16624643Y-14922690D01*
X16634167Y-14941738D01*
X16634167Y-14998880D01*
X16624643Y-15017928D01*
X16615119Y-15027452D01*
X16596072Y-15036976D01*
X16567500Y-15036976D01*
X16691310Y-14903642D02*
X16767500Y-14903642D01*
X16719881Y-14836976D02*
X16719881Y-15008404D01*
X16729405Y-15027452D01*
X16748453Y-15036976D01*
X16767500Y-15036976D01*
X16986548Y-14903642D02*
X16986548Y-15103642D01*
X16986548Y-14913166D02*
X17005596Y-14903642D01*
X17043691Y-14903642D01*
X17062739Y-14913166D01*
X17072262Y-14922690D01*
X17081786Y-14941738D01*
X17081786Y-14998880D01*
X17072262Y-15017928D01*
X17062739Y-15027452D01*
X17043691Y-15036976D01*
X17005596Y-15036976D01*
X16986548Y-15027452D01*
X17196072Y-15036976D02*
X17177024Y-15027452D01*
X17167500Y-15008404D01*
X17167500Y-14836976D01*
X17357977Y-15036976D02*
X17357977Y-14932214D01*
X17348453Y-14913166D01*
X17329405Y-14903642D01*
X17291310Y-14903642D01*
X17272262Y-14913166D01*
X17357977Y-15027452D02*
X17338929Y-15036976D01*
X17291310Y-15036976D01*
X17272262Y-15027452D01*
X17262739Y-15008404D01*
X17262739Y-14989357D01*
X17272262Y-14970309D01*
X17291310Y-14960785D01*
X17338929Y-14960785D01*
X17357977Y-14951261D01*
X17424643Y-14903642D02*
X17500834Y-14903642D01*
X17453215Y-14836976D02*
X17453215Y-15008404D01*
X17462739Y-15027452D01*
X17481786Y-15036976D01*
X17500834Y-15036976D01*
X17643691Y-15027452D02*
X17624643Y-15036976D01*
X17586548Y-15036976D01*
X17567500Y-15027452D01*
X17557977Y-15008404D01*
X17557977Y-14932214D01*
X17567500Y-14913166D01*
X17586548Y-14903642D01*
X17624643Y-14903642D01*
X17643691Y-14913166D01*
X17653215Y-14932214D01*
X17653215Y-14951261D01*
X17557977Y-14970309D01*
X17824643Y-15036976D02*
X17824643Y-14836976D01*
X17824643Y-15027452D02*
X17805596Y-15036976D01*
X17767500Y-15036976D01*
X17748453Y-15027452D01*
X17738929Y-15017928D01*
X17729405Y-14998880D01*
X17729405Y-14941738D01*
X17738929Y-14922690D01*
X17748453Y-14913166D01*
X17767500Y-14903642D01*
X17805596Y-14903642D01*
X17824643Y-14913166D01*
X17900834Y-15113166D02*
X17910358Y-15103642D01*
X17929405Y-15075071D01*
X17938929Y-15056023D01*
X17948453Y-15027452D01*
X17957977Y-14979833D01*
X17957977Y-14941738D01*
X17948453Y-14894119D01*
X17938929Y-14865547D01*
X17929405Y-14846500D01*
X17910358Y-14817928D01*
X17900834Y-14808404D01*
X10857501Y-15137188D02*
X10857501Y-15337188D01*
X10757501Y-15237188D02*
X10957501Y-15237188D01*
X11205596Y-15146711D02*
X11215119Y-15137188D01*
X11234167Y-15127664D01*
X11281786Y-15127664D01*
X11300834Y-15137188D01*
X11310358Y-15146711D01*
X11319881Y-15165759D01*
X11319881Y-15184807D01*
X11310358Y-15213378D01*
X11196072Y-15327664D01*
X11319881Y-15327664D01*
X11405596Y-15308616D02*
X11415119Y-15318140D01*
X11405596Y-15327664D01*
X11396072Y-15318140D01*
X11405596Y-15308616D01*
X11405596Y-15327664D01*
X11491310Y-15146711D02*
X11500834Y-15137188D01*
X11519881Y-15127664D01*
X11567500Y-15127664D01*
X11586548Y-15137188D01*
X11596072Y-15146711D01*
X11605596Y-15165759D01*
X11605596Y-15184807D01*
X11596072Y-15213378D01*
X11481786Y-15327664D01*
X11605596Y-15327664D01*
X11729405Y-15127664D02*
X11748453Y-15127664D01*
X11767500Y-15137188D01*
X11777024Y-15146711D01*
X11786548Y-15165759D01*
X11796072Y-15203854D01*
X11796072Y-15251473D01*
X11786548Y-15289569D01*
X11777024Y-15308616D01*
X11767500Y-15318140D01*
X11748453Y-15327664D01*
X11729405Y-15327664D01*
X11710358Y-15318140D01*
X11700834Y-15308616D01*
X11691310Y-15289569D01*
X11681786Y-15251473D01*
X11681786Y-15203854D01*
X11691310Y-15165759D01*
X11700834Y-15146711D01*
X11710358Y-15137188D01*
X11729405Y-15127664D01*
X11919881Y-15127664D02*
X11938929Y-15127664D01*
X11957977Y-15137188D01*
X11967500Y-15146711D01*
X11977024Y-15165759D01*
X11986548Y-15203854D01*
X11986548Y-15251473D01*
X11977024Y-15289569D01*
X11967500Y-15308616D01*
X11957977Y-15318140D01*
X11938929Y-15327664D01*
X11919881Y-15327664D01*
X11900834Y-15318140D01*
X11891310Y-15308616D01*
X11881786Y-15289569D01*
X11872262Y-15251473D01*
X11872262Y-15203854D01*
X11881786Y-15165759D01*
X11891310Y-15146711D01*
X11900834Y-15137188D01*
X11919881Y-15127664D01*
X12072262Y-15327664D02*
X12072262Y-15194330D01*
X12072262Y-15213378D02*
X12081786Y-15203854D01*
X12100834Y-15194330D01*
X12129405Y-15194330D01*
X12148453Y-15203854D01*
X12157977Y-15222902D01*
X12157977Y-15327664D01*
X12157977Y-15222902D02*
X12167500Y-15203854D01*
X12186548Y-15194330D01*
X12215119Y-15194330D01*
X12234167Y-15203854D01*
X12243691Y-15222902D01*
X12243691Y-15327664D01*
X12338929Y-15327664D02*
X12338929Y-15194330D01*
X12338929Y-15213378D02*
X12348453Y-15203854D01*
X12367500Y-15194330D01*
X12396072Y-15194330D01*
X12415119Y-15203854D01*
X12424643Y-15222902D01*
X12424643Y-15327664D01*
X12424643Y-15222902D02*
X12434167Y-15203854D01*
X12453215Y-15194330D01*
X12481786Y-15194330D01*
X12500834Y-15203854D01*
X12510358Y-15222902D01*
X12510358Y-15327664D01*
X12900834Y-15118140D02*
X12729405Y-15375283D01*
X13157977Y-15127664D02*
X13177024Y-15127664D01*
X13196072Y-15137188D01*
X13205596Y-15146711D01*
X13215119Y-15165759D01*
X13224643Y-15203854D01*
X13224643Y-15251473D01*
X13215119Y-15289569D01*
X13205596Y-15308616D01*
X13196072Y-15318140D01*
X13177024Y-15327664D01*
X13157977Y-15327664D01*
X13138929Y-15318140D01*
X13129405Y-15308616D01*
X13119881Y-15289569D01*
X13110358Y-15251473D01*
X13110358Y-15203854D01*
X13119881Y-15165759D01*
X13129405Y-15146711D01*
X13138929Y-15137188D01*
X13157977Y-15127664D01*
X13310358Y-15308616D02*
X13319881Y-15318140D01*
X13310358Y-15327664D01*
X13300834Y-15318140D01*
X13310358Y-15308616D01*
X13310358Y-15327664D01*
X13443691Y-15127664D02*
X13462738Y-15127664D01*
X13481786Y-15137188D01*
X13491310Y-15146711D01*
X13500834Y-15165759D01*
X13510358Y-15203854D01*
X13510358Y-15251473D01*
X13500834Y-15289569D01*
X13491310Y-15308616D01*
X13481786Y-15318140D01*
X13462738Y-15327664D01*
X13443691Y-15327664D01*
X13424643Y-15318140D01*
X13415119Y-15308616D01*
X13405596Y-15289569D01*
X13396072Y-15251473D01*
X13396072Y-15203854D01*
X13405596Y-15165759D01*
X13415119Y-15146711D01*
X13424643Y-15137188D01*
X13443691Y-15127664D01*
X13624643Y-15213378D02*
X13605596Y-15203854D01*
X13596072Y-15194330D01*
X13586548Y-15175283D01*
X13586548Y-15165759D01*
X13596072Y-15146711D01*
X13605596Y-15137188D01*
X13624643Y-15127664D01*
X13662738Y-15127664D01*
X13681786Y-15137188D01*
X13691310Y-15146711D01*
X13700834Y-15165759D01*
X13700834Y-15175283D01*
X13691310Y-15194330D01*
X13681786Y-15203854D01*
X13662738Y-15213378D01*
X13624643Y-15213378D01*
X13605596Y-15222902D01*
X13596072Y-15232426D01*
X13586548Y-15251473D01*
X13586548Y-15289569D01*
X13596072Y-15308616D01*
X13605596Y-15318140D01*
X13624643Y-15327664D01*
X13662738Y-15327664D01*
X13681786Y-15318140D01*
X13691310Y-15308616D01*
X13700834Y-15289569D01*
X13700834Y-15251473D01*
X13691310Y-15232426D01*
X13681786Y-15222902D01*
X13662738Y-15213378D01*
X13872262Y-15127664D02*
X13834167Y-15127664D01*
X13815119Y-15137188D01*
X13805596Y-15146711D01*
X13786548Y-15175283D01*
X13777024Y-15213378D01*
X13777024Y-15289569D01*
X13786548Y-15308616D01*
X13796072Y-15318140D01*
X13815119Y-15327664D01*
X13853215Y-15327664D01*
X13872262Y-15318140D01*
X13881786Y-15308616D01*
X13891310Y-15289569D01*
X13891310Y-15241950D01*
X13881786Y-15222902D01*
X13872262Y-15213378D01*
X13853215Y-15203854D01*
X13815119Y-15203854D01*
X13796072Y-15213378D01*
X13786548Y-15222902D01*
X13777024Y-15241950D01*
X14062738Y-15127664D02*
X14024643Y-15127664D01*
X14005596Y-15137188D01*
X13996072Y-15146711D01*
X13977024Y-15175283D01*
X13967500Y-15213378D01*
X13967500Y-15289569D01*
X13977024Y-15308616D01*
X13986548Y-15318140D01*
X14005596Y-15327664D01*
X14043691Y-15327664D01*
X14062738Y-15318140D01*
X14072262Y-15308616D01*
X14081786Y-15289569D01*
X14081786Y-15241950D01*
X14072262Y-15222902D01*
X14062738Y-15213378D01*
X14043691Y-15203854D01*
X14005596Y-15203854D01*
X13986548Y-15213378D01*
X13977024Y-15222902D01*
X13967500Y-15241950D01*
X14157977Y-15127664D02*
X14157977Y-15165759D01*
X14234167Y-15127664D02*
X14234167Y-15165759D01*
X14529405Y-15403854D02*
X14519881Y-15394330D01*
X14500834Y-15365759D01*
X14491310Y-15346711D01*
X14481786Y-15318140D01*
X14472262Y-15270521D01*
X14472262Y-15232426D01*
X14481786Y-15184807D01*
X14491310Y-15156235D01*
X14500834Y-15137188D01*
X14519881Y-15108616D01*
X14529405Y-15099092D01*
X14643691Y-15127664D02*
X14662738Y-15127664D01*
X14681786Y-15137188D01*
X14691310Y-15146711D01*
X14700834Y-15165759D01*
X14710358Y-15203854D01*
X14710358Y-15251473D01*
X14700834Y-15289569D01*
X14691310Y-15308616D01*
X14681786Y-15318140D01*
X14662738Y-15327664D01*
X14643691Y-15327664D01*
X14624643Y-15318140D01*
X14615119Y-15308616D01*
X14605596Y-15289569D01*
X14596072Y-15251473D01*
X14596072Y-15203854D01*
X14605596Y-15165759D01*
X14615119Y-15146711D01*
X14624643Y-15137188D01*
X14643691Y-15127664D01*
X14948453Y-15327664D02*
X14948453Y-15127664D01*
X15034167Y-15327664D02*
X15034167Y-15222902D01*
X15024643Y-15203854D01*
X15005596Y-15194330D01*
X14977024Y-15194330D01*
X14957977Y-15203854D01*
X14948453Y-15213378D01*
X15157977Y-15327664D02*
X15138929Y-15318140D01*
X15129405Y-15308616D01*
X15119881Y-15289569D01*
X15119881Y-15232426D01*
X15129405Y-15213378D01*
X15138929Y-15203854D01*
X15157977Y-15194330D01*
X15186548Y-15194330D01*
X15205596Y-15203854D01*
X15215119Y-15213378D01*
X15224643Y-15232426D01*
X15224643Y-15289569D01*
X15215119Y-15308616D01*
X15205596Y-15318140D01*
X15186548Y-15327664D01*
X15157977Y-15327664D01*
X15338929Y-15327664D02*
X15319881Y-15318140D01*
X15310358Y-15299092D01*
X15310358Y-15127664D01*
X15491310Y-15318140D02*
X15472262Y-15327664D01*
X15434167Y-15327664D01*
X15415119Y-15318140D01*
X15405596Y-15299092D01*
X15405596Y-15222902D01*
X15415119Y-15203854D01*
X15434167Y-15194330D01*
X15472262Y-15194330D01*
X15491310Y-15203854D01*
X15500834Y-15222902D01*
X15500834Y-15241950D01*
X15405596Y-15260997D01*
X15577024Y-15318140D02*
X15596072Y-15327664D01*
X15634167Y-15327664D01*
X15653215Y-15318140D01*
X15662738Y-15299092D01*
X15662738Y-15289569D01*
X15653215Y-15270521D01*
X15634167Y-15260997D01*
X15605596Y-15260997D01*
X15586548Y-15251473D01*
X15577024Y-15232426D01*
X15577024Y-15222902D01*
X15586548Y-15203854D01*
X15605596Y-15194330D01*
X15634167Y-15194330D01*
X15653215Y-15203854D01*
X15900834Y-15251473D02*
X16053215Y-15251473D01*
X15977024Y-15327664D02*
X15977024Y-15175283D01*
X16386548Y-15127664D02*
X16348453Y-15127664D01*
X16329405Y-15137188D01*
X16319881Y-15146711D01*
X16300834Y-15175283D01*
X16291310Y-15213378D01*
X16291310Y-15289569D01*
X16300834Y-15308616D01*
X16310358Y-15318140D01*
X16329405Y-15327664D01*
X16367500Y-15327664D01*
X16386548Y-15318140D01*
X16396072Y-15308616D01*
X16405596Y-15289569D01*
X16405596Y-15241950D01*
X16396072Y-15222902D01*
X16386548Y-15213378D01*
X16367500Y-15203854D01*
X16329405Y-15203854D01*
X16310358Y-15213378D01*
X16300834Y-15222902D01*
X16291310Y-15241950D01*
X16634167Y-15318140D02*
X16653215Y-15327664D01*
X16691310Y-15327664D01*
X16710358Y-15318140D01*
X16719881Y-15299092D01*
X16719881Y-15289569D01*
X16710358Y-15270521D01*
X16691310Y-15260997D01*
X16662738Y-15260997D01*
X16643691Y-15251473D01*
X16634167Y-15232426D01*
X16634167Y-15222902D01*
X16643691Y-15203854D01*
X16662738Y-15194330D01*
X16691310Y-15194330D01*
X16710358Y-15203854D01*
X16834167Y-15327664D02*
X16815120Y-15318140D01*
X16805596Y-15299092D01*
X16805596Y-15127664D01*
X16938929Y-15327664D02*
X16919881Y-15318140D01*
X16910358Y-15308616D01*
X16900834Y-15289569D01*
X16900834Y-15232426D01*
X16910358Y-15213378D01*
X16919881Y-15203854D01*
X16938929Y-15194330D01*
X16967500Y-15194330D01*
X16986548Y-15203854D01*
X16996072Y-15213378D01*
X17005596Y-15232426D01*
X17005596Y-15289569D01*
X16996072Y-15308616D01*
X16986548Y-15318140D01*
X16967500Y-15327664D01*
X16938929Y-15327664D01*
X17062739Y-15194330D02*
X17138929Y-15194330D01*
X17091310Y-15127664D02*
X17091310Y-15299092D01*
X17100834Y-15318140D01*
X17119881Y-15327664D01*
X17138929Y-15327664D01*
X17196072Y-15318140D02*
X17215120Y-15327664D01*
X17253215Y-15327664D01*
X17272262Y-15318140D01*
X17281786Y-15299092D01*
X17281786Y-15289569D01*
X17272262Y-15270521D01*
X17253215Y-15260997D01*
X17224643Y-15260997D01*
X17205596Y-15251473D01*
X17196072Y-15232426D01*
X17196072Y-15222902D01*
X17205596Y-15203854D01*
X17224643Y-15194330D01*
X17253215Y-15194330D01*
X17272262Y-15203854D01*
X17348453Y-15403854D02*
X17357977Y-15394330D01*
X17377024Y-15365759D01*
X17386548Y-15346711D01*
X17396072Y-15318140D01*
X17405596Y-15270521D01*
X17405596Y-15232426D01*
X17396072Y-15184807D01*
X17386548Y-15156235D01*
X17377024Y-15137188D01*
X17357977Y-15108616D01*
X17348453Y-15099092D01*
X17710358Y-15403854D02*
X17700834Y-15394330D01*
X17681786Y-15365759D01*
X17672262Y-15346711D01*
X17662739Y-15318140D01*
X17653215Y-15270521D01*
X17653215Y-15232426D01*
X17662739Y-15184807D01*
X17672262Y-15156235D01*
X17681786Y-15137188D01*
X17700834Y-15108616D01*
X17710358Y-15099092D01*
X17786548Y-15194330D02*
X17786548Y-15327664D01*
X17786548Y-15213378D02*
X17796072Y-15203854D01*
X17815120Y-15194330D01*
X17843691Y-15194330D01*
X17862739Y-15203854D01*
X17872262Y-15222902D01*
X17872262Y-15327664D01*
X17996072Y-15327664D02*
X17977024Y-15318140D01*
X17967500Y-15308616D01*
X17957977Y-15289569D01*
X17957977Y-15232426D01*
X17967500Y-15213378D01*
X17977024Y-15203854D01*
X17996072Y-15194330D01*
X18024643Y-15194330D01*
X18043691Y-15203854D01*
X18053215Y-15213378D01*
X18062739Y-15232426D01*
X18062739Y-15289569D01*
X18053215Y-15308616D01*
X18043691Y-15318140D01*
X18024643Y-15327664D01*
X17996072Y-15327664D01*
X18119881Y-15194330D02*
X18196072Y-15194330D01*
X18148453Y-15127664D02*
X18148453Y-15299092D01*
X18157977Y-15318140D01*
X18177024Y-15327664D01*
X18196072Y-15327664D01*
X18415120Y-15194330D02*
X18415120Y-15394330D01*
X18415120Y-15203854D02*
X18434167Y-15194330D01*
X18472262Y-15194330D01*
X18491310Y-15203854D01*
X18500834Y-15213378D01*
X18510358Y-15232426D01*
X18510358Y-15289569D01*
X18500834Y-15308616D01*
X18491310Y-15318140D01*
X18472262Y-15327664D01*
X18434167Y-15327664D01*
X18415120Y-15318140D01*
X18624643Y-15327664D02*
X18605596Y-15318140D01*
X18596072Y-15299092D01*
X18596072Y-15127664D01*
X18786548Y-15327664D02*
X18786548Y-15222902D01*
X18777024Y-15203854D01*
X18757977Y-15194330D01*
X18719881Y-15194330D01*
X18700834Y-15203854D01*
X18786548Y-15318140D02*
X18767500Y-15327664D01*
X18719881Y-15327664D01*
X18700834Y-15318140D01*
X18691310Y-15299092D01*
X18691310Y-15280045D01*
X18700834Y-15260997D01*
X18719881Y-15251473D01*
X18767500Y-15251473D01*
X18786548Y-15241950D01*
X18853215Y-15194330D02*
X18929405Y-15194330D01*
X18881786Y-15127664D02*
X18881786Y-15299092D01*
X18891310Y-15318140D01*
X18910358Y-15327664D01*
X18929405Y-15327664D01*
X19072262Y-15318140D02*
X19053215Y-15327664D01*
X19015120Y-15327664D01*
X18996072Y-15318140D01*
X18986548Y-15299092D01*
X18986548Y-15222902D01*
X18996072Y-15203854D01*
X19015120Y-15194330D01*
X19053215Y-15194330D01*
X19072262Y-15203854D01*
X19081786Y-15222902D01*
X19081786Y-15241950D01*
X18986548Y-15260997D01*
X19253215Y-15327664D02*
X19253215Y-15127664D01*
X19253215Y-15318140D02*
X19234167Y-15327664D01*
X19196072Y-15327664D01*
X19177024Y-15318140D01*
X19167500Y-15308616D01*
X19157977Y-15289569D01*
X19157977Y-15232426D01*
X19167500Y-15213378D01*
X19177024Y-15203854D01*
X19196072Y-15194330D01*
X19234167Y-15194330D01*
X19253215Y-15203854D01*
X19329405Y-15403854D02*
X19338929Y-15394330D01*
X19357977Y-15365759D01*
X19367500Y-15346711D01*
X19377024Y-15318140D01*
X19386548Y-15270521D01*
X19386548Y-15232426D01*
X19377024Y-15184807D01*
X19367500Y-15156235D01*
X19357977Y-15137188D01*
X19338929Y-15108616D01*
X19329405Y-15099092D01*
X10928212Y-15627899D02*
X10928212Y-15486476D01*
X10786789Y-15486476D01*
X10786789Y-15627899D01*
X10928212Y-15627899D01*
X11205596Y-15466711D02*
X11215119Y-15457188D01*
X11234167Y-15447664D01*
X11281786Y-15447664D01*
X11300834Y-15457188D01*
X11310358Y-15466711D01*
X11319881Y-15485759D01*
X11319881Y-15504807D01*
X11310358Y-15533378D01*
X11196072Y-15647664D01*
X11319881Y-15647664D01*
X11405596Y-15628616D02*
X11415119Y-15638140D01*
X11405596Y-15647664D01*
X11396072Y-15638140D01*
X11405596Y-15628616D01*
X11405596Y-15647664D01*
X11481786Y-15447664D02*
X11615119Y-15447664D01*
X11529405Y-15647664D01*
X11729405Y-15447664D02*
X11748453Y-15447664D01*
X11767500Y-15457188D01*
X11777024Y-15466711D01*
X11786548Y-15485759D01*
X11796072Y-15523854D01*
X11796072Y-15571473D01*
X11786548Y-15609569D01*
X11777024Y-15628616D01*
X11767500Y-15638140D01*
X11748453Y-15647664D01*
X11729405Y-15647664D01*
X11710358Y-15638140D01*
X11700834Y-15628616D01*
X11691310Y-15609569D01*
X11681786Y-15571473D01*
X11681786Y-15523854D01*
X11691310Y-15485759D01*
X11700834Y-15466711D01*
X11710358Y-15457188D01*
X11729405Y-15447664D01*
X11919881Y-15447664D02*
X11938929Y-15447664D01*
X11957977Y-15457188D01*
X11967500Y-15466711D01*
X11977024Y-15485759D01*
X11986548Y-15523854D01*
X11986548Y-15571473D01*
X11977024Y-15609569D01*
X11967500Y-15628616D01*
X11957977Y-15638140D01*
X11938929Y-15647664D01*
X11919881Y-15647664D01*
X11900834Y-15638140D01*
X11891310Y-15628616D01*
X11881786Y-15609569D01*
X11872262Y-15571473D01*
X11872262Y-15523854D01*
X11881786Y-15485759D01*
X11891310Y-15466711D01*
X11900834Y-15457188D01*
X11919881Y-15447664D01*
X12072262Y-15647664D02*
X12072262Y-15514330D01*
X12072262Y-15533378D02*
X12081786Y-15523854D01*
X12100834Y-15514330D01*
X12129405Y-15514330D01*
X12148453Y-15523854D01*
X12157977Y-15542902D01*
X12157977Y-15647664D01*
X12157977Y-15542902D02*
X12167500Y-15523854D01*
X12186548Y-15514330D01*
X12215119Y-15514330D01*
X12234167Y-15523854D01*
X12243691Y-15542902D01*
X12243691Y-15647664D01*
X12338929Y-15647664D02*
X12338929Y-15514330D01*
X12338929Y-15533378D02*
X12348453Y-15523854D01*
X12367500Y-15514330D01*
X12396072Y-15514330D01*
X12415119Y-15523854D01*
X12424643Y-15542902D01*
X12424643Y-15647664D01*
X12424643Y-15542902D02*
X12434167Y-15523854D01*
X12453215Y-15514330D01*
X12481786Y-15514330D01*
X12500834Y-15523854D01*
X12510358Y-15542902D01*
X12510358Y-15647664D01*
X12900834Y-15438140D02*
X12729405Y-15695283D01*
X13157977Y-15447664D02*
X13177024Y-15447664D01*
X13196072Y-15457188D01*
X13205596Y-15466711D01*
X13215119Y-15485759D01*
X13224643Y-15523854D01*
X13224643Y-15571473D01*
X13215119Y-15609569D01*
X13205596Y-15628616D01*
X13196072Y-15638140D01*
X13177024Y-15647664D01*
X13157977Y-15647664D01*
X13138929Y-15638140D01*
X13129405Y-15628616D01*
X13119881Y-15609569D01*
X13110358Y-15571473D01*
X13110358Y-15523854D01*
X13119881Y-15485759D01*
X13129405Y-15466711D01*
X13138929Y-15457188D01*
X13157977Y-15447664D01*
X13310358Y-15628616D02*
X13319881Y-15638140D01*
X13310358Y-15647664D01*
X13300834Y-15638140D01*
X13310358Y-15628616D01*
X13310358Y-15647664D01*
X13510358Y-15647664D02*
X13396072Y-15647664D01*
X13453215Y-15647664D02*
X13453215Y-15447664D01*
X13434167Y-15476235D01*
X13415119Y-15495283D01*
X13396072Y-15504807D01*
X13634167Y-15447664D02*
X13653215Y-15447664D01*
X13672262Y-15457188D01*
X13681786Y-15466711D01*
X13691310Y-15485759D01*
X13700834Y-15523854D01*
X13700834Y-15571473D01*
X13691310Y-15609569D01*
X13681786Y-15628616D01*
X13672262Y-15638140D01*
X13653215Y-15647664D01*
X13634167Y-15647664D01*
X13615119Y-15638140D01*
X13605596Y-15628616D01*
X13596072Y-15609569D01*
X13586548Y-15571473D01*
X13586548Y-15523854D01*
X13596072Y-15485759D01*
X13605596Y-15466711D01*
X13615119Y-15457188D01*
X13634167Y-15447664D01*
X13872262Y-15447664D02*
X13834167Y-15447664D01*
X13815119Y-15457188D01*
X13805596Y-15466711D01*
X13786548Y-15495283D01*
X13777024Y-15533378D01*
X13777024Y-15609569D01*
X13786548Y-15628616D01*
X13796072Y-15638140D01*
X13815119Y-15647664D01*
X13853215Y-15647664D01*
X13872262Y-15638140D01*
X13881786Y-15628616D01*
X13891310Y-15609569D01*
X13891310Y-15561950D01*
X13881786Y-15542902D01*
X13872262Y-15533378D01*
X13853215Y-15523854D01*
X13815119Y-15523854D01*
X13796072Y-15533378D01*
X13786548Y-15542902D01*
X13777024Y-15561950D01*
X13957977Y-15447664D02*
X14081786Y-15447664D01*
X14015119Y-15523854D01*
X14043691Y-15523854D01*
X14062738Y-15533378D01*
X14072262Y-15542902D01*
X14081786Y-15561950D01*
X14081786Y-15609569D01*
X14072262Y-15628616D01*
X14062738Y-15638140D01*
X14043691Y-15647664D01*
X13986548Y-15647664D01*
X13967500Y-15638140D01*
X13957977Y-15628616D01*
X14157977Y-15447664D02*
X14157977Y-15485759D01*
X14234167Y-15447664D02*
X14234167Y-15485759D01*
X14529405Y-15723854D02*
X14519881Y-15714330D01*
X14500834Y-15685759D01*
X14491310Y-15666711D01*
X14481786Y-15638140D01*
X14472262Y-15590521D01*
X14472262Y-15552426D01*
X14481786Y-15504807D01*
X14491310Y-15476235D01*
X14500834Y-15457188D01*
X14519881Y-15428616D01*
X14529405Y-15419092D01*
X14691310Y-15514330D02*
X14691310Y-15647664D01*
X14643691Y-15438140D02*
X14596072Y-15580997D01*
X14719881Y-15580997D01*
X14948453Y-15647664D02*
X14948453Y-15447664D01*
X15034167Y-15647664D02*
X15034167Y-15542902D01*
X15024643Y-15523854D01*
X15005596Y-15514330D01*
X14977024Y-15514330D01*
X14957977Y-15523854D01*
X14948453Y-15533378D01*
X15157977Y-15647664D02*
X15138929Y-15638140D01*
X15129405Y-15628616D01*
X15119881Y-15609569D01*
X15119881Y-15552426D01*
X15129405Y-15533378D01*
X15138929Y-15523854D01*
X15157977Y-15514330D01*
X15186548Y-15514330D01*
X15205596Y-15523854D01*
X15215119Y-15533378D01*
X15224643Y-15552426D01*
X15224643Y-15609569D01*
X15215119Y-15628616D01*
X15205596Y-15638140D01*
X15186548Y-15647664D01*
X15157977Y-15647664D01*
X15338929Y-15647664D02*
X15319881Y-15638140D01*
X15310358Y-15619092D01*
X15310358Y-15447664D01*
X15491310Y-15638140D02*
X15472262Y-15647664D01*
X15434167Y-15647664D01*
X15415119Y-15638140D01*
X15405596Y-15619092D01*
X15405596Y-15542902D01*
X15415119Y-15523854D01*
X15434167Y-15514330D01*
X15472262Y-15514330D01*
X15491310Y-15523854D01*
X15500834Y-15542902D01*
X15500834Y-15561950D01*
X15405596Y-15580997D01*
X15577024Y-15638140D02*
X15596072Y-15647664D01*
X15634167Y-15647664D01*
X15653215Y-15638140D01*
X15662738Y-15619092D01*
X15662738Y-15609569D01*
X15653215Y-15590521D01*
X15634167Y-15580997D01*
X15605596Y-15580997D01*
X15586548Y-15571473D01*
X15577024Y-15552426D01*
X15577024Y-15542902D01*
X15586548Y-15523854D01*
X15605596Y-15514330D01*
X15634167Y-15514330D01*
X15653215Y-15523854D01*
X15729405Y-15723854D02*
X15738929Y-15714330D01*
X15757977Y-15685759D01*
X15767500Y-15666711D01*
X15777024Y-15638140D01*
X15786548Y-15590521D01*
X15786548Y-15552426D01*
X15777024Y-15504807D01*
X15767500Y-15476235D01*
X15757977Y-15457188D01*
X15738929Y-15428616D01*
X15729405Y-15419092D01*
X16091310Y-15723854D02*
X16081786Y-15714330D01*
X16062738Y-15685759D01*
X16053215Y-15666711D01*
X16043691Y-15638140D01*
X16034167Y-15590521D01*
X16034167Y-15552426D01*
X16043691Y-15504807D01*
X16053215Y-15476235D01*
X16062738Y-15457188D01*
X16081786Y-15428616D01*
X16091310Y-15419092D01*
X16167500Y-15514330D02*
X16167500Y-15647664D01*
X16167500Y-15533378D02*
X16177024Y-15523854D01*
X16196072Y-15514330D01*
X16224643Y-15514330D01*
X16243691Y-15523854D01*
X16253215Y-15542902D01*
X16253215Y-15647664D01*
X16377024Y-15647664D02*
X16357977Y-15638140D01*
X16348453Y-15628616D01*
X16338929Y-15609569D01*
X16338929Y-15552426D01*
X16348453Y-15533378D01*
X16357977Y-15523854D01*
X16377024Y-15514330D01*
X16405596Y-15514330D01*
X16424643Y-15523854D01*
X16434167Y-15533378D01*
X16443691Y-15552426D01*
X16443691Y-15609569D01*
X16434167Y-15628616D01*
X16424643Y-15638140D01*
X16405596Y-15647664D01*
X16377024Y-15647664D01*
X16500834Y-15514330D02*
X16577024Y-15514330D01*
X16529405Y-15447664D02*
X16529405Y-15619092D01*
X16538929Y-15638140D01*
X16557977Y-15647664D01*
X16577024Y-15647664D01*
X16796072Y-15514330D02*
X16796072Y-15714330D01*
X16796072Y-15523854D02*
X16815120Y-15514330D01*
X16853215Y-15514330D01*
X16872262Y-15523854D01*
X16881786Y-15533378D01*
X16891310Y-15552426D01*
X16891310Y-15609569D01*
X16881786Y-15628616D01*
X16872262Y-15638140D01*
X16853215Y-15647664D01*
X16815120Y-15647664D01*
X16796072Y-15638140D01*
X17005596Y-15647664D02*
X16986548Y-15638140D01*
X16977024Y-15619092D01*
X16977024Y-15447664D01*
X17167500Y-15647664D02*
X17167500Y-15542902D01*
X17157977Y-15523854D01*
X17138929Y-15514330D01*
X17100834Y-15514330D01*
X17081786Y-15523854D01*
X17167500Y-15638140D02*
X17148453Y-15647664D01*
X17100834Y-15647664D01*
X17081786Y-15638140D01*
X17072262Y-15619092D01*
X17072262Y-15600045D01*
X17081786Y-15580997D01*
X17100834Y-15571473D01*
X17148453Y-15571473D01*
X17167500Y-15561950D01*
X17234167Y-15514330D02*
X17310358Y-15514330D01*
X17262739Y-15447664D02*
X17262739Y-15619092D01*
X17272262Y-15638140D01*
X17291310Y-15647664D01*
X17310358Y-15647664D01*
X17453215Y-15638140D02*
X17434167Y-15647664D01*
X17396072Y-15647664D01*
X17377024Y-15638140D01*
X17367500Y-15619092D01*
X17367500Y-15542902D01*
X17377024Y-15523854D01*
X17396072Y-15514330D01*
X17434167Y-15514330D01*
X17453215Y-15523854D01*
X17462739Y-15542902D01*
X17462739Y-15561950D01*
X17367500Y-15580997D01*
X17634167Y-15647664D02*
X17634167Y-15447664D01*
X17634167Y-15638140D02*
X17615120Y-15647664D01*
X17577024Y-15647664D01*
X17557977Y-15638140D01*
X17548453Y-15628616D01*
X17538929Y-15609569D01*
X17538929Y-15552426D01*
X17548453Y-15533378D01*
X17557977Y-15523854D01*
X17577024Y-15514330D01*
X17615120Y-15514330D01*
X17634167Y-15523854D01*
X17710358Y-15723854D02*
X17719881Y-15714330D01*
X17738929Y-15685759D01*
X17748453Y-15666711D01*
X17757977Y-15638140D01*
X17767500Y-15590521D01*
X17767500Y-15552426D01*
X17757977Y-15504807D01*
X17748453Y-15476235D01*
X17738929Y-15457188D01*
X17719881Y-15428616D01*
X17710358Y-15419092D01*
X10857501Y-15977188D02*
X10957501Y-15877188D01*
X10857501Y-15777188D01*
X10757501Y-15877188D01*
X10857501Y-15977188D01*
X11300834Y-15834330D02*
X11300834Y-15967664D01*
X11253215Y-15758140D02*
X11205596Y-15900997D01*
X11329405Y-15900997D01*
X11405596Y-15948616D02*
X11415119Y-15958140D01*
X11405596Y-15967664D01*
X11396072Y-15958140D01*
X11405596Y-15948616D01*
X11405596Y-15967664D01*
X11538929Y-15767664D02*
X11557977Y-15767664D01*
X11577024Y-15777188D01*
X11586548Y-15786711D01*
X11596072Y-15805759D01*
X11605596Y-15843854D01*
X11605596Y-15891473D01*
X11596072Y-15929569D01*
X11586548Y-15948616D01*
X11577024Y-15958140D01*
X11557977Y-15967664D01*
X11538929Y-15967664D01*
X11519881Y-15958140D01*
X11510358Y-15948616D01*
X11500834Y-15929569D01*
X11491310Y-15891473D01*
X11491310Y-15843854D01*
X11500834Y-15805759D01*
X11510358Y-15786711D01*
X11519881Y-15777188D01*
X11538929Y-15767664D01*
X11719881Y-15853378D02*
X11700834Y-15843854D01*
X11691310Y-15834330D01*
X11681786Y-15815283D01*
X11681786Y-15805759D01*
X11691310Y-15786711D01*
X11700834Y-15777188D01*
X11719881Y-15767664D01*
X11757977Y-15767664D01*
X11777024Y-15777188D01*
X11786548Y-15786711D01*
X11796072Y-15805759D01*
X11796072Y-15815283D01*
X11786548Y-15834330D01*
X11777024Y-15843854D01*
X11757977Y-15853378D01*
X11719881Y-15853378D01*
X11700834Y-15862902D01*
X11691310Y-15872426D01*
X11681786Y-15891473D01*
X11681786Y-15929569D01*
X11691310Y-15948616D01*
X11700834Y-15958140D01*
X11719881Y-15967664D01*
X11757977Y-15967664D01*
X11777024Y-15958140D01*
X11786548Y-15948616D01*
X11796072Y-15929569D01*
X11796072Y-15891473D01*
X11786548Y-15872426D01*
X11777024Y-15862902D01*
X11757977Y-15853378D01*
X11891310Y-15967664D02*
X11929405Y-15967664D01*
X11948453Y-15958140D01*
X11957977Y-15948616D01*
X11977024Y-15920045D01*
X11986548Y-15881950D01*
X11986548Y-15805759D01*
X11977024Y-15786711D01*
X11967500Y-15777188D01*
X11948453Y-15767664D01*
X11910358Y-15767664D01*
X11891310Y-15777188D01*
X11881786Y-15786711D01*
X11872262Y-15805759D01*
X11872262Y-15853378D01*
X11881786Y-15872426D01*
X11891310Y-15881950D01*
X11910358Y-15891473D01*
X11948453Y-15891473D01*
X11967500Y-15881950D01*
X11977024Y-15872426D01*
X11986548Y-15853378D01*
X12072262Y-15967664D02*
X12072262Y-15834330D01*
X12072262Y-15853378D02*
X12081786Y-15843854D01*
X12100834Y-15834330D01*
X12129405Y-15834330D01*
X12148453Y-15843854D01*
X12157977Y-15862902D01*
X12157977Y-15967664D01*
X12157977Y-15862902D02*
X12167500Y-15843854D01*
X12186548Y-15834330D01*
X12215119Y-15834330D01*
X12234167Y-15843854D01*
X12243691Y-15862902D01*
X12243691Y-15967664D01*
X12338929Y-15967664D02*
X12338929Y-15834330D01*
X12338929Y-15853378D02*
X12348453Y-15843854D01*
X12367500Y-15834330D01*
X12396072Y-15834330D01*
X12415119Y-15843854D01*
X12424643Y-15862902D01*
X12424643Y-15967664D01*
X12424643Y-15862902D02*
X12434167Y-15843854D01*
X12453215Y-15834330D01*
X12481786Y-15834330D01*
X12500834Y-15843854D01*
X12510358Y-15862902D01*
X12510358Y-15967664D01*
X12900834Y-15758140D02*
X12729405Y-16015283D01*
X13157977Y-15767664D02*
X13177024Y-15767664D01*
X13196072Y-15777188D01*
X13205596Y-15786711D01*
X13215119Y-15805759D01*
X13224643Y-15843854D01*
X13224643Y-15891473D01*
X13215119Y-15929569D01*
X13205596Y-15948616D01*
X13196072Y-15958140D01*
X13177024Y-15967664D01*
X13157977Y-15967664D01*
X13138929Y-15958140D01*
X13129405Y-15948616D01*
X13119881Y-15929569D01*
X13110358Y-15891473D01*
X13110358Y-15843854D01*
X13119881Y-15805759D01*
X13129405Y-15786711D01*
X13138929Y-15777188D01*
X13157977Y-15767664D01*
X13310358Y-15948616D02*
X13319881Y-15958140D01*
X13310358Y-15967664D01*
X13300834Y-15958140D01*
X13310358Y-15948616D01*
X13310358Y-15967664D01*
X13510358Y-15967664D02*
X13396072Y-15967664D01*
X13453215Y-15967664D02*
X13453215Y-15767664D01*
X13434167Y-15796235D01*
X13415119Y-15815283D01*
X13396072Y-15824807D01*
X13681786Y-15767664D02*
X13643691Y-15767664D01*
X13624643Y-15777188D01*
X13615119Y-15786711D01*
X13596072Y-15815283D01*
X13586548Y-15853378D01*
X13586548Y-15929569D01*
X13596072Y-15948616D01*
X13605596Y-15958140D01*
X13624643Y-15967664D01*
X13662738Y-15967664D01*
X13681786Y-15958140D01*
X13691310Y-15948616D01*
X13700834Y-15929569D01*
X13700834Y-15881950D01*
X13691310Y-15862902D01*
X13681786Y-15853378D01*
X13662738Y-15843854D01*
X13624643Y-15843854D01*
X13605596Y-15853378D01*
X13596072Y-15862902D01*
X13586548Y-15881950D01*
X13891310Y-15967664D02*
X13777024Y-15967664D01*
X13834167Y-15967664D02*
X13834167Y-15767664D01*
X13815119Y-15796235D01*
X13796072Y-15815283D01*
X13777024Y-15824807D01*
X14015119Y-15767664D02*
X14034167Y-15767664D01*
X14053215Y-15777188D01*
X14062738Y-15786711D01*
X14072262Y-15805759D01*
X14081786Y-15843854D01*
X14081786Y-15891473D01*
X14072262Y-15929569D01*
X14062738Y-15948616D01*
X14053215Y-15958140D01*
X14034167Y-15967664D01*
X14015119Y-15967664D01*
X13996072Y-15958140D01*
X13986548Y-15948616D01*
X13977024Y-15929569D01*
X13967500Y-15891473D01*
X13967500Y-15843854D01*
X13977024Y-15805759D01*
X13986548Y-15786711D01*
X13996072Y-15777188D01*
X14015119Y-15767664D01*
X14157977Y-15767664D02*
X14157977Y-15805759D01*
X14234167Y-15767664D02*
X14234167Y-15805759D01*
X14529405Y-16043854D02*
X14519881Y-16034330D01*
X14500834Y-16005759D01*
X14491310Y-15986711D01*
X14481786Y-15958140D01*
X14472262Y-15910521D01*
X14472262Y-15872426D01*
X14481786Y-15824807D01*
X14491310Y-15796235D01*
X14500834Y-15777188D01*
X14519881Y-15748616D01*
X14529405Y-15739092D01*
X14615119Y-15967664D02*
X14653215Y-15967664D01*
X14672262Y-15958140D01*
X14681786Y-15948616D01*
X14700834Y-15920045D01*
X14710358Y-15881950D01*
X14710358Y-15805759D01*
X14700834Y-15786711D01*
X14691310Y-15777188D01*
X14672262Y-15767664D01*
X14634167Y-15767664D01*
X14615119Y-15777188D01*
X14605596Y-15786711D01*
X14596072Y-15805759D01*
X14596072Y-15853378D01*
X14605596Y-15872426D01*
X14615119Y-15881950D01*
X14634167Y-15891473D01*
X14672262Y-15891473D01*
X14691310Y-15881950D01*
X14700834Y-15872426D01*
X14710358Y-15853378D01*
X14948453Y-15967664D02*
X14948453Y-15767664D01*
X15034167Y-15967664D02*
X15034167Y-15862902D01*
X15024643Y-15843854D01*
X15005596Y-15834330D01*
X14977024Y-15834330D01*
X14957977Y-15843854D01*
X14948453Y-15853378D01*
X15157977Y-15967664D02*
X15138929Y-15958140D01*
X15129405Y-15948616D01*
X15119881Y-15929569D01*
X15119881Y-15872426D01*
X15129405Y-15853378D01*
X15138929Y-15843854D01*
X15157977Y-15834330D01*
X15186548Y-15834330D01*
X15205596Y-15843854D01*
X15215119Y-15853378D01*
X15224643Y-15872426D01*
X15224643Y-15929569D01*
X15215119Y-15948616D01*
X15205596Y-15958140D01*
X15186548Y-15967664D01*
X15157977Y-15967664D01*
X15338929Y-15967664D02*
X15319881Y-15958140D01*
X15310358Y-15939092D01*
X15310358Y-15767664D01*
X15491310Y-15958140D02*
X15472262Y-15967664D01*
X15434167Y-15967664D01*
X15415119Y-15958140D01*
X15405596Y-15939092D01*
X15405596Y-15862902D01*
X15415119Y-15843854D01*
X15434167Y-15834330D01*
X15472262Y-15834330D01*
X15491310Y-15843854D01*
X15500834Y-15862902D01*
X15500834Y-15881950D01*
X15405596Y-15900997D01*
X15577024Y-15958140D02*
X15596072Y-15967664D01*
X15634167Y-15967664D01*
X15653215Y-15958140D01*
X15662738Y-15939092D01*
X15662738Y-15929569D01*
X15653215Y-15910521D01*
X15634167Y-15900997D01*
X15605596Y-15900997D01*
X15586548Y-15891473D01*
X15577024Y-15872426D01*
X15577024Y-15862902D01*
X15586548Y-15843854D01*
X15605596Y-15834330D01*
X15634167Y-15834330D01*
X15653215Y-15843854D01*
X15729405Y-16043854D02*
X15738929Y-16034330D01*
X15757977Y-16005759D01*
X15767500Y-15986711D01*
X15777024Y-15958140D01*
X15786548Y-15910521D01*
X15786548Y-15872426D01*
X15777024Y-15824807D01*
X15767500Y-15796235D01*
X15757977Y-15777188D01*
X15738929Y-15748616D01*
X15729405Y-15739092D01*
X16091310Y-16043854D02*
X16081786Y-16034330D01*
X16062738Y-16005759D01*
X16053215Y-15986711D01*
X16043691Y-15958140D01*
X16034167Y-15910521D01*
X16034167Y-15872426D01*
X16043691Y-15824807D01*
X16053215Y-15796235D01*
X16062738Y-15777188D01*
X16081786Y-15748616D01*
X16091310Y-15739092D01*
X16167500Y-15834330D02*
X16167500Y-15967664D01*
X16167500Y-15853378D02*
X16177024Y-15843854D01*
X16196072Y-15834330D01*
X16224643Y-15834330D01*
X16243691Y-15843854D01*
X16253215Y-15862902D01*
X16253215Y-15967664D01*
X16377024Y-15967664D02*
X16357977Y-15958140D01*
X16348453Y-15948616D01*
X16338929Y-15929569D01*
X16338929Y-15872426D01*
X16348453Y-15853378D01*
X16357977Y-15843854D01*
X16377024Y-15834330D01*
X16405596Y-15834330D01*
X16424643Y-15843854D01*
X16434167Y-15853378D01*
X16443691Y-15872426D01*
X16443691Y-15929569D01*
X16434167Y-15948616D01*
X16424643Y-15958140D01*
X16405596Y-15967664D01*
X16377024Y-15967664D01*
X16500834Y-15834330D02*
X16577024Y-15834330D01*
X16529405Y-15767664D02*
X16529405Y-15939092D01*
X16538929Y-15958140D01*
X16557977Y-15967664D01*
X16577024Y-15967664D01*
X16796072Y-15834330D02*
X16796072Y-16034330D01*
X16796072Y-15843854D02*
X16815120Y-15834330D01*
X16853215Y-15834330D01*
X16872262Y-15843854D01*
X16881786Y-15853378D01*
X16891310Y-15872426D01*
X16891310Y-15929569D01*
X16881786Y-15948616D01*
X16872262Y-15958140D01*
X16853215Y-15967664D01*
X16815120Y-15967664D01*
X16796072Y-15958140D01*
X17005596Y-15967664D02*
X16986548Y-15958140D01*
X16977024Y-15939092D01*
X16977024Y-15767664D01*
X17167500Y-15967664D02*
X17167500Y-15862902D01*
X17157977Y-15843854D01*
X17138929Y-15834330D01*
X17100834Y-15834330D01*
X17081786Y-15843854D01*
X17167500Y-15958140D02*
X17148453Y-15967664D01*
X17100834Y-15967664D01*
X17081786Y-15958140D01*
X17072262Y-15939092D01*
X17072262Y-15920045D01*
X17081786Y-15900997D01*
X17100834Y-15891473D01*
X17148453Y-15891473D01*
X17167500Y-15881950D01*
X17234167Y-15834330D02*
X17310358Y-15834330D01*
X17262739Y-15767664D02*
X17262739Y-15939092D01*
X17272262Y-15958140D01*
X17291310Y-15967664D01*
X17310358Y-15967664D01*
X17453215Y-15958140D02*
X17434167Y-15967664D01*
X17396072Y-15967664D01*
X17377024Y-15958140D01*
X17367500Y-15939092D01*
X17367500Y-15862902D01*
X17377024Y-15843854D01*
X17396072Y-15834330D01*
X17434167Y-15834330D01*
X17453215Y-15843854D01*
X17462739Y-15862902D01*
X17462739Y-15881950D01*
X17367500Y-15900997D01*
X17634167Y-15967664D02*
X17634167Y-15767664D01*
X17634167Y-15958140D02*
X17615120Y-15967664D01*
X17577024Y-15967664D01*
X17557977Y-15958140D01*
X17548453Y-15948616D01*
X17538929Y-15929569D01*
X17538929Y-15872426D01*
X17548453Y-15853378D01*
X17557977Y-15843854D01*
X17577024Y-15834330D01*
X17615120Y-15834330D01*
X17634167Y-15843854D01*
X17710358Y-16043854D02*
X17719881Y-16034330D01*
X17738929Y-16005759D01*
X17748453Y-15986711D01*
X17757977Y-15958140D01*
X17767500Y-15910521D01*
X17767500Y-15872426D01*
X17757977Y-15824807D01*
X17748453Y-15796235D01*
X17738929Y-15777188D01*
X17719881Y-15748616D01*
X17710358Y-15739092D01*
M02*
