%FSLAX45Y45*%
G04 Gerber Fmt 4.5, Leading zero omitted, Abs format (unit mm)*
G04 Created by KiCad (PCBNEW (6.0.1)) date 2022-06-28 21:47:59*
%MOMM*%
%LPD*%
G01*
G04 APERTURE LIST*
%TA.AperFunction,Profile*%
%ADD10C,0.349999*%
%TD*%
%ADD11C,0.200000*%
%ADD12C,0.040000*%
%ADD13C,0.060000*%
%ADD14C,0.100000*%
%ADD15C,0.175260*%
G04 APERTURE END LIST*
D10*
X18710005Y-6027735D02*
X18685475Y-6016867D01*
X18660445Y-13992793D02*
X18685475Y-13983134D01*
X11289995Y-13972265D02*
X11314525Y-13983134D01*
X18917077Y-6197784D02*
X18900445Y-6176434D01*
X18780140Y-6067407D02*
X18757383Y-6053024D01*
X18475000Y-5975000D02*
X18475000Y-5975000D01*
X11027735Y-13710005D02*
X11039794Y-13733989D01*
X18863909Y-6136092D02*
X18844146Y-6117285D01*
X19025000Y-6525000D02*
X19024324Y-6497727D01*
X10985666Y-6417200D02*
X10981028Y-6443782D01*
X11007207Y-13660445D02*
X11016867Y-13685475D01*
X19014334Y-6417200D02*
X19008412Y-6390938D01*
X18900445Y-13823567D02*
X18917077Y-13802216D01*
X19022308Y-6470640D02*
X19018972Y-6443782D01*
X11497727Y-14024324D02*
X11525000Y-14025000D01*
X10991588Y-6390938D02*
X10985666Y-6417200D01*
X18992793Y-6339555D02*
X18983134Y-6314525D01*
X11027735Y-6289995D02*
X11016867Y-6314525D01*
X18823567Y-13900444D02*
X18844146Y-13882716D01*
X18863909Y-13863909D02*
X18863909Y-13863909D01*
X18844146Y-13882716D02*
X18863909Y-13863909D01*
X11176434Y-6099556D02*
X11155855Y-6117285D01*
X10975000Y-13475000D02*
X10975676Y-13502272D01*
X19024324Y-13502272D02*
X19025000Y-13475000D01*
X11365041Y-5998774D02*
X11339555Y-6007207D01*
X10998774Y-13634959D02*
X11007207Y-13660445D01*
X11390938Y-5991588D02*
X11365041Y-5998774D01*
X18582800Y-5985666D02*
X18556218Y-5981028D01*
X11266011Y-13960206D02*
X11289995Y-13972265D01*
X11525000Y-14025000D02*
X11525000Y-14025000D01*
X11219860Y-6067407D02*
X11197784Y-6082924D01*
X11197784Y-6082924D02*
X11176434Y-6099556D01*
X19025000Y-13475000D02*
X19025000Y-6525000D01*
X11417200Y-5985666D02*
X11390938Y-5991588D01*
X19024324Y-6497727D02*
X19022308Y-6470640D01*
X18529360Y-5977692D02*
X18502273Y-5975676D01*
X11136092Y-6136092D02*
X11136092Y-6136092D01*
X18802216Y-6082924D02*
X18780140Y-6067407D01*
X18960206Y-6266011D02*
X18946976Y-6242617D01*
X18972265Y-6289995D02*
X18960206Y-6266011D01*
X18946976Y-13757383D02*
X18960206Y-13733989D01*
X10985666Y-13582800D02*
X10991588Y-13609062D01*
X18634959Y-5998774D02*
X18609062Y-5991588D01*
X18634959Y-14001226D02*
X18660445Y-13992793D01*
X11053024Y-13757383D02*
X11067407Y-13780140D01*
X18932594Y-6219860D02*
X18917077Y-6197784D01*
X10981028Y-6443782D02*
X10977692Y-6470640D01*
X18556218Y-14018972D02*
X18582800Y-14014334D01*
X18917077Y-13802216D02*
X18932594Y-13780140D01*
X19025000Y-6525000D02*
X19025000Y-6525000D01*
X19018972Y-13556218D02*
X19022308Y-13529360D01*
X18609062Y-5991588D02*
X18582800Y-5985666D01*
X18780140Y-13932593D02*
X18802216Y-13917077D01*
X10998774Y-6365041D02*
X10991588Y-6390938D01*
X11136092Y-13863909D02*
X11136092Y-13863909D01*
X18502273Y-5975676D02*
X18475000Y-5975000D01*
X11067407Y-6219860D02*
X11053024Y-6242617D01*
X18802216Y-13917077D02*
X18823567Y-13900444D01*
X18983134Y-6314525D02*
X18972265Y-6289995D01*
X10975676Y-6497727D02*
X10975000Y-6525000D01*
X18660445Y-6007207D02*
X18634959Y-5998774D01*
X10991588Y-13609062D02*
X10998774Y-13634959D01*
X18863909Y-6136092D02*
X18863909Y-6136092D01*
X11099556Y-13823567D02*
X11117285Y-13844146D01*
X19014334Y-13582800D02*
X19018972Y-13556218D01*
X18685475Y-13983134D02*
X18710005Y-13972265D01*
X18733989Y-6039794D02*
X18710005Y-6027735D01*
X18733989Y-13960206D02*
X18757383Y-13946976D01*
X11016867Y-6314525D02*
X11007207Y-6339555D01*
X11016867Y-13685475D02*
X11027735Y-13710005D01*
X19022308Y-13529360D02*
X19024324Y-13502272D01*
X10977692Y-6470640D02*
X10975676Y-6497727D01*
X11390938Y-14008412D02*
X11417200Y-14014334D01*
X11155855Y-13882716D02*
X11176434Y-13900444D01*
X11242617Y-13946976D02*
X11266011Y-13960206D01*
X19001226Y-13634959D02*
X19008412Y-13609062D01*
X11497727Y-5975676D02*
X11470640Y-5977692D01*
X18992793Y-13660445D02*
X19001226Y-13634959D01*
X18882716Y-13844146D02*
X18900445Y-13823567D01*
X18475000Y-5975000D02*
X11525000Y-5975000D01*
X11525000Y-5975000D02*
X11497727Y-5975676D01*
X18900445Y-6176434D02*
X18882716Y-6155854D01*
X11339555Y-6007207D02*
X11314525Y-6016867D01*
X19008412Y-13609062D02*
X19014334Y-13582800D01*
X11314525Y-13983134D02*
X11339555Y-13992793D01*
X10975676Y-13502272D02*
X10977692Y-13529360D01*
X11289995Y-6027735D02*
X11266011Y-6039794D01*
X19008412Y-6390938D02*
X19001226Y-6365041D01*
X11039794Y-6266011D02*
X11027735Y-6289995D01*
X11155855Y-6117285D02*
X11136092Y-6136092D01*
X11197784Y-13917077D02*
X11219860Y-13932593D01*
X19001226Y-6365041D02*
X18992793Y-6339555D01*
X18932594Y-13780140D02*
X18946976Y-13757383D01*
X10975000Y-6525000D02*
X10975000Y-6525000D01*
X10975000Y-6525000D02*
X10975000Y-13475000D01*
X11314525Y-6016867D02*
X11289995Y-6027735D01*
X18502273Y-14024324D02*
X18529360Y-14022308D01*
X11176434Y-13900444D02*
X11197784Y-13917077D01*
X18972265Y-13710005D02*
X18983134Y-13685475D01*
X11365041Y-14001226D02*
X11390938Y-14008412D01*
X18475000Y-14025000D02*
X18475000Y-14025000D01*
X11443782Y-5981028D02*
X11417200Y-5985666D01*
X11099556Y-6176434D02*
X11082924Y-6197784D01*
X18582800Y-14014334D02*
X18609062Y-14008412D01*
X18710005Y-13972265D02*
X18733989Y-13960206D01*
X18844146Y-6117285D02*
X18823567Y-6099556D01*
X18556218Y-5981028D02*
X18529360Y-5977692D01*
X11136092Y-13863909D02*
X11155855Y-13882716D01*
X11242617Y-6053024D02*
X11219860Y-6067407D01*
X18946976Y-6242617D02*
X18932594Y-6219860D01*
X11266011Y-6039794D02*
X11242617Y-6053024D01*
X11470640Y-14022308D02*
X11497727Y-14024324D01*
X18882716Y-6155854D02*
X18863909Y-6136092D01*
X11339555Y-13992793D02*
X11365041Y-14001226D01*
X10977692Y-13529360D02*
X10981028Y-13556218D01*
X18757383Y-6053024D02*
X18733989Y-6039794D01*
X11082924Y-6197784D02*
X11067407Y-6219860D01*
X18685475Y-6016867D02*
X18660445Y-6007207D01*
X18475000Y-14025000D02*
X18502273Y-14024324D01*
X18983134Y-13685475D02*
X18992793Y-13660445D01*
X18960206Y-13733989D02*
X18972265Y-13710005D01*
X11117285Y-6155854D02*
X11099556Y-6176434D01*
X11219860Y-13932593D02*
X11242617Y-13946976D01*
X11082924Y-13802216D02*
X11099556Y-13823567D01*
X11039794Y-13733989D02*
X11053024Y-13757383D01*
X18757383Y-13946976D02*
X18780140Y-13932593D01*
X10981028Y-13556218D02*
X10985666Y-13582800D01*
X11136092Y-6136092D02*
X11117285Y-6155854D01*
X18529360Y-14022308D02*
X18556218Y-14018972D01*
X11470640Y-5977692D02*
X11443782Y-5981028D01*
X11053024Y-6242617D02*
X11039794Y-6266011D01*
X18823567Y-6099556D02*
X18802216Y-6082924D01*
X11443782Y-14018972D02*
X11470640Y-14022308D01*
X11525000Y-5975000D02*
X11525000Y-5975000D01*
X11067407Y-13780140D02*
X11082924Y-13802216D01*
X18863909Y-13863909D02*
X18882716Y-13844146D01*
X10975000Y-13475000D02*
X10975000Y-13475000D01*
X11417200Y-14014334D02*
X11443782Y-14018972D01*
X11007207Y-6339555D02*
X10998774Y-6365041D01*
X19018972Y-6443782D02*
X19014334Y-6417200D01*
X18609062Y-14008412D02*
X18634959Y-14001226D01*
X11525000Y-14025000D02*
X18475000Y-14025000D01*
X11117285Y-13844146D02*
X11136092Y-13863909D01*
D11*
D12*
X11105200Y-9987600D02*
X11145200Y-10027600D01*
X11145200Y-9987600D02*
X11105200Y-10027600D01*
X11206800Y-10673400D02*
X11246800Y-10713400D01*
X11246800Y-10673400D02*
X11206800Y-10713400D01*
X11283000Y-10597200D02*
X11323000Y-10637200D01*
X11323000Y-10597200D02*
X11283000Y-10637200D01*
X11384600Y-10902000D02*
X11424600Y-10942000D01*
X11424600Y-10902000D02*
X11384600Y-10942000D01*
X11460800Y-9809800D02*
X11500800Y-9849800D01*
X11500800Y-9809800D02*
X11460800Y-9849800D01*
X11460800Y-9909750D02*
X11500800Y-9949750D01*
X11500800Y-9909750D02*
X11460800Y-9949750D01*
X11460800Y-10978200D02*
X11500800Y-11018200D01*
X11500800Y-10978200D02*
X11460800Y-11018200D01*
X11544500Y-11036500D02*
X11584500Y-11076500D01*
X11584500Y-11036500D02*
X11544500Y-11076500D01*
X11613200Y-8717600D02*
X11653200Y-8757600D01*
X11653200Y-8717600D02*
X11613200Y-8757600D01*
X11638600Y-10140000D02*
X11678600Y-10180000D01*
X11678600Y-10140000D02*
X11638600Y-10180000D01*
X11816400Y-6177600D02*
X11856400Y-6217600D01*
X11856400Y-6177600D02*
X11816400Y-6217600D01*
X11841800Y-8717600D02*
X11881800Y-8757600D01*
X11881800Y-8717600D02*
X11841800Y-8757600D01*
X11943400Y-9352600D02*
X11983400Y-9392600D01*
X11983400Y-9352600D02*
X11943400Y-9392600D01*
X11943400Y-9901750D02*
X11983400Y-9941750D01*
X11983400Y-9901750D02*
X11943400Y-9941750D01*
X11943400Y-10636605D02*
X11983400Y-10676605D01*
X11983400Y-10636605D02*
X11943400Y-10676605D01*
X11968800Y-6177600D02*
X12008800Y-6217600D01*
X12008800Y-6177600D02*
X11968800Y-6217600D01*
X12022996Y-10709055D02*
X12062996Y-10749055D01*
X12062996Y-10709055D02*
X12022996Y-10749055D01*
X12756200Y-11036500D02*
X12796200Y-11076500D01*
X12796200Y-11036500D02*
X12756200Y-11076500D01*
X13442000Y-7041200D02*
X13482000Y-7081200D01*
X13482000Y-7041200D02*
X13442000Y-7081200D01*
X13721400Y-6304600D02*
X13761400Y-6344600D01*
X13761400Y-6304600D02*
X13721400Y-6344600D01*
X14204000Y-6304600D02*
X14244000Y-6344600D01*
X14244000Y-6304600D02*
X14204000Y-6344600D01*
X14635800Y-11108950D02*
X14675800Y-11148950D01*
X14675800Y-11108950D02*
X14635800Y-11148950D01*
X14737400Y-6761800D02*
X14777400Y-6801800D01*
X14777400Y-6761800D02*
X14737400Y-6801800D01*
X15227450Y-6761800D02*
X15267450Y-6801800D01*
X15267450Y-6761800D02*
X15227450Y-6801800D01*
X16515400Y-11181400D02*
X16555400Y-11221400D01*
X16555400Y-11181400D02*
X16515400Y-11221400D01*
D13*
X14598000Y-6105000D02*
G75*
G03*
X14598000Y-6105000I-30000J0D01*
G01*
D11*
X14548000Y-6075000D02*
X14548000Y-6135000D01*
X14588000Y-6075000D02*
X14588000Y-6135000D01*
X14548000Y-6135000D02*
G75*
G03*
X14588000Y-6135000I20000J0D01*
G01*
X14588000Y-6075000D02*
G75*
G03*
X14548000Y-6075000I-20000J0D01*
G01*
D13*
X14598000Y-6523000D02*
G75*
G03*
X14598000Y-6523000I-30000J0D01*
G01*
D11*
X14548000Y-6468000D02*
X14548000Y-6578000D01*
X14588000Y-6468000D02*
X14588000Y-6578000D01*
X14548000Y-6578000D02*
G75*
G03*
X14588000Y-6578000I20000J0D01*
G01*
X14588000Y-6468000D02*
G75*
G03*
X14548000Y-6468000I-20000J0D01*
G01*
D13*
X15462000Y-6105000D02*
G75*
G03*
X15462000Y-6105000I-30000J0D01*
G01*
D11*
X15412000Y-6075000D02*
X15412000Y-6135000D01*
X15452000Y-6075000D02*
X15452000Y-6135000D01*
X15412000Y-6135000D02*
G75*
G03*
X15452000Y-6135000I20000J0D01*
G01*
X15452000Y-6075000D02*
G75*
G03*
X15412000Y-6075000I-20000J0D01*
G01*
D13*
X15462000Y-6523000D02*
G75*
G03*
X15462000Y-6523000I-30000J0D01*
G01*
D11*
X15412000Y-6468000D02*
X15412000Y-6578000D01*
X15452000Y-6468000D02*
X15452000Y-6578000D01*
X15412000Y-6578000D02*
G75*
G03*
X15452000Y-6578000I20000J0D01*
G01*
X15452000Y-6468000D02*
G75*
G03*
X15412000Y-6468000I-20000J0D01*
G01*
D14*
X12790000Y-7240000D02*
X12790000Y-7340000D01*
X12740000Y-7290000D02*
X12840000Y-7290000D01*
X12790000Y-8690000D02*
X12790000Y-8790000D01*
X12740000Y-8740000D02*
X12840000Y-8740000D01*
X13040000Y-7240000D02*
X13040000Y-7340000D01*
X12990000Y-7290000D02*
X13090000Y-7290000D01*
X13290000Y-7240000D02*
X13290000Y-7340000D01*
X13240000Y-7290000D02*
X13340000Y-7290000D01*
X13290000Y-8690000D02*
X13290000Y-8790000D01*
X13240000Y-8740000D02*
X13340000Y-8740000D01*
X14750000Y-7240000D02*
X14750000Y-7340000D01*
X14700000Y-7290000D02*
X14800000Y-7290000D01*
X14750000Y-8690000D02*
X14750000Y-8790000D01*
X14700000Y-8740000D02*
X14800000Y-8740000D01*
X15000000Y-7240000D02*
X15000000Y-7340000D01*
X14950000Y-7290000D02*
X15050000Y-7290000D01*
X15250000Y-7240000D02*
X15250000Y-7340000D01*
X15200000Y-7290000D02*
X15300000Y-7290000D01*
X15250000Y-8690000D02*
X15250000Y-8790000D01*
X15200000Y-8740000D02*
X15300000Y-8740000D01*
X16710000Y-7240000D02*
X16710000Y-7340000D01*
X16660000Y-7290000D02*
X16760000Y-7290000D01*
X16710000Y-8690000D02*
X16710000Y-8790000D01*
X16660000Y-8740000D02*
X16760000Y-8740000D01*
X16960000Y-7240000D02*
X16960000Y-7340000D01*
X16910000Y-7290000D02*
X17010000Y-7290000D01*
X17210000Y-7240000D02*
X17210000Y-7340000D01*
X17160000Y-7290000D02*
X17260000Y-7290000D01*
X17210000Y-8690000D02*
X17210000Y-8790000D01*
X17160000Y-8740000D02*
X17260000Y-8740000D01*
D15*
X12847964Y-8609964D02*
X12847964Y-8486036D01*
X12724036Y-8486036D01*
X12724036Y-8609964D01*
X12847964Y-8609964D01*
X12847964Y-10569964D02*
X12847964Y-10446036D01*
X12724036Y-10446036D01*
X12724036Y-10569964D01*
X12847964Y-10569964D01*
X12847964Y-12529964D02*
X12847964Y-12406036D01*
X12724036Y-12406036D01*
X12724036Y-12529964D01*
X12847964Y-12529964D01*
X13482964Y-8355964D02*
X13482964Y-8232036D01*
X13359036Y-8232036D01*
X13359036Y-8355964D01*
X13482964Y-8355964D01*
X13482964Y-10315964D02*
X13482964Y-10192036D01*
X13359036Y-10192036D01*
X13359036Y-10315964D01*
X13482964Y-10315964D01*
X13482964Y-12275964D02*
X13482964Y-12152036D01*
X13359036Y-12152036D01*
X13359036Y-12275964D01*
X13482964Y-12275964D01*
X14807964Y-8609964D02*
X14807964Y-8486036D01*
X14684036Y-8486036D01*
X14684036Y-8609964D01*
X14807964Y-8609964D01*
X14807964Y-10569964D02*
X14807964Y-10446036D01*
X14684036Y-10446036D01*
X14684036Y-10569964D01*
X14807964Y-10569964D01*
X14807964Y-12529964D02*
X14807964Y-12406036D01*
X14684036Y-12406036D01*
X14684036Y-12529964D01*
X14807964Y-12529964D01*
X15442964Y-8355964D02*
X15442964Y-8232036D01*
X15319036Y-8232036D01*
X15319036Y-8355964D01*
X15442964Y-8355964D01*
X15442964Y-10315964D02*
X15442964Y-10192036D01*
X15319036Y-10192036D01*
X15319036Y-10315964D01*
X15442964Y-10315964D01*
X15442964Y-12275964D02*
X15442964Y-12152036D01*
X15319036Y-12152036D01*
X15319036Y-12275964D01*
X15442964Y-12275964D01*
X16767964Y-8609964D02*
X16767964Y-8486036D01*
X16644036Y-8486036D01*
X16644036Y-8609964D01*
X16767964Y-8609964D01*
X16767964Y-10569964D02*
X16767964Y-10446036D01*
X16644036Y-10446036D01*
X16644036Y-10569964D01*
X16767964Y-10569964D01*
X16767964Y-12529964D02*
X16767964Y-12406036D01*
X16644036Y-12406036D01*
X16644036Y-12529964D01*
X16767964Y-12529964D01*
X17402964Y-8355964D02*
X17402964Y-8232036D01*
X17279036Y-8232036D01*
X17279036Y-8355964D01*
X17402964Y-8355964D01*
X17402964Y-10315964D02*
X17402964Y-10192036D01*
X17279036Y-10192036D01*
X17279036Y-10315964D01*
X17402964Y-10315964D01*
X17402964Y-12275964D02*
X17402964Y-12152036D01*
X17279036Y-12152036D01*
X17279036Y-12275964D01*
X17402964Y-12275964D01*
D11*
X11215119Y-14352976D02*
X11215119Y-14152976D01*
X11262738Y-14152976D01*
X11291310Y-14162500D01*
X11310358Y-14181547D01*
X11319881Y-14200595D01*
X11329405Y-14238690D01*
X11329405Y-14267261D01*
X11319881Y-14305357D01*
X11310358Y-14324404D01*
X11291310Y-14343452D01*
X11262738Y-14352976D01*
X11215119Y-14352976D01*
X11415119Y-14352976D02*
X11415119Y-14219642D01*
X11415119Y-14257738D02*
X11424643Y-14238690D01*
X11434167Y-14229166D01*
X11453215Y-14219642D01*
X11472262Y-14219642D01*
X11538929Y-14352976D02*
X11538929Y-14219642D01*
X11538929Y-14152976D02*
X11529405Y-14162500D01*
X11538929Y-14172023D01*
X11548453Y-14162500D01*
X11538929Y-14152976D01*
X11538929Y-14172023D01*
X11662738Y-14352976D02*
X11643691Y-14343452D01*
X11634167Y-14324404D01*
X11634167Y-14152976D01*
X11767500Y-14352976D02*
X11748453Y-14343452D01*
X11738929Y-14324404D01*
X11738929Y-14152976D01*
X11996072Y-14352976D02*
X11996072Y-14152976D01*
X12062738Y-14295833D01*
X12129405Y-14152976D01*
X12129405Y-14352976D01*
X12310358Y-14352976D02*
X12310358Y-14248214D01*
X12300834Y-14229166D01*
X12281786Y-14219642D01*
X12243691Y-14219642D01*
X12224643Y-14229166D01*
X12310358Y-14343452D02*
X12291310Y-14352976D01*
X12243691Y-14352976D01*
X12224643Y-14343452D01*
X12215119Y-14324404D01*
X12215119Y-14305357D01*
X12224643Y-14286309D01*
X12243691Y-14276785D01*
X12291310Y-14276785D01*
X12310358Y-14267261D01*
X12405596Y-14219642D02*
X12405596Y-14419642D01*
X12405596Y-14229166D02*
X12424643Y-14219642D01*
X12462738Y-14219642D01*
X12481786Y-14229166D01*
X12491310Y-14238690D01*
X12500834Y-14257738D01*
X12500834Y-14314880D01*
X12491310Y-14333928D01*
X12481786Y-14343452D01*
X12462738Y-14352976D01*
X12424643Y-14352976D01*
X12405596Y-14343452D01*
X12586548Y-14333928D02*
X12596072Y-14343452D01*
X12586548Y-14352976D01*
X12577024Y-14343452D01*
X12586548Y-14333928D01*
X12586548Y-14352976D01*
X12586548Y-14229166D02*
X12596072Y-14238690D01*
X12586548Y-14248214D01*
X12577024Y-14238690D01*
X12586548Y-14229166D01*
X12586548Y-14248214D01*
D12*
X10917501Y-14662500D02*
X10957501Y-14702500D01*
X10957501Y-14662500D02*
X10917501Y-14702500D01*
D11*
X11253215Y-14572976D02*
X11272262Y-14572976D01*
X11291310Y-14582500D01*
X11300834Y-14592023D01*
X11310358Y-14611071D01*
X11319881Y-14649166D01*
X11319881Y-14696785D01*
X11310358Y-14734880D01*
X11300834Y-14753928D01*
X11291310Y-14763452D01*
X11272262Y-14772976D01*
X11253215Y-14772976D01*
X11234167Y-14763452D01*
X11224643Y-14753928D01*
X11215119Y-14734880D01*
X11205596Y-14696785D01*
X11205596Y-14649166D01*
X11215119Y-14611071D01*
X11224643Y-14592023D01*
X11234167Y-14582500D01*
X11253215Y-14572976D01*
X11405596Y-14753928D02*
X11415119Y-14763452D01*
X11405596Y-14772976D01*
X11396072Y-14763452D01*
X11405596Y-14753928D01*
X11405596Y-14772976D01*
X11586548Y-14639642D02*
X11586548Y-14772976D01*
X11538929Y-14563452D02*
X11491310Y-14706309D01*
X11615119Y-14706309D01*
X11729405Y-14572976D02*
X11748453Y-14572976D01*
X11767500Y-14582500D01*
X11777024Y-14592023D01*
X11786548Y-14611071D01*
X11796072Y-14649166D01*
X11796072Y-14696785D01*
X11786548Y-14734880D01*
X11777024Y-14753928D01*
X11767500Y-14763452D01*
X11748453Y-14772976D01*
X11729405Y-14772976D01*
X11710358Y-14763452D01*
X11700834Y-14753928D01*
X11691310Y-14734880D01*
X11681786Y-14696785D01*
X11681786Y-14649166D01*
X11691310Y-14611071D01*
X11700834Y-14592023D01*
X11710358Y-14582500D01*
X11729405Y-14572976D01*
X11919881Y-14572976D02*
X11938929Y-14572976D01*
X11957977Y-14582500D01*
X11967500Y-14592023D01*
X11977024Y-14611071D01*
X11986548Y-14649166D01*
X11986548Y-14696785D01*
X11977024Y-14734880D01*
X11967500Y-14753928D01*
X11957977Y-14763452D01*
X11938929Y-14772976D01*
X11919881Y-14772976D01*
X11900834Y-14763452D01*
X11891310Y-14753928D01*
X11881786Y-14734880D01*
X11872262Y-14696785D01*
X11872262Y-14649166D01*
X11881786Y-14611071D01*
X11891310Y-14592023D01*
X11900834Y-14582500D01*
X11919881Y-14572976D01*
X12072262Y-14772976D02*
X12072262Y-14639642D01*
X12072262Y-14658690D02*
X12081786Y-14649166D01*
X12100834Y-14639642D01*
X12129405Y-14639642D01*
X12148453Y-14649166D01*
X12157977Y-14668214D01*
X12157977Y-14772976D01*
X12157977Y-14668214D02*
X12167500Y-14649166D01*
X12186548Y-14639642D01*
X12215119Y-14639642D01*
X12234167Y-14649166D01*
X12243691Y-14668214D01*
X12243691Y-14772976D01*
X12338929Y-14772976D02*
X12338929Y-14639642D01*
X12338929Y-14658690D02*
X12348453Y-14649166D01*
X12367500Y-14639642D01*
X12396072Y-14639642D01*
X12415119Y-14649166D01*
X12424643Y-14668214D01*
X12424643Y-14772976D01*
X12424643Y-14668214D02*
X12434167Y-14649166D01*
X12453215Y-14639642D01*
X12481786Y-14639642D01*
X12500834Y-14649166D01*
X12510358Y-14668214D01*
X12510358Y-14772976D01*
X12900834Y-14563452D02*
X12729405Y-14820595D01*
X13157977Y-14572976D02*
X13177024Y-14572976D01*
X13196072Y-14582500D01*
X13205596Y-14592023D01*
X13215119Y-14611071D01*
X13224643Y-14649166D01*
X13224643Y-14696785D01*
X13215119Y-14734880D01*
X13205596Y-14753928D01*
X13196072Y-14763452D01*
X13177024Y-14772976D01*
X13157977Y-14772976D01*
X13138929Y-14763452D01*
X13129405Y-14753928D01*
X13119881Y-14734880D01*
X13110358Y-14696785D01*
X13110358Y-14649166D01*
X13119881Y-14611071D01*
X13129405Y-14592023D01*
X13138929Y-14582500D01*
X13157977Y-14572976D01*
X13310358Y-14753928D02*
X13319881Y-14763452D01*
X13310358Y-14772976D01*
X13300834Y-14763452D01*
X13310358Y-14753928D01*
X13310358Y-14772976D01*
X13443691Y-14572976D02*
X13462738Y-14572976D01*
X13481786Y-14582500D01*
X13491310Y-14592023D01*
X13500834Y-14611071D01*
X13510358Y-14649166D01*
X13510358Y-14696785D01*
X13500834Y-14734880D01*
X13491310Y-14753928D01*
X13481786Y-14763452D01*
X13462738Y-14772976D01*
X13443691Y-14772976D01*
X13424643Y-14763452D01*
X13415119Y-14753928D01*
X13405596Y-14734880D01*
X13396072Y-14696785D01*
X13396072Y-14649166D01*
X13405596Y-14611071D01*
X13415119Y-14592023D01*
X13424643Y-14582500D01*
X13443691Y-14572976D01*
X13700834Y-14772976D02*
X13586548Y-14772976D01*
X13643691Y-14772976D02*
X13643691Y-14572976D01*
X13624643Y-14601547D01*
X13605596Y-14620595D01*
X13586548Y-14630119D01*
X13881786Y-14572976D02*
X13786548Y-14572976D01*
X13777024Y-14668214D01*
X13786548Y-14658690D01*
X13805596Y-14649166D01*
X13853215Y-14649166D01*
X13872262Y-14658690D01*
X13881786Y-14668214D01*
X13891310Y-14687261D01*
X13891310Y-14734880D01*
X13881786Y-14753928D01*
X13872262Y-14763452D01*
X13853215Y-14772976D01*
X13805596Y-14772976D01*
X13786548Y-14763452D01*
X13777024Y-14753928D01*
X13957977Y-14572976D02*
X14091310Y-14572976D01*
X14005596Y-14772976D01*
X14157977Y-14572976D02*
X14157977Y-14611071D01*
X14234167Y-14572976D02*
X14234167Y-14611071D01*
X14529405Y-14849166D02*
X14519881Y-14839642D01*
X14500834Y-14811071D01*
X14491310Y-14792023D01*
X14481786Y-14763452D01*
X14472262Y-14715833D01*
X14472262Y-14677738D01*
X14481786Y-14630119D01*
X14491310Y-14601547D01*
X14500834Y-14582500D01*
X14519881Y-14553928D01*
X14529405Y-14544404D01*
X14596072Y-14592023D02*
X14605596Y-14582500D01*
X14624643Y-14572976D01*
X14672262Y-14572976D01*
X14691310Y-14582500D01*
X14700834Y-14592023D01*
X14710358Y-14611071D01*
X14710358Y-14630119D01*
X14700834Y-14658690D01*
X14586548Y-14772976D01*
X14710358Y-14772976D01*
X14891310Y-14572976D02*
X14796072Y-14572976D01*
X14786548Y-14668214D01*
X14796072Y-14658690D01*
X14815119Y-14649166D01*
X14862738Y-14649166D01*
X14881786Y-14658690D01*
X14891310Y-14668214D01*
X14900834Y-14687261D01*
X14900834Y-14734880D01*
X14891310Y-14753928D01*
X14881786Y-14763452D01*
X14862738Y-14772976D01*
X14815119Y-14772976D01*
X14796072Y-14763452D01*
X14786548Y-14753928D01*
X15138929Y-14772976D02*
X15138929Y-14572976D01*
X15224643Y-14772976D02*
X15224643Y-14668214D01*
X15215119Y-14649166D01*
X15196072Y-14639642D01*
X15167500Y-14639642D01*
X15148453Y-14649166D01*
X15138929Y-14658690D01*
X15348453Y-14772976D02*
X15329405Y-14763452D01*
X15319881Y-14753928D01*
X15310358Y-14734880D01*
X15310358Y-14677738D01*
X15319881Y-14658690D01*
X15329405Y-14649166D01*
X15348453Y-14639642D01*
X15377024Y-14639642D01*
X15396072Y-14649166D01*
X15405596Y-14658690D01*
X15415119Y-14677738D01*
X15415119Y-14734880D01*
X15405596Y-14753928D01*
X15396072Y-14763452D01*
X15377024Y-14772976D01*
X15348453Y-14772976D01*
X15529405Y-14772976D02*
X15510358Y-14763452D01*
X15500834Y-14744404D01*
X15500834Y-14572976D01*
X15681786Y-14763452D02*
X15662738Y-14772976D01*
X15624643Y-14772976D01*
X15605596Y-14763452D01*
X15596072Y-14744404D01*
X15596072Y-14668214D01*
X15605596Y-14649166D01*
X15624643Y-14639642D01*
X15662738Y-14639642D01*
X15681786Y-14649166D01*
X15691310Y-14668214D01*
X15691310Y-14687261D01*
X15596072Y-14706309D01*
X15767500Y-14763452D02*
X15786548Y-14772976D01*
X15824643Y-14772976D01*
X15843691Y-14763452D01*
X15853215Y-14744404D01*
X15853215Y-14734880D01*
X15843691Y-14715833D01*
X15824643Y-14706309D01*
X15796072Y-14706309D01*
X15777024Y-14696785D01*
X15767500Y-14677738D01*
X15767500Y-14668214D01*
X15777024Y-14649166D01*
X15796072Y-14639642D01*
X15824643Y-14639642D01*
X15843691Y-14649166D01*
X15919881Y-14849166D02*
X15929405Y-14839642D01*
X15948453Y-14811071D01*
X15957977Y-14792023D01*
X15967500Y-14763452D01*
X15977024Y-14715833D01*
X15977024Y-14677738D01*
X15967500Y-14630119D01*
X15957977Y-14601547D01*
X15948453Y-14582500D01*
X15929405Y-14553928D01*
X15919881Y-14544404D01*
D13*
X10957501Y-14946500D02*
G75*
G03*
X10957501Y-14946500I-30000J0D01*
G01*
D11*
X11253215Y-14836976D02*
X11272262Y-14836976D01*
X11291310Y-14846500D01*
X11300834Y-14856023D01*
X11310358Y-14875071D01*
X11319881Y-14913166D01*
X11319881Y-14960785D01*
X11310358Y-14998880D01*
X11300834Y-15017928D01*
X11291310Y-15027452D01*
X11272262Y-15036976D01*
X11253215Y-15036976D01*
X11234167Y-15027452D01*
X11224643Y-15017928D01*
X11215119Y-14998880D01*
X11205596Y-14960785D01*
X11205596Y-14913166D01*
X11215119Y-14875071D01*
X11224643Y-14856023D01*
X11234167Y-14846500D01*
X11253215Y-14836976D01*
X11405596Y-15017928D02*
X11415119Y-15027452D01*
X11405596Y-15036976D01*
X11396072Y-15027452D01*
X11405596Y-15017928D01*
X11405596Y-15036976D01*
X11586548Y-14836976D02*
X11548453Y-14836976D01*
X11529405Y-14846500D01*
X11519881Y-14856023D01*
X11500834Y-14884595D01*
X11491310Y-14922690D01*
X11491310Y-14998880D01*
X11500834Y-15017928D01*
X11510358Y-15027452D01*
X11529405Y-15036976D01*
X11567500Y-15036976D01*
X11586548Y-15027452D01*
X11596072Y-15017928D01*
X11605596Y-14998880D01*
X11605596Y-14951261D01*
X11596072Y-14932214D01*
X11586548Y-14922690D01*
X11567500Y-14913166D01*
X11529405Y-14913166D01*
X11510358Y-14922690D01*
X11500834Y-14932214D01*
X11491310Y-14951261D01*
X11729405Y-14836976D02*
X11748453Y-14836976D01*
X11767500Y-14846500D01*
X11777024Y-14856023D01*
X11786548Y-14875071D01*
X11796072Y-14913166D01*
X11796072Y-14960785D01*
X11786548Y-14998880D01*
X11777024Y-15017928D01*
X11767500Y-15027452D01*
X11748453Y-15036976D01*
X11729405Y-15036976D01*
X11710358Y-15027452D01*
X11700834Y-15017928D01*
X11691310Y-14998880D01*
X11681786Y-14960785D01*
X11681786Y-14913166D01*
X11691310Y-14875071D01*
X11700834Y-14856023D01*
X11710358Y-14846500D01*
X11729405Y-14836976D01*
X11919881Y-14836976D02*
X11938929Y-14836976D01*
X11957977Y-14846500D01*
X11967500Y-14856023D01*
X11977024Y-14875071D01*
X11986548Y-14913166D01*
X11986548Y-14960785D01*
X11977024Y-14998880D01*
X11967500Y-15017928D01*
X11957977Y-15027452D01*
X11938929Y-15036976D01*
X11919881Y-15036976D01*
X11900834Y-15027452D01*
X11891310Y-15017928D01*
X11881786Y-14998880D01*
X11872262Y-14960785D01*
X11872262Y-14913166D01*
X11881786Y-14875071D01*
X11891310Y-14856023D01*
X11900834Y-14846500D01*
X11919881Y-14836976D01*
X12072262Y-15036976D02*
X12072262Y-14903642D01*
X12072262Y-14922690D02*
X12081786Y-14913166D01*
X12100834Y-14903642D01*
X12129405Y-14903642D01*
X12148453Y-14913166D01*
X12157977Y-14932214D01*
X12157977Y-15036976D01*
X12157977Y-14932214D02*
X12167500Y-14913166D01*
X12186548Y-14903642D01*
X12215119Y-14903642D01*
X12234167Y-14913166D01*
X12243691Y-14932214D01*
X12243691Y-15036976D01*
X12338929Y-15036976D02*
X12338929Y-14903642D01*
X12338929Y-14922690D02*
X12348453Y-14913166D01*
X12367500Y-14903642D01*
X12396072Y-14903642D01*
X12415119Y-14913166D01*
X12424643Y-14932214D01*
X12424643Y-15036976D01*
X12424643Y-14932214D02*
X12434167Y-14913166D01*
X12453215Y-14903642D01*
X12481786Y-14903642D01*
X12500834Y-14913166D01*
X12510358Y-14932214D01*
X12510358Y-15036976D01*
X12900834Y-14827452D02*
X12729405Y-15084595D01*
X13157977Y-14836976D02*
X13177024Y-14836976D01*
X13196072Y-14846500D01*
X13205596Y-14856023D01*
X13215119Y-14875071D01*
X13224643Y-14913166D01*
X13224643Y-14960785D01*
X13215119Y-14998880D01*
X13205596Y-15017928D01*
X13196072Y-15027452D01*
X13177024Y-15036976D01*
X13157977Y-15036976D01*
X13138929Y-15027452D01*
X13129405Y-15017928D01*
X13119881Y-14998880D01*
X13110358Y-14960785D01*
X13110358Y-14913166D01*
X13119881Y-14875071D01*
X13129405Y-14856023D01*
X13138929Y-14846500D01*
X13157977Y-14836976D01*
X13310358Y-15017928D02*
X13319881Y-15027452D01*
X13310358Y-15036976D01*
X13300834Y-15027452D01*
X13310358Y-15017928D01*
X13310358Y-15036976D01*
X13443691Y-14836976D02*
X13462738Y-14836976D01*
X13481786Y-14846500D01*
X13491310Y-14856023D01*
X13500834Y-14875071D01*
X13510358Y-14913166D01*
X13510358Y-14960785D01*
X13500834Y-14998880D01*
X13491310Y-15017928D01*
X13481786Y-15027452D01*
X13462738Y-15036976D01*
X13443691Y-15036976D01*
X13424643Y-15027452D01*
X13415119Y-15017928D01*
X13405596Y-14998880D01*
X13396072Y-14960785D01*
X13396072Y-14913166D01*
X13405596Y-14875071D01*
X13415119Y-14856023D01*
X13424643Y-14846500D01*
X13443691Y-14836976D01*
X13586548Y-14856023D02*
X13596072Y-14846500D01*
X13615119Y-14836976D01*
X13662738Y-14836976D01*
X13681786Y-14846500D01*
X13691310Y-14856023D01*
X13700834Y-14875071D01*
X13700834Y-14894119D01*
X13691310Y-14922690D01*
X13577024Y-15036976D01*
X13700834Y-15036976D01*
X13767500Y-14836976D02*
X13891310Y-14836976D01*
X13824643Y-14913166D01*
X13853215Y-14913166D01*
X13872262Y-14922690D01*
X13881786Y-14932214D01*
X13891310Y-14951261D01*
X13891310Y-14998880D01*
X13881786Y-15017928D01*
X13872262Y-15027452D01*
X13853215Y-15036976D01*
X13796072Y-15036976D01*
X13777024Y-15027452D01*
X13767500Y-15017928D01*
X14062738Y-14836976D02*
X14024643Y-14836976D01*
X14005596Y-14846500D01*
X13996072Y-14856023D01*
X13977024Y-14884595D01*
X13967500Y-14922690D01*
X13967500Y-14998880D01*
X13977024Y-15017928D01*
X13986548Y-15027452D01*
X14005596Y-15036976D01*
X14043691Y-15036976D01*
X14062738Y-15027452D01*
X14072262Y-15017928D01*
X14081786Y-14998880D01*
X14081786Y-14951261D01*
X14072262Y-14932214D01*
X14062738Y-14922690D01*
X14043691Y-14913166D01*
X14005596Y-14913166D01*
X13986548Y-14922690D01*
X13977024Y-14932214D01*
X13967500Y-14951261D01*
X14157977Y-14836976D02*
X14157977Y-14875071D01*
X14234167Y-14836976D02*
X14234167Y-14875071D01*
X14529405Y-15113166D02*
X14519881Y-15103642D01*
X14500834Y-15075071D01*
X14491310Y-15056023D01*
X14481786Y-15027452D01*
X14472262Y-14979833D01*
X14472262Y-14941738D01*
X14481786Y-14894119D01*
X14491310Y-14865547D01*
X14500834Y-14846500D01*
X14519881Y-14817928D01*
X14529405Y-14808404D01*
X14643691Y-14836976D02*
X14662738Y-14836976D01*
X14681786Y-14846500D01*
X14691310Y-14856023D01*
X14700834Y-14875071D01*
X14710358Y-14913166D01*
X14710358Y-14960785D01*
X14700834Y-14998880D01*
X14691310Y-15017928D01*
X14681786Y-15027452D01*
X14662738Y-15036976D01*
X14643691Y-15036976D01*
X14624643Y-15027452D01*
X14615119Y-15017928D01*
X14605596Y-14998880D01*
X14596072Y-14960785D01*
X14596072Y-14913166D01*
X14605596Y-14875071D01*
X14615119Y-14856023D01*
X14624643Y-14846500D01*
X14643691Y-14836976D01*
X14948453Y-15036976D02*
X14948453Y-14836976D01*
X15034167Y-15036976D02*
X15034167Y-14932214D01*
X15024643Y-14913166D01*
X15005596Y-14903642D01*
X14977024Y-14903642D01*
X14957977Y-14913166D01*
X14948453Y-14922690D01*
X15157977Y-15036976D02*
X15138929Y-15027452D01*
X15129405Y-15017928D01*
X15119881Y-14998880D01*
X15119881Y-14941738D01*
X15129405Y-14922690D01*
X15138929Y-14913166D01*
X15157977Y-14903642D01*
X15186548Y-14903642D01*
X15205596Y-14913166D01*
X15215119Y-14922690D01*
X15224643Y-14941738D01*
X15224643Y-14998880D01*
X15215119Y-15017928D01*
X15205596Y-15027452D01*
X15186548Y-15036976D01*
X15157977Y-15036976D01*
X15338929Y-15036976D02*
X15319881Y-15027452D01*
X15310358Y-15008404D01*
X15310358Y-14836976D01*
X15491310Y-15027452D02*
X15472262Y-15036976D01*
X15434167Y-15036976D01*
X15415119Y-15027452D01*
X15405596Y-15008404D01*
X15405596Y-14932214D01*
X15415119Y-14913166D01*
X15434167Y-14903642D01*
X15472262Y-14903642D01*
X15491310Y-14913166D01*
X15500834Y-14932214D01*
X15500834Y-14951261D01*
X15405596Y-14970309D01*
X15577024Y-15027452D02*
X15596072Y-15036976D01*
X15634167Y-15036976D01*
X15653215Y-15027452D01*
X15662738Y-15008404D01*
X15662738Y-14998880D01*
X15653215Y-14979833D01*
X15634167Y-14970309D01*
X15605596Y-14970309D01*
X15586548Y-14960785D01*
X15577024Y-14941738D01*
X15577024Y-14932214D01*
X15586548Y-14913166D01*
X15605596Y-14903642D01*
X15634167Y-14903642D01*
X15653215Y-14913166D01*
X15900834Y-14960785D02*
X16053215Y-14960785D01*
X15977024Y-15036976D02*
X15977024Y-14884595D01*
X16386548Y-14903642D02*
X16386548Y-15036976D01*
X16338929Y-14827452D02*
X16291310Y-14970309D01*
X16415119Y-14970309D01*
X16634167Y-15027452D02*
X16653215Y-15036976D01*
X16691310Y-15036976D01*
X16710358Y-15027452D01*
X16719881Y-15008404D01*
X16719881Y-14998880D01*
X16710358Y-14979833D01*
X16691310Y-14970309D01*
X16662738Y-14970309D01*
X16643691Y-14960785D01*
X16634167Y-14941738D01*
X16634167Y-14932214D01*
X16643691Y-14913166D01*
X16662738Y-14903642D01*
X16691310Y-14903642D01*
X16710358Y-14913166D01*
X16834167Y-15036976D02*
X16815120Y-15027452D01*
X16805596Y-15008404D01*
X16805596Y-14836976D01*
X16938929Y-15036976D02*
X16919881Y-15027452D01*
X16910358Y-15017928D01*
X16900834Y-14998880D01*
X16900834Y-14941738D01*
X16910358Y-14922690D01*
X16919881Y-14913166D01*
X16938929Y-14903642D01*
X16967500Y-14903642D01*
X16986548Y-14913166D01*
X16996072Y-14922690D01*
X17005596Y-14941738D01*
X17005596Y-14998880D01*
X16996072Y-15017928D01*
X16986548Y-15027452D01*
X16967500Y-15036976D01*
X16938929Y-15036976D01*
X17062739Y-14903642D02*
X17138929Y-14903642D01*
X17091310Y-14836976D02*
X17091310Y-15008404D01*
X17100834Y-15027452D01*
X17119881Y-15036976D01*
X17138929Y-15036976D01*
X17196072Y-15027452D02*
X17215120Y-15036976D01*
X17253215Y-15036976D01*
X17272262Y-15027452D01*
X17281786Y-15008404D01*
X17281786Y-14998880D01*
X17272262Y-14979833D01*
X17253215Y-14970309D01*
X17224643Y-14970309D01*
X17205596Y-14960785D01*
X17196072Y-14941738D01*
X17196072Y-14932214D01*
X17205596Y-14913166D01*
X17224643Y-14903642D01*
X17253215Y-14903642D01*
X17272262Y-14913166D01*
X17348453Y-15113166D02*
X17357977Y-15103642D01*
X17377024Y-15075071D01*
X17386548Y-15056023D01*
X17396072Y-15027452D01*
X17405596Y-14979833D01*
X17405596Y-14941738D01*
X17396072Y-14894119D01*
X17386548Y-14865547D01*
X17377024Y-14846500D01*
X17357977Y-14817928D01*
X17348453Y-14808404D01*
D14*
X10907501Y-15160500D02*
X10907501Y-15260500D01*
X10857501Y-15210500D02*
X10957501Y-15210500D01*
D11*
X11319881Y-15300976D02*
X11205596Y-15300976D01*
X11262738Y-15300976D02*
X11262738Y-15100976D01*
X11243691Y-15129547D01*
X11224643Y-15148595D01*
X11205596Y-15158119D01*
X11405596Y-15281928D02*
X11415119Y-15291452D01*
X11405596Y-15300976D01*
X11396072Y-15291452D01*
X11405596Y-15281928D01*
X11405596Y-15300976D01*
X11538929Y-15100976D02*
X11557977Y-15100976D01*
X11577024Y-15110500D01*
X11586548Y-15120023D01*
X11596072Y-15139071D01*
X11605596Y-15177166D01*
X11605596Y-15224785D01*
X11596072Y-15262880D01*
X11586548Y-15281928D01*
X11577024Y-15291452D01*
X11557977Y-15300976D01*
X11538929Y-15300976D01*
X11519881Y-15291452D01*
X11510358Y-15281928D01*
X11500834Y-15262880D01*
X11491310Y-15224785D01*
X11491310Y-15177166D01*
X11500834Y-15139071D01*
X11510358Y-15120023D01*
X11519881Y-15110500D01*
X11538929Y-15100976D01*
X11729405Y-15100976D02*
X11748453Y-15100976D01*
X11767500Y-15110500D01*
X11777024Y-15120023D01*
X11786548Y-15139071D01*
X11796072Y-15177166D01*
X11796072Y-15224785D01*
X11786548Y-15262880D01*
X11777024Y-15281928D01*
X11767500Y-15291452D01*
X11748453Y-15300976D01*
X11729405Y-15300976D01*
X11710358Y-15291452D01*
X11700834Y-15281928D01*
X11691310Y-15262880D01*
X11681786Y-15224785D01*
X11681786Y-15177166D01*
X11691310Y-15139071D01*
X11700834Y-15120023D01*
X11710358Y-15110500D01*
X11729405Y-15100976D01*
X11919881Y-15100976D02*
X11938929Y-15100976D01*
X11957977Y-15110500D01*
X11967500Y-15120023D01*
X11977024Y-15139071D01*
X11986548Y-15177166D01*
X11986548Y-15224785D01*
X11977024Y-15262880D01*
X11967500Y-15281928D01*
X11957977Y-15291452D01*
X11938929Y-15300976D01*
X11919881Y-15300976D01*
X11900834Y-15291452D01*
X11891310Y-15281928D01*
X11881786Y-15262880D01*
X11872262Y-15224785D01*
X11872262Y-15177166D01*
X11881786Y-15139071D01*
X11891310Y-15120023D01*
X11900834Y-15110500D01*
X11919881Y-15100976D01*
X12072262Y-15300976D02*
X12072262Y-15167642D01*
X12072262Y-15186690D02*
X12081786Y-15177166D01*
X12100834Y-15167642D01*
X12129405Y-15167642D01*
X12148453Y-15177166D01*
X12157977Y-15196214D01*
X12157977Y-15300976D01*
X12157977Y-15196214D02*
X12167500Y-15177166D01*
X12186548Y-15167642D01*
X12215119Y-15167642D01*
X12234167Y-15177166D01*
X12243691Y-15196214D01*
X12243691Y-15300976D01*
X12338929Y-15300976D02*
X12338929Y-15167642D01*
X12338929Y-15186690D02*
X12348453Y-15177166D01*
X12367500Y-15167642D01*
X12396072Y-15167642D01*
X12415119Y-15177166D01*
X12424643Y-15196214D01*
X12424643Y-15300976D01*
X12424643Y-15196214D02*
X12434167Y-15177166D01*
X12453215Y-15167642D01*
X12481786Y-15167642D01*
X12500834Y-15177166D01*
X12510358Y-15196214D01*
X12510358Y-15300976D01*
X12900834Y-15091452D02*
X12729405Y-15348595D01*
X13157977Y-15100976D02*
X13177024Y-15100976D01*
X13196072Y-15110500D01*
X13205596Y-15120023D01*
X13215119Y-15139071D01*
X13224643Y-15177166D01*
X13224643Y-15224785D01*
X13215119Y-15262880D01*
X13205596Y-15281928D01*
X13196072Y-15291452D01*
X13177024Y-15300976D01*
X13157977Y-15300976D01*
X13138929Y-15291452D01*
X13129405Y-15281928D01*
X13119881Y-15262880D01*
X13110358Y-15224785D01*
X13110358Y-15177166D01*
X13119881Y-15139071D01*
X13129405Y-15120023D01*
X13138929Y-15110500D01*
X13157977Y-15100976D01*
X13310358Y-15281928D02*
X13319881Y-15291452D01*
X13310358Y-15300976D01*
X13300834Y-15291452D01*
X13310358Y-15281928D01*
X13310358Y-15300976D01*
X13443691Y-15100976D02*
X13462738Y-15100976D01*
X13481786Y-15110500D01*
X13491310Y-15120023D01*
X13500834Y-15139071D01*
X13510358Y-15177166D01*
X13510358Y-15224785D01*
X13500834Y-15262880D01*
X13491310Y-15281928D01*
X13481786Y-15291452D01*
X13462738Y-15300976D01*
X13443691Y-15300976D01*
X13424643Y-15291452D01*
X13415119Y-15281928D01*
X13405596Y-15262880D01*
X13396072Y-15224785D01*
X13396072Y-15177166D01*
X13405596Y-15139071D01*
X13415119Y-15120023D01*
X13424643Y-15110500D01*
X13443691Y-15100976D01*
X13577024Y-15100976D02*
X13700834Y-15100976D01*
X13634167Y-15177166D01*
X13662738Y-15177166D01*
X13681786Y-15186690D01*
X13691310Y-15196214D01*
X13700834Y-15215261D01*
X13700834Y-15262880D01*
X13691310Y-15281928D01*
X13681786Y-15291452D01*
X13662738Y-15300976D01*
X13605596Y-15300976D01*
X13586548Y-15291452D01*
X13577024Y-15281928D01*
X13796072Y-15300976D02*
X13834167Y-15300976D01*
X13853215Y-15291452D01*
X13862738Y-15281928D01*
X13881786Y-15253357D01*
X13891310Y-15215261D01*
X13891310Y-15139071D01*
X13881786Y-15120023D01*
X13872262Y-15110500D01*
X13853215Y-15100976D01*
X13815119Y-15100976D01*
X13796072Y-15110500D01*
X13786548Y-15120023D01*
X13777024Y-15139071D01*
X13777024Y-15186690D01*
X13786548Y-15205738D01*
X13796072Y-15215261D01*
X13815119Y-15224785D01*
X13853215Y-15224785D01*
X13872262Y-15215261D01*
X13881786Y-15205738D01*
X13891310Y-15186690D01*
X14062738Y-15167642D02*
X14062738Y-15300976D01*
X14015119Y-15091452D02*
X13967500Y-15234309D01*
X14091310Y-15234309D01*
X14157977Y-15100976D02*
X14157977Y-15139071D01*
X14234167Y-15100976D02*
X14234167Y-15139071D01*
X14529405Y-15377166D02*
X14519881Y-15367642D01*
X14500834Y-15339071D01*
X14491310Y-15320023D01*
X14481786Y-15291452D01*
X14472262Y-15243833D01*
X14472262Y-15205738D01*
X14481786Y-15158119D01*
X14491310Y-15129547D01*
X14500834Y-15110500D01*
X14519881Y-15081928D01*
X14529405Y-15072404D01*
X14710358Y-15300976D02*
X14596072Y-15300976D01*
X14653215Y-15300976D02*
X14653215Y-15100976D01*
X14634167Y-15129547D01*
X14615119Y-15148595D01*
X14596072Y-15158119D01*
X14891310Y-15100976D02*
X14796072Y-15100976D01*
X14786548Y-15196214D01*
X14796072Y-15186690D01*
X14815119Y-15177166D01*
X14862738Y-15177166D01*
X14881786Y-15186690D01*
X14891310Y-15196214D01*
X14900834Y-15215261D01*
X14900834Y-15262880D01*
X14891310Y-15281928D01*
X14881786Y-15291452D01*
X14862738Y-15300976D01*
X14815119Y-15300976D01*
X14796072Y-15291452D01*
X14786548Y-15281928D01*
X15138929Y-15300976D02*
X15138929Y-15100976D01*
X15224643Y-15300976D02*
X15224643Y-15196214D01*
X15215119Y-15177166D01*
X15196072Y-15167642D01*
X15167500Y-15167642D01*
X15148453Y-15177166D01*
X15138929Y-15186690D01*
X15348453Y-15300976D02*
X15329405Y-15291452D01*
X15319881Y-15281928D01*
X15310358Y-15262880D01*
X15310358Y-15205738D01*
X15319881Y-15186690D01*
X15329405Y-15177166D01*
X15348453Y-15167642D01*
X15377024Y-15167642D01*
X15396072Y-15177166D01*
X15405596Y-15186690D01*
X15415119Y-15205738D01*
X15415119Y-15262880D01*
X15405596Y-15281928D01*
X15396072Y-15291452D01*
X15377024Y-15300976D01*
X15348453Y-15300976D01*
X15529405Y-15300976D02*
X15510358Y-15291452D01*
X15500834Y-15272404D01*
X15500834Y-15100976D01*
X15681786Y-15291452D02*
X15662738Y-15300976D01*
X15624643Y-15300976D01*
X15605596Y-15291452D01*
X15596072Y-15272404D01*
X15596072Y-15196214D01*
X15605596Y-15177166D01*
X15624643Y-15167642D01*
X15662738Y-15167642D01*
X15681786Y-15177166D01*
X15691310Y-15196214D01*
X15691310Y-15215261D01*
X15596072Y-15234309D01*
X15767500Y-15291452D02*
X15786548Y-15300976D01*
X15824643Y-15300976D01*
X15843691Y-15291452D01*
X15853215Y-15272404D01*
X15853215Y-15262880D01*
X15843691Y-15243833D01*
X15824643Y-15234309D01*
X15796072Y-15234309D01*
X15777024Y-15224785D01*
X15767500Y-15205738D01*
X15767500Y-15196214D01*
X15777024Y-15177166D01*
X15796072Y-15167642D01*
X15824643Y-15167642D01*
X15843691Y-15177166D01*
X15919881Y-15377166D02*
X15929405Y-15367642D01*
X15948453Y-15339071D01*
X15957977Y-15320023D01*
X15967500Y-15291452D01*
X15977024Y-15243833D01*
X15977024Y-15205738D01*
X15967500Y-15158119D01*
X15957977Y-15129547D01*
X15948453Y-15110500D01*
X15929405Y-15081928D01*
X15919881Y-15072404D01*
D15*
X10931835Y-15536464D02*
X10931835Y-15412535D01*
X10807906Y-15412535D01*
X10807906Y-15536464D01*
X10931835Y-15536464D01*
D11*
X11319881Y-15564976D02*
X11205596Y-15564976D01*
X11262738Y-15564976D02*
X11262738Y-15364976D01*
X11243691Y-15393547D01*
X11224643Y-15412595D01*
X11205596Y-15422119D01*
X11405596Y-15545928D02*
X11415119Y-15555452D01*
X11405596Y-15564976D01*
X11396072Y-15555452D01*
X11405596Y-15545928D01*
X11405596Y-15564976D01*
X11481786Y-15364976D02*
X11615119Y-15364976D01*
X11529405Y-15564976D01*
X11786548Y-15364976D02*
X11691310Y-15364976D01*
X11681786Y-15460214D01*
X11691310Y-15450690D01*
X11710358Y-15441166D01*
X11757977Y-15441166D01*
X11777024Y-15450690D01*
X11786548Y-15460214D01*
X11796072Y-15479261D01*
X11796072Y-15526880D01*
X11786548Y-15545928D01*
X11777024Y-15555452D01*
X11757977Y-15564976D01*
X11710358Y-15564976D01*
X11691310Y-15555452D01*
X11681786Y-15545928D01*
X11862738Y-15364976D02*
X11986548Y-15364976D01*
X11919881Y-15441166D01*
X11948453Y-15441166D01*
X11967500Y-15450690D01*
X11977024Y-15460214D01*
X11986548Y-15479261D01*
X11986548Y-15526880D01*
X11977024Y-15545928D01*
X11967500Y-15555452D01*
X11948453Y-15564976D01*
X11891310Y-15564976D01*
X11872262Y-15555452D01*
X11862738Y-15545928D01*
X12072262Y-15564976D02*
X12072262Y-15431642D01*
X12072262Y-15450690D02*
X12081786Y-15441166D01*
X12100834Y-15431642D01*
X12129405Y-15431642D01*
X12148453Y-15441166D01*
X12157977Y-15460214D01*
X12157977Y-15564976D01*
X12157977Y-15460214D02*
X12167500Y-15441166D01*
X12186548Y-15431642D01*
X12215119Y-15431642D01*
X12234167Y-15441166D01*
X12243691Y-15460214D01*
X12243691Y-15564976D01*
X12338929Y-15564976D02*
X12338929Y-15431642D01*
X12338929Y-15450690D02*
X12348453Y-15441166D01*
X12367500Y-15431642D01*
X12396072Y-15431642D01*
X12415119Y-15441166D01*
X12424643Y-15460214D01*
X12424643Y-15564976D01*
X12424643Y-15460214D02*
X12434167Y-15441166D01*
X12453215Y-15431642D01*
X12481786Y-15431642D01*
X12500834Y-15441166D01*
X12510358Y-15460214D01*
X12510358Y-15564976D01*
X12900834Y-15355452D02*
X12729405Y-15612595D01*
X13157977Y-15364976D02*
X13177024Y-15364976D01*
X13196072Y-15374500D01*
X13205596Y-15384023D01*
X13215119Y-15403071D01*
X13224643Y-15441166D01*
X13224643Y-15488785D01*
X13215119Y-15526880D01*
X13205596Y-15545928D01*
X13196072Y-15555452D01*
X13177024Y-15564976D01*
X13157977Y-15564976D01*
X13138929Y-15555452D01*
X13129405Y-15545928D01*
X13119881Y-15526880D01*
X13110358Y-15488785D01*
X13110358Y-15441166D01*
X13119881Y-15403071D01*
X13129405Y-15384023D01*
X13138929Y-15374500D01*
X13157977Y-15364976D01*
X13310358Y-15545928D02*
X13319881Y-15555452D01*
X13310358Y-15564976D01*
X13300834Y-15555452D01*
X13310358Y-15545928D01*
X13310358Y-15564976D01*
X13443691Y-15364976D02*
X13462738Y-15364976D01*
X13481786Y-15374500D01*
X13491310Y-15384023D01*
X13500834Y-15403071D01*
X13510358Y-15441166D01*
X13510358Y-15488785D01*
X13500834Y-15526880D01*
X13491310Y-15545928D01*
X13481786Y-15555452D01*
X13462738Y-15564976D01*
X13443691Y-15564976D01*
X13424643Y-15555452D01*
X13415119Y-15545928D01*
X13405596Y-15526880D01*
X13396072Y-15488785D01*
X13396072Y-15441166D01*
X13405596Y-15403071D01*
X13415119Y-15384023D01*
X13424643Y-15374500D01*
X13443691Y-15364976D01*
X13681786Y-15364976D02*
X13643691Y-15364976D01*
X13624643Y-15374500D01*
X13615119Y-15384023D01*
X13596072Y-15412595D01*
X13586548Y-15450690D01*
X13586548Y-15526880D01*
X13596072Y-15545928D01*
X13605596Y-15555452D01*
X13624643Y-15564976D01*
X13662738Y-15564976D01*
X13681786Y-15555452D01*
X13691310Y-15545928D01*
X13700834Y-15526880D01*
X13700834Y-15479261D01*
X13691310Y-15460214D01*
X13681786Y-15450690D01*
X13662738Y-15441166D01*
X13624643Y-15441166D01*
X13605596Y-15450690D01*
X13596072Y-15460214D01*
X13586548Y-15479261D01*
X13796072Y-15564976D02*
X13834167Y-15564976D01*
X13853215Y-15555452D01*
X13862738Y-15545928D01*
X13881786Y-15517357D01*
X13891310Y-15479261D01*
X13891310Y-15403071D01*
X13881786Y-15384023D01*
X13872262Y-15374500D01*
X13853215Y-15364976D01*
X13815119Y-15364976D01*
X13796072Y-15374500D01*
X13786548Y-15384023D01*
X13777024Y-15403071D01*
X13777024Y-15450690D01*
X13786548Y-15469738D01*
X13796072Y-15479261D01*
X13815119Y-15488785D01*
X13853215Y-15488785D01*
X13872262Y-15479261D01*
X13881786Y-15469738D01*
X13891310Y-15450690D01*
X14015119Y-15364976D02*
X14034167Y-15364976D01*
X14053215Y-15374500D01*
X14062738Y-15384023D01*
X14072262Y-15403071D01*
X14081786Y-15441166D01*
X14081786Y-15488785D01*
X14072262Y-15526880D01*
X14062738Y-15545928D01*
X14053215Y-15555452D01*
X14034167Y-15564976D01*
X14015119Y-15564976D01*
X13996072Y-15555452D01*
X13986548Y-15545928D01*
X13977024Y-15526880D01*
X13967500Y-15488785D01*
X13967500Y-15441166D01*
X13977024Y-15403071D01*
X13986548Y-15384023D01*
X13996072Y-15374500D01*
X14015119Y-15364976D01*
X14157977Y-15364976D02*
X14157977Y-15403071D01*
X14234167Y-15364976D02*
X14234167Y-15403071D01*
X14529405Y-15641166D02*
X14519881Y-15631642D01*
X14500834Y-15603071D01*
X14491310Y-15584023D01*
X14481786Y-15555452D01*
X14472262Y-15507833D01*
X14472262Y-15469738D01*
X14481786Y-15422119D01*
X14491310Y-15393547D01*
X14500834Y-15374500D01*
X14519881Y-15345928D01*
X14529405Y-15336404D01*
X14710358Y-15564976D02*
X14596072Y-15564976D01*
X14653215Y-15564976D02*
X14653215Y-15364976D01*
X14634167Y-15393547D01*
X14615119Y-15412595D01*
X14596072Y-15422119D01*
X14824643Y-15450690D02*
X14805596Y-15441166D01*
X14796072Y-15431642D01*
X14786548Y-15412595D01*
X14786548Y-15403071D01*
X14796072Y-15384023D01*
X14805596Y-15374500D01*
X14824643Y-15364976D01*
X14862738Y-15364976D01*
X14881786Y-15374500D01*
X14891310Y-15384023D01*
X14900834Y-15403071D01*
X14900834Y-15412595D01*
X14891310Y-15431642D01*
X14881786Y-15441166D01*
X14862738Y-15450690D01*
X14824643Y-15450690D01*
X14805596Y-15460214D01*
X14796072Y-15469738D01*
X14786548Y-15488785D01*
X14786548Y-15526880D01*
X14796072Y-15545928D01*
X14805596Y-15555452D01*
X14824643Y-15564976D01*
X14862738Y-15564976D01*
X14881786Y-15555452D01*
X14891310Y-15545928D01*
X14900834Y-15526880D01*
X14900834Y-15488785D01*
X14891310Y-15469738D01*
X14881786Y-15460214D01*
X14862738Y-15450690D01*
X15138929Y-15564976D02*
X15138929Y-15364976D01*
X15224643Y-15564976D02*
X15224643Y-15460214D01*
X15215119Y-15441166D01*
X15196072Y-15431642D01*
X15167500Y-15431642D01*
X15148453Y-15441166D01*
X15138929Y-15450690D01*
X15348453Y-15564976D02*
X15329405Y-15555452D01*
X15319881Y-15545928D01*
X15310358Y-15526880D01*
X15310358Y-15469738D01*
X15319881Y-15450690D01*
X15329405Y-15441166D01*
X15348453Y-15431642D01*
X15377024Y-15431642D01*
X15396072Y-15441166D01*
X15405596Y-15450690D01*
X15415119Y-15469738D01*
X15415119Y-15526880D01*
X15405596Y-15545928D01*
X15396072Y-15555452D01*
X15377024Y-15564976D01*
X15348453Y-15564976D01*
X15529405Y-15564976D02*
X15510358Y-15555452D01*
X15500834Y-15536404D01*
X15500834Y-15364976D01*
X15681786Y-15555452D02*
X15662738Y-15564976D01*
X15624643Y-15564976D01*
X15605596Y-15555452D01*
X15596072Y-15536404D01*
X15596072Y-15460214D01*
X15605596Y-15441166D01*
X15624643Y-15431642D01*
X15662738Y-15431642D01*
X15681786Y-15441166D01*
X15691310Y-15460214D01*
X15691310Y-15479261D01*
X15596072Y-15498309D01*
X15767500Y-15555452D02*
X15786548Y-15564976D01*
X15824643Y-15564976D01*
X15843691Y-15555452D01*
X15853215Y-15536404D01*
X15853215Y-15526880D01*
X15843691Y-15507833D01*
X15824643Y-15498309D01*
X15796072Y-15498309D01*
X15777024Y-15488785D01*
X15767500Y-15469738D01*
X15767500Y-15460214D01*
X15777024Y-15441166D01*
X15796072Y-15431642D01*
X15824643Y-15431642D01*
X15843691Y-15441166D01*
X15919881Y-15641166D02*
X15929405Y-15631642D01*
X15948453Y-15603071D01*
X15957977Y-15584023D01*
X15967500Y-15555452D01*
X15977024Y-15507833D01*
X15977024Y-15469738D01*
X15967500Y-15422119D01*
X15957977Y-15393547D01*
X15948453Y-15374500D01*
X15929405Y-15345928D01*
X15919881Y-15336404D01*
M02*
