G04 #@! TF.GenerationSoftware,KiCad,Pcbnew,(6.0.1)*
G04 #@! TF.CreationDate,2022-06-28T21:47:16+02:00*
G04 #@! TF.ProjectId,RecyclingPad_embedded,52656379-636c-4696-9e67-5061645f656d,rev?*
G04 #@! TF.SameCoordinates,Original*
G04 #@! TF.FileFunction,Soldermask,Top*
G04 #@! TF.FilePolarity,Negative*
%FSLAX46Y46*%
G04 Gerber Fmt 4.6, Leading zero omitted, Abs format (unit mm)*
G04 Created by KiCad (PCBNEW (6.0.1)) date 2022-06-28 21:47:16*
%MOMM*%
%LPD*%
G01*
G04 APERTURE LIST*
%ADD10C,4.089400*%
%ADD11O,2.327000X3.127000*%
%ADD12C,1.627000*%
%ADD13C,2.413000*%
%ADD14C,1.706881*%
%ADD15C,3.352800*%
%ADD16C,2.700000*%
%ADD17C,0.650000*%
%ADD18O,1.000000X1.600000*%
%ADD19O,1.000000X2.100000*%
G04 APERTURE END LIST*
D10*
X169600000Y-80400000D03*
D11*
X174680000Y-80400000D03*
X164520000Y-80400000D03*
D12*
X172100000Y-72900000D03*
X167100000Y-72900000D03*
X169600000Y-72900000D03*
X172100000Y-87400000D03*
X167100000Y-87400000D03*
D13*
X173410000Y-82940000D03*
X167060000Y-85480000D03*
D10*
X130400000Y-80400000D03*
D11*
X135480000Y-80400000D03*
X125320000Y-80400000D03*
D12*
X132900000Y-72900000D03*
X127900000Y-72900000D03*
X130400000Y-72900000D03*
X132900000Y-87400000D03*
X127900000Y-87400000D03*
D13*
X134210000Y-82940000D03*
X127860000Y-85480000D03*
D10*
X150000000Y-80400000D03*
D11*
X155080000Y-80400000D03*
X144920000Y-80400000D03*
D12*
X152500000Y-72900000D03*
X147500000Y-72900000D03*
X150000000Y-72900000D03*
X152500000Y-87400000D03*
X147500000Y-87400000D03*
D13*
X153810000Y-82940000D03*
X147460000Y-85480000D03*
D14*
X135480000Y-100000000D03*
X125320000Y-100000000D03*
D10*
X130400000Y-100000000D03*
D15*
X134210000Y-102540000D03*
X127860000Y-105080000D03*
D14*
X135480000Y-119600000D03*
X125320000Y-119600000D03*
D10*
X130400000Y-119600000D03*
D15*
X134210000Y-122140000D03*
X127860000Y-124680000D03*
D14*
X174680000Y-119600000D03*
X164520000Y-119600000D03*
D10*
X169600000Y-119600000D03*
D15*
X173410000Y-122140000D03*
X167060000Y-124680000D03*
D14*
X174680000Y-100000000D03*
X164520000Y-100000000D03*
D10*
X169600000Y-100000000D03*
D15*
X173410000Y-102540000D03*
X167060000Y-105080000D03*
D14*
X155080000Y-100000000D03*
X144920000Y-100000000D03*
D10*
X150000000Y-100000000D03*
D15*
X153810000Y-102540000D03*
X147460000Y-105080000D03*
D14*
X155080000Y-119600000D03*
X144920000Y-119600000D03*
D10*
X150000000Y-119600000D03*
D15*
X153810000Y-122140000D03*
X147460000Y-124680000D03*
D16*
X115500000Y-134500000D03*
X184500000Y-134500000D03*
X184400000Y-65500000D03*
X115500000Y-65500000D03*
D17*
X147110000Y-64700000D03*
X152890000Y-64700000D03*
D18*
X154320000Y-61050000D03*
D19*
X154320000Y-65230000D03*
D18*
X145680000Y-61050000D03*
D19*
X145680000Y-65230000D03*
M02*
