G04 #@! TF.GenerationSoftware,KiCad,Pcbnew,(6.0.1)*
G04 #@! TF.CreationDate,2022-06-28T21:47:16+02:00*
G04 #@! TF.ProjectId,RecyclingPad_embedded,52656379-636c-4696-9e67-5061645f656d,rev?*
G04 #@! TF.SameCoordinates,Original*
G04 #@! TF.FileFunction,Legend,Top*
G04 #@! TF.FilePolarity,Positive*
%FSLAX46Y46*%
G04 Gerber Fmt 4.6, Leading zero omitted, Abs format (unit mm)*
G04 Created by KiCad (PCBNEW (6.0.1)) date 2022-06-28 21:47:16*
%MOMM*%
%LPD*%
G01*
G04 APERTURE LIST*
%ADD10C,0.203200*%
%ADD11C,4.089400*%
%ADD12O,2.327000X3.127000*%
%ADD13C,1.627000*%
%ADD14C,2.413000*%
%ADD15C,1.706881*%
%ADD16C,3.352800*%
%ADD17C,2.700000*%
%ADD18C,0.650000*%
%ADD19O,1.000000X1.600000*%
%ADD20O,1.000000X2.100000*%
G04 APERTURE END LIST*
D10*
X163400000Y-81924000D02*
X163400000Y-87000000D01*
X173410000Y-87000000D02*
X175800000Y-87000000D01*
X175800000Y-73800000D02*
X175800000Y-78876000D01*
X172200000Y-81900000D02*
X167000000Y-81900000D01*
X168330000Y-87000000D02*
X170870000Y-87000000D01*
X163400000Y-87000000D02*
X165790000Y-87000000D01*
X163400000Y-73800000D02*
X163400000Y-78876000D01*
X175800000Y-73800000D02*
X163400000Y-73800000D01*
X175800000Y-81924000D02*
X175800000Y-87000000D01*
X172600000Y-80400000D02*
G75*
G03*
X172600000Y-80400000I-3000000J0D01*
G01*
X124200000Y-81924000D02*
X124200000Y-87000000D01*
X134210000Y-87000000D02*
X136600000Y-87000000D01*
X136600000Y-73800000D02*
X136600000Y-78876000D01*
X133000000Y-81900000D02*
X127800000Y-81900000D01*
X129130000Y-87000000D02*
X131670000Y-87000000D01*
X124200000Y-87000000D02*
X126590000Y-87000000D01*
X124200000Y-73800000D02*
X124200000Y-78876000D01*
X136600000Y-73800000D02*
X124200000Y-73800000D01*
X136600000Y-81924000D02*
X136600000Y-87000000D01*
X133400000Y-80400000D02*
G75*
G03*
X133400000Y-80400000I-3000000J0D01*
G01*
X143800000Y-81924000D02*
X143800000Y-87000000D01*
X153810000Y-87000000D02*
X156200000Y-87000000D01*
X156200000Y-73800000D02*
X156200000Y-78876000D01*
X152600000Y-81900000D02*
X147400000Y-81900000D01*
X148730000Y-87000000D02*
X151270000Y-87000000D01*
X143800000Y-87000000D02*
X146190000Y-87000000D01*
X143800000Y-73800000D02*
X143800000Y-78876000D01*
X156200000Y-73800000D02*
X143800000Y-73800000D01*
X156200000Y-81924000D02*
X156200000Y-87000000D01*
X153000000Y-80400000D02*
G75*
G03*
X153000000Y-80400000I-3000000J0D01*
G01*
X124304000Y-93269000D02*
X136496000Y-93269000D01*
X124304000Y-106731000D02*
X124304000Y-93269000D01*
X136496000Y-93269000D02*
X136496000Y-106731000D01*
X136496000Y-106731000D02*
X124304000Y-106731000D01*
X124304000Y-112869000D02*
X136496000Y-112869000D01*
X124304000Y-126331000D02*
X124304000Y-112869000D01*
X136496000Y-112869000D02*
X136496000Y-126331000D01*
X136496000Y-126331000D02*
X124304000Y-126331000D01*
X163504000Y-112869000D02*
X175696000Y-112869000D01*
X163504000Y-126331000D02*
X163504000Y-112869000D01*
X175696000Y-112869000D02*
X175696000Y-126331000D01*
X175696000Y-126331000D02*
X163504000Y-126331000D01*
X163504000Y-93269000D02*
X175696000Y-93269000D01*
X163504000Y-106731000D02*
X163504000Y-93269000D01*
X175696000Y-93269000D02*
X175696000Y-106731000D01*
X175696000Y-106731000D02*
X163504000Y-106731000D01*
X143904000Y-93269000D02*
X156096000Y-93269000D01*
X143904000Y-106731000D02*
X143904000Y-93269000D01*
X156096000Y-93269000D02*
X156096000Y-106731000D01*
X156096000Y-106731000D02*
X143904000Y-106731000D01*
X143904000Y-112869000D02*
X156096000Y-112869000D01*
X143904000Y-126331000D02*
X143904000Y-112869000D01*
X156096000Y-112869000D02*
X156096000Y-126331000D01*
X156096000Y-126331000D02*
X143904000Y-126331000D01*
%LPC*%
D11*
X169600000Y-80400000D03*
D12*
X174680000Y-80400000D03*
X164520000Y-80400000D03*
D13*
X172100000Y-72900000D03*
X167100000Y-72900000D03*
X169600000Y-72900000D03*
X172100000Y-87400000D03*
X167100000Y-87400000D03*
D14*
X173410000Y-82940000D03*
X167060000Y-85480000D03*
D11*
X130400000Y-80400000D03*
D12*
X135480000Y-80400000D03*
X125320000Y-80400000D03*
D13*
X132900000Y-72900000D03*
X127900000Y-72900000D03*
X130400000Y-72900000D03*
X132900000Y-87400000D03*
X127900000Y-87400000D03*
D14*
X134210000Y-82940000D03*
X127860000Y-85480000D03*
D11*
X150000000Y-80400000D03*
D12*
X155080000Y-80400000D03*
X144920000Y-80400000D03*
D13*
X152500000Y-72900000D03*
X147500000Y-72900000D03*
X150000000Y-72900000D03*
X152500000Y-87400000D03*
X147500000Y-87400000D03*
D14*
X153810000Y-82940000D03*
X147460000Y-85480000D03*
D15*
X135480000Y-100000000D03*
X125320000Y-100000000D03*
D11*
X130400000Y-100000000D03*
D16*
X134210000Y-102540000D03*
X127860000Y-105080000D03*
D15*
X135480000Y-119600000D03*
X125320000Y-119600000D03*
D11*
X130400000Y-119600000D03*
D16*
X134210000Y-122140000D03*
X127860000Y-124680000D03*
D15*
X174680000Y-119600000D03*
X164520000Y-119600000D03*
D11*
X169600000Y-119600000D03*
D16*
X173410000Y-122140000D03*
X167060000Y-124680000D03*
D15*
X174680000Y-100000000D03*
X164520000Y-100000000D03*
D11*
X169600000Y-100000000D03*
D16*
X173410000Y-102540000D03*
X167060000Y-105080000D03*
D15*
X155080000Y-100000000D03*
X144920000Y-100000000D03*
D11*
X150000000Y-100000000D03*
D16*
X153810000Y-102540000D03*
X147460000Y-105080000D03*
D15*
X155080000Y-119600000D03*
X144920000Y-119600000D03*
D11*
X150000000Y-119600000D03*
D16*
X153810000Y-122140000D03*
X147460000Y-124680000D03*
D17*
X115500000Y-134500000D03*
X184500000Y-134500000D03*
X184400000Y-65500000D03*
X115500000Y-65500000D03*
D18*
X147110000Y-64700000D03*
X152890000Y-64700000D03*
D19*
X154320000Y-61050000D03*
D20*
X154320000Y-65230000D03*
D19*
X145680000Y-61050000D03*
D20*
X145680000Y-65230000D03*
M02*
