M48
; DRILL file {KiCad (6.0.1)} date Tue Jun 28 21:47:42 2022
; FORMAT={-:-/ absolute / metric / decimal}
; #@! TF.CreationDate,2022-06-28T21:47:42+02:00
; #@! TF.GenerationSoftware,Kicad,Pcbnew,(6.0.1)
; #@! TF.FileFunction,Plated,1,2,PTH
FMAT,2
METRIC
; #@! TA.AperFunction,Plated,PTH,ViaDrill
T1C0.400
; #@! TA.AperFunction,Plated,PTH,ComponentDrill
T2C0.600
; #@! TA.AperFunction,Plated,PTH,ComponentDrill
T3C1.000
; #@! TA.AperFunction,Plated,PTH,ComponentDrill
T4C1.753
%
G90
G05
T1
X111.252Y-100.076
X112.268Y-106.934
X113.03Y-106.172
X114.046Y-109.22
X114.808Y-98.298
X114.808Y-99.298
X114.808Y-109.982
X115.645Y-110.565
X116.332Y-87.376
X116.586Y-101.6
X118.364Y-61.976
X118.618Y-87.376
X119.634Y-93.726
X119.634Y-99.218
X119.634Y-106.566
X119.888Y-61.976
X120.43Y-107.291
X127.762Y-110.565
X134.62Y-70.612
X137.414Y-63.246
X142.24Y-63.246
X146.558Y-111.289
X147.574Y-67.818
X152.475Y-67.818
X165.354Y-112.014
T3
X127.9Y-72.9
X127.9Y-87.4
X130.4Y-72.9
X132.9Y-72.9
X132.9Y-87.4
X147.5Y-72.9
X147.5Y-87.4
X150.0Y-72.9
X152.5Y-72.9
X152.5Y-87.4
X167.1Y-72.9
X167.1Y-87.4
X169.6Y-72.9
X172.1Y-72.9
X172.1Y-87.4
T4
X127.86Y-85.48
X127.86Y-105.08
X127.86Y-124.68
X134.21Y-82.94
X134.21Y-102.54
X134.21Y-122.14
X147.46Y-85.48
X147.46Y-105.08
X147.46Y-124.68
X153.81Y-82.94
X153.81Y-102.54
X153.81Y-122.14
X167.06Y-85.48
X167.06Y-105.08
X167.06Y-124.68
X173.41Y-82.94
X173.41Y-102.54
X173.41Y-122.14
T2
X145.68Y-60.75G85X145.68Y-61.35
G05
X145.68Y-64.68G85X145.68Y-65.78
G05
X154.32Y-60.75G85X154.32Y-61.35
G05
X154.32Y-64.68G85X154.32Y-65.78
G05
T0
M30
