G04 #@! TF.GenerationSoftware,KiCad,Pcbnew,(6.0.1)*
G04 #@! TF.CreationDate,2022-06-28T21:47:16+02:00*
G04 #@! TF.ProjectId,RecyclingPad_embedded,52656379-636c-4696-9e67-5061645f656d,rev?*
G04 #@! TF.SameCoordinates,Original*
G04 #@! TF.FileFunction,Legend,Bot*
G04 #@! TF.FilePolarity,Positive*
%FSLAX46Y46*%
G04 Gerber Fmt 4.6, Leading zero omitted, Abs format (unit mm)*
G04 Created by KiCad (PCBNEW (6.0.1)) date 2022-06-28 21:47:16*
%MOMM*%
%LPD*%
G01*
G04 APERTURE LIST*
G04 Aperture macros list*
%AMRoundRect*
0 Rectangle with rounded corners*
0 $1 Rounding radius*
0 $2 $3 $4 $5 $6 $7 $8 $9 X,Y pos of 4 corners*
0 Add a 4 corners polygon primitive as box body*
4,1,4,$2,$3,$4,$5,$6,$7,$8,$9,$2,$3,0*
0 Add four circle primitives for the rounded corners*
1,1,$1+$1,$2,$3*
1,1,$1+$1,$4,$5*
1,1,$1+$1,$6,$7*
1,1,$1+$1,$8,$9*
0 Add four rect primitives between the rounded corners*
20,1,$1+$1,$2,$3,$4,$5,0*
20,1,$1+$1,$4,$5,$6,$7,0*
20,1,$1+$1,$6,$7,$8,$9,0*
20,1,$1+$1,$8,$9,$2,$3,0*%
G04 Aperture macros list end*
%ADD10C,0.463020*%
%ADD11C,1.504817*%
%ADD12C,0.150000*%
%ADD13C,0.120000*%
%ADD14R,0.500000X0.500000*%
%ADD15C,4.089400*%
%ADD16O,2.327000X3.127000*%
%ADD17C,1.627000*%
%ADD18C,2.413000*%
%ADD19C,1.706881*%
%ADD20C,3.352800*%
%ADD21C,2.700000*%
%ADD22C,0.650000*%
%ADD23R,0.600000X1.450000*%
%ADD24R,0.300000X1.450000*%
%ADD25O,1.000000X1.600000*%
%ADD26O,1.000000X2.100000*%
%ADD27RoundRect,0.150000X0.512500X0.150000X-0.512500X0.150000X-0.512500X-0.150000X0.512500X-0.150000X0*%
%ADD28RoundRect,0.250000X-0.262500X-0.450000X0.262500X-0.450000X0.262500X0.450000X-0.262500X0.450000X0*%
%ADD29R,1.400000X1.200000*%
%ADD30RoundRect,0.250000X0.250000X0.475000X-0.250000X0.475000X-0.250000X-0.475000X0.250000X-0.475000X0*%
%ADD31RoundRect,0.250000X0.262500X0.450000X-0.262500X0.450000X-0.262500X-0.450000X0.262500X-0.450000X0*%
%ADD32RoundRect,0.250000X0.450000X-0.262500X0.450000X0.262500X-0.450000X0.262500X-0.450000X-0.262500X0*%
%ADD33RoundRect,0.250000X0.475000X-0.250000X0.475000X0.250000X-0.475000X0.250000X-0.475000X-0.250000X0*%
%ADD34RoundRect,0.250000X-0.375000X-0.625000X0.375000X-0.625000X0.375000X0.625000X-0.375000X0.625000X0*%
%ADD35RoundRect,0.250000X-0.450000X0.262500X-0.450000X-0.262500X0.450000X-0.262500X0.450000X0.262500X0*%
%ADD36R,1.700000X1.000000*%
%ADD37RoundRect,0.250000X-0.250000X-0.475000X0.250000X-0.475000X0.250000X0.475000X-0.250000X0.475000X0*%
%ADD38R,1.600000X0.550000*%
%ADD39R,0.550000X1.600000*%
G04 APERTURE END LIST*
D10*
X124513936Y-118313620D02*
X124607806Y-117996659D01*
X185789146Y-104106533D02*
X185759845Y-104488798D01*
X124842221Y-117373057D02*
X124982768Y-117066416D01*
X131585954Y-128512479D02*
X131412669Y-128489419D01*
X172349143Y-126586157D02*
X172260866Y-126661424D01*
D11*
X147118827Y-128548291D02*
X147118827Y-128548291D01*
D10*
X185007798Y-107048274D02*
X184822227Y-107397273D01*
X183242048Y-109570224D02*
X183334290Y-109483407D01*
D11*
X171684029Y-127094173D02*
X171484718Y-127220670D01*
X183512731Y-109310240D02*
X173233657Y-125608571D01*
X124607813Y-117996651D02*
X124717241Y-117683130D01*
X179460434Y-111705398D02*
X179132272Y-111766702D01*
D10*
X146968261Y-68470077D02*
X147167668Y-68744090D01*
X173129101Y-125758493D02*
X173072698Y-125833702D01*
X130327404Y-128248505D02*
X130138947Y-128191262D01*
X140937511Y-104888390D02*
X134339463Y-100883265D01*
X124460520Y-121816007D02*
X124430805Y-121672432D01*
X182851377Y-109917491D02*
X182952301Y-109830674D01*
X115061858Y-103069549D02*
X115070259Y-102841572D01*
X170455071Y-127708951D02*
X170242719Y-127777953D01*
D11*
X132419752Y-128554531D02*
X132257347Y-128555887D01*
X177400388Y-86876883D02*
X185017078Y-100188737D01*
X115124097Y-104008190D02*
X115124097Y-104008190D01*
D10*
X185221490Y-100665650D02*
X185311541Y-100906579D01*
X176335424Y-72754277D02*
X176335424Y-72754277D01*
X147095676Y-111208161D02*
X147095676Y-111208161D01*
X184392484Y-108082776D02*
X184392484Y-108082776D01*
D11*
X173233657Y-125608571D02*
X173183065Y-125683758D01*
X141631559Y-90881541D02*
X141631559Y-90881541D01*
X135242347Y-67568451D02*
X135552331Y-67302912D01*
X185221010Y-100666117D02*
X185311060Y-100907046D01*
X172170168Y-126737160D02*
X172076114Y-126812430D01*
D10*
X126444476Y-82524013D02*
X133899112Y-69096409D01*
D11*
X135552331Y-67302912D02*
X135868836Y-67056191D01*
X165158420Y-67447387D02*
X165318285Y-67599492D01*
X185710530Y-104867376D02*
X185642162Y-105241331D01*
X134871901Y-67924397D02*
X135054238Y-67744254D01*
D10*
X163394006Y-66387749D02*
X163618980Y-66478001D01*
X183525403Y-109286711D02*
X183521864Y-109292500D01*
X183545758Y-109257657D02*
X183541323Y-109263474D01*
X179783716Y-111628539D02*
X180102118Y-111536125D01*
X183570797Y-109228672D02*
X183565398Y-109234447D01*
D11*
X185642166Y-102133421D02*
X185642166Y-102133421D01*
D10*
X124435624Y-118634021D02*
X124513936Y-118313620D01*
D11*
X171484718Y-127220670D02*
X171283230Y-127337585D01*
X126818967Y-126263327D02*
X126557781Y-125989296D01*
D10*
X164991314Y-67302157D02*
X165158420Y-67447387D01*
D11*
X124708628Y-122760535D02*
X124668887Y-122632157D01*
D10*
X139780353Y-65583961D02*
X140174999Y-65562987D01*
D11*
X164446574Y-66907712D02*
X164635390Y-67032320D01*
D10*
X170873263Y-127542199D02*
X170665253Y-127630366D01*
D11*
X115508940Y-105438881D02*
X115587118Y-105605609D01*
X169372101Y-127958603D02*
X169148917Y-127979693D01*
D10*
X184617123Y-107742107D02*
X184392484Y-108082776D01*
X120217331Y-93058206D02*
X120217331Y-93058206D01*
D11*
X183823248Y-108929766D02*
X183705736Y-109073353D01*
D10*
X185642646Y-102132953D02*
X185711013Y-102535966D01*
D11*
X124830076Y-123109183D02*
X124767894Y-122937379D01*
X163394006Y-66387749D02*
X163618980Y-66478001D01*
X185710533Y-102536433D02*
X185759366Y-102935299D01*
X183545900Y-109258125D02*
X183541492Y-109263941D01*
X151424934Y-119820347D02*
X159967666Y-104008190D01*
X124325678Y-119285135D02*
X124372876Y-118957854D01*
D10*
X115063042Y-103300245D02*
X115061858Y-103069549D01*
D11*
X126309620Y-125700440D02*
X126074486Y-125396760D01*
D10*
X183555193Y-109246036D02*
X183550380Y-109251844D01*
X182952104Y-109830674D02*
X182851242Y-109917491D01*
X143437822Y-65994182D02*
X143771249Y-66113013D01*
D11*
X145816585Y-67279066D02*
X146067539Y-67493393D01*
D10*
X185642646Y-102132953D02*
X185642646Y-102132953D01*
X146968261Y-68470077D02*
X146758544Y-68208000D01*
D11*
X179132272Y-111766702D02*
X178799229Y-111812452D01*
X183565312Y-109234915D02*
X183560194Y-109240704D01*
D10*
X159967666Y-104008190D02*
X159782922Y-111717485D01*
D11*
X131757065Y-128530656D02*
X131585954Y-128512479D01*
D10*
X156841800Y-84723363D02*
X156841800Y-84723363D01*
D11*
X184038776Y-108644711D02*
X183934260Y-108786883D01*
D10*
X131491888Y-89608708D02*
X140937511Y-104888390D01*
X169811509Y-127887209D02*
X169592654Y-127927464D01*
X124325671Y-119285143D02*
X124372870Y-118957862D01*
D11*
X183525656Y-109287178D02*
X183522151Y-109292967D01*
X172076114Y-126812430D02*
X172076114Y-126812430D01*
X125310551Y-116463448D02*
X128366489Y-111208161D01*
X171881161Y-126958093D02*
X171684029Y-127094173D01*
X170665720Y-127630834D02*
X170455538Y-127709418D01*
X138266827Y-65855949D02*
X138635447Y-65759737D01*
D10*
X181028057Y-111165545D02*
X181326949Y-111010904D01*
D11*
X170524049Y-76134327D02*
X170524049Y-76134327D01*
D10*
X170242719Y-127777953D02*
X170028198Y-127837372D01*
X115094162Y-103769798D02*
X115073810Y-103533661D01*
X165616291Y-67924332D02*
X165754429Y-68097068D01*
X135242347Y-67568451D02*
X135242347Y-67568451D01*
X115115820Y-102393766D02*
X115152980Y-102173935D01*
D11*
X134359530Y-68490870D02*
X134524547Y-68297705D01*
X185642166Y-102133421D02*
X185710533Y-102536433D01*
D10*
X124292428Y-120628668D02*
X124277408Y-120287627D01*
X132419752Y-128554531D02*
X132257347Y-128555887D01*
X172075647Y-126811963D02*
X172075647Y-126811963D01*
X126309620Y-125700440D02*
X126074486Y-125396760D01*
X185789147Y-103329549D02*
X185798913Y-103720117D01*
D11*
X125852380Y-125078259D02*
X125643303Y-124744939D01*
D10*
X147356765Y-69030042D02*
X147535553Y-69327930D01*
X166125364Y-68656546D02*
X166125364Y-68656546D01*
D11*
X127093176Y-126522530D02*
X126818967Y-126263327D01*
X185642162Y-105241331D02*
X185554261Y-105611131D01*
D10*
X156841800Y-84723363D02*
X150776214Y-74421151D01*
X171751541Y-111809623D02*
X177770811Y-111856387D01*
X179132272Y-111766702D02*
X178799229Y-111812452D01*
X124708628Y-122761002D02*
X115587118Y-105606077D01*
X169148450Y-127979225D02*
X168923104Y-127990732D01*
X124323008Y-120973613D02*
X124369134Y-121321536D01*
X168093193Y-87663543D02*
X168093193Y-87663543D01*
D11*
X146758544Y-68208000D02*
X146968261Y-68470077D01*
D10*
X183560198Y-109240236D02*
X183555193Y-109246036D01*
X124325678Y-119285602D02*
X124294035Y-119616323D01*
D11*
X185798432Y-103720584D02*
X185788665Y-104107000D01*
X130879791Y-128390937D02*
X130697828Y-128348343D01*
X115256063Y-101741945D02*
X115199726Y-101956351D01*
D10*
X115124097Y-104008657D02*
X115094162Y-103769798D01*
X146308183Y-67719658D02*
X146067539Y-67493393D01*
D11*
X156841800Y-84723363D02*
X156841800Y-84723363D01*
X124593705Y-122368802D02*
X124558262Y-122233847D01*
X170873730Y-127542667D02*
X170665720Y-127630834D01*
D10*
X177400869Y-86876416D02*
X185017559Y-100188269D01*
X124277941Y-119950026D02*
X124294029Y-119615864D01*
D11*
X169148917Y-127979693D02*
X168923571Y-127991200D01*
D10*
X146067539Y-67493393D02*
X146308183Y-67719658D01*
X128659534Y-127596064D02*
X128320225Y-127411028D01*
D11*
X171751541Y-111810091D02*
X171751541Y-111810091D01*
D10*
X115472030Y-105352267D02*
X115436573Y-105262976D01*
X142326568Y-65808971D02*
X142326568Y-65808971D01*
X161750284Y-66017327D02*
X163394006Y-66387749D01*
X173013389Y-125908919D02*
X172951178Y-125984145D01*
D11*
X182748281Y-110004308D02*
X182473763Y-110236748D01*
D10*
X132579977Y-128548291D02*
X132579977Y-128548291D01*
X164446574Y-66907712D02*
X164635390Y-67032320D01*
X183576396Y-109222914D02*
X183570797Y-109228672D01*
D11*
X130327404Y-128248505D02*
X130138947Y-128191262D01*
X164047240Y-66679114D02*
X164250523Y-66789977D01*
X128366489Y-111208161D02*
X134339456Y-100882798D01*
D10*
X150127988Y-88543283D02*
X150127988Y-88543283D01*
X130513698Y-128300866D02*
X130327404Y-128248505D01*
D11*
X120217331Y-93057746D02*
X115795480Y-100512382D01*
X131926002Y-128543950D02*
X131757065Y-128530656D01*
X173129565Y-125758956D02*
X173073160Y-125834164D01*
X170028665Y-127837840D02*
X169811976Y-127887676D01*
D10*
X142326555Y-65808971D02*
X161750284Y-66017327D01*
X147167668Y-68744090D02*
X147356765Y-69030042D01*
X144709676Y-66541127D02*
X144407176Y-66386485D01*
X184228828Y-108362056D02*
X184137284Y-108502789D01*
X180102118Y-111536125D02*
X179783716Y-111628539D01*
D11*
X173013851Y-125909381D02*
X172951639Y-125984606D01*
X183541492Y-109263941D02*
X183537263Y-109269757D01*
X140576149Y-65560822D02*
X140983801Y-65577464D01*
X140937498Y-104887923D02*
X131491881Y-89608241D01*
D10*
X185393649Y-101148978D02*
X185467813Y-101392831D01*
D11*
X115795480Y-100512382D02*
X115681598Y-100710545D01*
D10*
X124372870Y-118957862D02*
X124435624Y-118634021D01*
X183147636Y-109657041D02*
X183242048Y-109570224D01*
X168695596Y-127992657D02*
X168695596Y-127992657D01*
X132579977Y-128548291D02*
X132419752Y-128554531D01*
X146538518Y-67957860D02*
X146758544Y-68208000D01*
X170524049Y-76134327D02*
X170524049Y-76134327D01*
X143437822Y-65994182D02*
X142326568Y-65808971D01*
X151424934Y-119820347D02*
X159967666Y-104008190D01*
X185759845Y-104488798D02*
X185711011Y-104866909D01*
D11*
X169593121Y-127927931D02*
X169372101Y-127958603D01*
X115577309Y-100911413D02*
X115482611Y-101114985D01*
X124524251Y-122096722D02*
X124491673Y-121957437D01*
D10*
X172818052Y-126134617D02*
X172747139Y-126209863D01*
D11*
X159782922Y-111717485D02*
X159782922Y-111717485D01*
X176335424Y-72754277D02*
X176335424Y-72754277D01*
D10*
X134046812Y-68890222D02*
X134200285Y-68688376D01*
X128366489Y-111208161D02*
X147095676Y-111208161D01*
D11*
X173233657Y-125608571D02*
X173233657Y-125608571D01*
X125310551Y-116463448D02*
X125310551Y-116463448D01*
X168093193Y-87663543D02*
X168093193Y-87663543D01*
D10*
X144094367Y-66243780D02*
X144407176Y-66386485D01*
X150127988Y-88543283D02*
X156841800Y-84723363D01*
X185017559Y-100188269D02*
X185123496Y-100426208D01*
X128366489Y-111208161D02*
X125310551Y-116463909D01*
D11*
X185017078Y-100188737D02*
X185017078Y-100188737D01*
X182748281Y-110004308D02*
X182748281Y-110004308D01*
X166125364Y-68656546D02*
X166125364Y-68656546D01*
X147118827Y-128548291D02*
X132579977Y-128548291D01*
X115436573Y-105262706D02*
X115508940Y-105438881D01*
D10*
X183334224Y-109483407D02*
X183241925Y-109570224D01*
D11*
X125447256Y-124396801D02*
X125264242Y-124033848D01*
X115152977Y-102173468D02*
X115115817Y-102393299D01*
D10*
X182952301Y-109830674D02*
X183051054Y-109743857D01*
X126444476Y-82524013D02*
X126444476Y-82524013D01*
D11*
X125184611Y-123892402D02*
X125107887Y-123745882D01*
X128366489Y-111208161D02*
X128366489Y-111208161D01*
D10*
X124430812Y-121672900D02*
X124460527Y-121816448D01*
X172673330Y-126285114D02*
X172596624Y-126360369D01*
X135242347Y-67568451D02*
X135552331Y-67302912D01*
X183706217Y-109072886D02*
X183582199Y-109217174D01*
X124277415Y-120288088D02*
X124292435Y-120629130D01*
X140174999Y-65562987D02*
X140576149Y-65560822D01*
D11*
X115397505Y-101321263D02*
X115321989Y-101530250D01*
X124895166Y-123275941D02*
X124830076Y-123109183D01*
X170243186Y-127778420D02*
X170028665Y-127837840D01*
D10*
X181326949Y-111010904D02*
X181620965Y-110840705D01*
X130879791Y-128390937D02*
X130697828Y-128348343D01*
D11*
X124558262Y-122233847D02*
X124524251Y-122096722D01*
D10*
X139010575Y-65682335D02*
X139392211Y-65623743D01*
X125138876Y-116763215D02*
X125310545Y-116463455D01*
D11*
X146308183Y-67719658D02*
X146538518Y-67957860D01*
X114429568Y-89608241D02*
X114429568Y-89608241D01*
X138635447Y-65759737D02*
X139010575Y-65682335D01*
D10*
X124708622Y-122760535D02*
X124708622Y-122760535D01*
D11*
X134524547Y-68297705D02*
X134695338Y-68108881D01*
D10*
X124593705Y-122369061D02*
X124630580Y-122501844D01*
X171880694Y-126957625D02*
X171683561Y-127093705D01*
X134871901Y-67924397D02*
X135054238Y-67744254D01*
X183512264Y-109309773D02*
X183512264Y-109309773D01*
D11*
X132579977Y-128548291D02*
X132419752Y-128554531D01*
D10*
X138635447Y-65759737D02*
X139010575Y-65682335D01*
X140983801Y-65577464D02*
X142326555Y-65808971D01*
D11*
X124294035Y-119615856D02*
X124325678Y-119285135D01*
X147535553Y-69327930D02*
X150776695Y-74421164D01*
X115587118Y-105605609D02*
X124708628Y-122760535D01*
X147095676Y-111208161D02*
X147118827Y-128548291D01*
D10*
X125852380Y-125078259D02*
X125643303Y-124744939D01*
X164635390Y-67032320D02*
X164816971Y-67163802D01*
D11*
X115115817Y-102393299D02*
X115088243Y-102615844D01*
D10*
X178118499Y-111857294D02*
X177770811Y-111856387D01*
D11*
X124630580Y-122501576D02*
X124593705Y-122368802D01*
D10*
X115161711Y-104241151D02*
X115124097Y-104008657D01*
D11*
X124277415Y-120287620D02*
X124277948Y-119950018D01*
D10*
X162398990Y-95534905D02*
X177400869Y-86876416D01*
X183565398Y-109234447D02*
X183560198Y-109240236D01*
D11*
X159967666Y-104008190D02*
X159782922Y-111717485D01*
D10*
X172951178Y-125984145D02*
X172886065Y-126059378D01*
X177770811Y-111856387D02*
X177770811Y-111856387D01*
X185123496Y-100426208D02*
X185221490Y-100665650D01*
X124767894Y-122937379D02*
X124708622Y-122760535D01*
D11*
X172886526Y-126059839D02*
X172818513Y-126135079D01*
X162398510Y-95535372D02*
X162398510Y-95535372D01*
X184821747Y-107397736D02*
X184616642Y-107742569D01*
X150776214Y-74421151D02*
X150776214Y-74421151D01*
D10*
X131757065Y-128530656D02*
X131585954Y-128512479D01*
D11*
X115587118Y-105605609D02*
X115587118Y-105605609D01*
X127680661Y-126996446D02*
X127380408Y-126766904D01*
X141631559Y-90881541D02*
X126444476Y-82524013D01*
X115795480Y-100512382D02*
X115795480Y-100512382D01*
X131412669Y-128489419D02*
X131237213Y-128461475D01*
X177770811Y-111856387D02*
X177770811Y-111856387D01*
X163394006Y-66387749D02*
X163394006Y-66387749D01*
X140983801Y-65577464D02*
X140983801Y-65577464D01*
D10*
X183512264Y-109309773D02*
X183512264Y-109309773D01*
D11*
X134695338Y-68108881D02*
X134871901Y-67924397D01*
D10*
X144094367Y-66243780D02*
X143771249Y-66113013D01*
X182473763Y-110236748D02*
X182748281Y-110004308D01*
D11*
X115061855Y-103069082D02*
X115063040Y-103299778D01*
D10*
X131237213Y-128461475D02*
X131059587Y-128428647D01*
D11*
X137549117Y-66104809D02*
X137904716Y-65970973D01*
D10*
X166125364Y-68656546D02*
X170524049Y-76134327D01*
D11*
X131491881Y-89608241D02*
X114429568Y-89608241D01*
X131237213Y-128461475D02*
X131059587Y-128428647D01*
X177770811Y-111856387D02*
X171751541Y-111809623D01*
D10*
X185467813Y-101392831D02*
X185534034Y-101638123D01*
X147535553Y-69327930D02*
X147535553Y-69327930D01*
X135054238Y-67744254D02*
X135242347Y-67568451D01*
D11*
X135868836Y-67056191D02*
X136191859Y-66828285D01*
D10*
X182748281Y-110004308D02*
X182851377Y-109917491D01*
D11*
X115063040Y-103299778D02*
X115073808Y-103533194D01*
X145001867Y-66707706D02*
X145283749Y-66886222D01*
D10*
X184313892Y-108222050D02*
X184228828Y-108362056D01*
D11*
X115088243Y-102615844D02*
X115070256Y-102841104D01*
D10*
X124294035Y-119616323D02*
X124277948Y-119950485D01*
X165885321Y-68276682D02*
X166008966Y-68463174D01*
X124668881Y-122632157D02*
X124630573Y-122501578D01*
D11*
X125107887Y-123745882D02*
X125034072Y-123594296D01*
D10*
X139392211Y-65623743D02*
X139780353Y-65583961D01*
X147118827Y-128548291D02*
X132579977Y-128548291D01*
X164816971Y-67163802D02*
X164991314Y-67302157D01*
X180415643Y-111428155D02*
X180102118Y-111536125D01*
X141631559Y-90881541D02*
X141631559Y-90881541D01*
X115370011Y-105077363D02*
X115338905Y-104981040D01*
X124513943Y-118314077D02*
X124435631Y-118634479D01*
D11*
X128366489Y-111208161D02*
X147095676Y-111208161D01*
X129755546Y-128062125D02*
X129377195Y-127921614D01*
D10*
X181910106Y-110654946D02*
X181620965Y-110840705D01*
D11*
X120217331Y-93057746D02*
X120217331Y-93057746D01*
D10*
X177400869Y-86876416D02*
X177400869Y-86876416D01*
X124630573Y-122501578D02*
X124593698Y-122368806D01*
D11*
X185017078Y-100188737D02*
X185123015Y-100426675D01*
X185173354Y-106695577D02*
X185007317Y-107048738D01*
X124435631Y-118634012D02*
X124513943Y-118313611D01*
D10*
X124717234Y-117683138D02*
X124842221Y-117373057D01*
X172169701Y-126736693D02*
X172075647Y-126811963D01*
X150776695Y-74421164D02*
X147535553Y-69327930D01*
X140937511Y-104888390D02*
X140937511Y-104888390D01*
X144407176Y-66386485D02*
X144094367Y-66243780D01*
X145555321Y-67076675D02*
X145283749Y-66886222D01*
D11*
X172517488Y-126436093D02*
X172434994Y-126511357D01*
X124292435Y-120628663D02*
X124277415Y-120287620D01*
X183581718Y-109217641D02*
X183581718Y-109217641D01*
X162398510Y-95535372D02*
X177400388Y-86876883D01*
D10*
X142326568Y-65808971D02*
X143437822Y-65994182D01*
X178461305Y-111842649D02*
X178799229Y-111812452D01*
X128366489Y-111208161D02*
X128366489Y-111208161D01*
D11*
X135242347Y-67568451D02*
X135242347Y-67568451D01*
D10*
X173233190Y-125608103D02*
X173182599Y-125683293D01*
X169371634Y-127958136D02*
X169148450Y-127979225D01*
X172075647Y-126811963D02*
X171880694Y-126957625D01*
X179783716Y-111628539D02*
X179460434Y-111705398D01*
D11*
X178799229Y-111812452D02*
X178461305Y-111842649D01*
D10*
X129755546Y-128062125D02*
X129377195Y-127921614D01*
D11*
X124767894Y-122937379D02*
X124708622Y-122760535D01*
X185123015Y-100426675D02*
X185221010Y-100666117D01*
X115161711Y-104240702D02*
X115205105Y-104463866D01*
D10*
X145816585Y-67279066D02*
X145555321Y-67076675D01*
X131059587Y-128428647D02*
X130879791Y-128390937D01*
X134359530Y-68490870D02*
X134524547Y-68297705D01*
X172517023Y-126435629D02*
X172434529Y-126510891D01*
D11*
X145555321Y-67076675D02*
X145816585Y-67279066D01*
D10*
X126074486Y-125396760D02*
X125852380Y-125078259D01*
X115199728Y-101956818D02*
X115256064Y-101742412D01*
X115254282Y-104678009D02*
X115228970Y-104572310D01*
X114429568Y-89608708D02*
X131491888Y-89608708D01*
X124708622Y-122760535D02*
X124668881Y-122632157D01*
X180415643Y-111428155D02*
X180724289Y-111304629D01*
D11*
X136191859Y-66828285D02*
X136521401Y-66619195D01*
D10*
X129948327Y-128129135D02*
X129755546Y-128062125D01*
D11*
X140937498Y-104887923D02*
X140937498Y-104887923D01*
D10*
X124369134Y-121321536D02*
X124430812Y-121672900D01*
X141631559Y-90881541D02*
X126444476Y-82524013D01*
X178461305Y-111842649D02*
X178118499Y-111857294D01*
X185798913Y-103720117D02*
X185789146Y-104106533D01*
D11*
X172747602Y-126210325D02*
X172673793Y-126285577D01*
D10*
X137549117Y-66104809D02*
X137904716Y-65970973D01*
X140983801Y-65577464D02*
X140983801Y-65577464D01*
D11*
X128320225Y-127411028D02*
X127993934Y-127211155D01*
X176335424Y-72754277D02*
X168093193Y-87663543D01*
D10*
X163394006Y-66387749D02*
X163394006Y-66387749D01*
D11*
X173073160Y-125834164D02*
X173013851Y-125909381D01*
D10*
X115577309Y-100911880D02*
X115681598Y-100711013D01*
X124430812Y-121672900D02*
X124430812Y-121672900D01*
D11*
X183512264Y-109309773D02*
X183424342Y-109396590D01*
X124491673Y-121957437D02*
X124460527Y-121816004D01*
D10*
X147535553Y-69327930D02*
X147535553Y-69327930D01*
X147095676Y-111208161D02*
X147118827Y-128548291D01*
D11*
X182194372Y-110453627D02*
X181910106Y-110654946D01*
X161750284Y-66017327D02*
X161750284Y-66017327D01*
X183705736Y-109073353D02*
X183581718Y-109217641D01*
D10*
X146538518Y-67957860D02*
X146308183Y-67719658D01*
D11*
X172349609Y-126586623D02*
X172261333Y-126661891D01*
D10*
X147535553Y-69327930D02*
X147356765Y-69030042D01*
X135868836Y-67056191D02*
X136191859Y-66828285D01*
X171751541Y-111809623D02*
X171751541Y-111809623D01*
X172747139Y-126209863D02*
X172673330Y-126285114D01*
D11*
X147167668Y-68744090D02*
X147356765Y-69030042D01*
X144407176Y-66386485D02*
X144709676Y-66541127D01*
D10*
X142326568Y-65808971D02*
X142326568Y-65808971D01*
D11*
X147535553Y-69327930D02*
X147535553Y-69327930D01*
X130697828Y-128348343D02*
X130513698Y-128300866D01*
X127993934Y-127211155D02*
X127680661Y-126996446D01*
X129755546Y-128062125D02*
X129755546Y-128062125D01*
X181910106Y-110654946D02*
X181620965Y-110840705D01*
D10*
X143437822Y-65994182D02*
X143437822Y-65994182D01*
D11*
X185533553Y-101638590D02*
X185591831Y-101885303D01*
D10*
X165158420Y-67447387D02*
X165318285Y-67599492D01*
X183512264Y-109309773D02*
X183512264Y-109309773D01*
X130138947Y-128191262D02*
X129948327Y-128129135D01*
X179460434Y-111705398D02*
X179783716Y-111628539D01*
X165754429Y-68097068D02*
X165885321Y-68276682D01*
X133899112Y-69096409D02*
X134046812Y-68890222D01*
D11*
X185759366Y-102935299D02*
X185788666Y-103330016D01*
X143437822Y-65994182D02*
X143437822Y-65994182D01*
X179783716Y-111628539D02*
X179460434Y-111705398D01*
D10*
X146308183Y-67719658D02*
X146538518Y-67957860D01*
D11*
X166008966Y-68463174D02*
X166125364Y-68656546D01*
D10*
X177770811Y-111856387D02*
X178118499Y-111857294D01*
X131412669Y-128489419D02*
X131237213Y-128461475D01*
X131926002Y-128543950D02*
X131757065Y-128530656D01*
X165470909Y-67758474D02*
X165616291Y-67924332D01*
X115321990Y-101530717D02*
X115397506Y-101321731D01*
D11*
X126557781Y-125989296D02*
X126309620Y-125700440D01*
D10*
X125643303Y-124744939D02*
X125447256Y-124396801D01*
D11*
X134339456Y-100882798D02*
X134339456Y-100882798D01*
X128659534Y-127596064D02*
X128320225Y-127411028D01*
D10*
X115073810Y-103533661D02*
X115063042Y-103300245D01*
X137200031Y-66257457D02*
X137549117Y-66104809D01*
X183521864Y-109292500D02*
X183518497Y-109298275D01*
D11*
X114429568Y-89608241D02*
X120217331Y-93057746D01*
X180415643Y-111428155D02*
X180102118Y-111536125D01*
D10*
X115256064Y-101742412D02*
X115321990Y-101530717D01*
X185017559Y-100188269D02*
X185017559Y-100188269D01*
X125310545Y-116463455D02*
X128366489Y-111208161D01*
X182194372Y-110453627D02*
X182473763Y-110236748D01*
X164250523Y-66789977D02*
X164446574Y-66907712D01*
X185711013Y-102535966D02*
X185759847Y-102934831D01*
X124558262Y-122234134D02*
X124593705Y-122369061D01*
X159782922Y-111717485D02*
X171752021Y-111809623D01*
D11*
X150127988Y-88543283D02*
X150127988Y-88543283D01*
X185788666Y-103330016D02*
X185798432Y-103720584D01*
X172673793Y-126285577D02*
X172597087Y-126360833D01*
D10*
X146758544Y-68208000D02*
X146968261Y-68470077D01*
X182194372Y-110453627D02*
X181910106Y-110654946D01*
D11*
X178118499Y-111857294D02*
X177770811Y-111856387D01*
X144709676Y-66541127D02*
X145001867Y-66707706D01*
X124668887Y-122632157D02*
X124630580Y-122501576D01*
X171079567Y-127444917D02*
X170873730Y-127542667D01*
D10*
X134339463Y-100883265D02*
X128366489Y-111208161D01*
D11*
X169811976Y-127887676D02*
X169593121Y-127927931D01*
X147356765Y-69030042D02*
X147535553Y-69327930D01*
X129011857Y-127766260D02*
X128659534Y-127596064D01*
X161750284Y-66017327D02*
X163394006Y-66387749D01*
D10*
X115795480Y-100512849D02*
X115795480Y-100512849D01*
X128366489Y-111208161D02*
X128366489Y-111208161D01*
D11*
X144094367Y-66243780D02*
X144407176Y-66386485D01*
D10*
X183550380Y-109251844D02*
X183545758Y-109257657D01*
X145001867Y-66707706D02*
X145283749Y-66886222D01*
D11*
X124708628Y-122760535D02*
X124708628Y-122760535D01*
X136857458Y-66428919D02*
X137200031Y-66257457D01*
D10*
X132257347Y-128555887D02*
X132092763Y-128552360D01*
D11*
X142326555Y-65808971D02*
X161750284Y-66017327D01*
X172951639Y-125984606D02*
X172886526Y-126059839D01*
D10*
X136191859Y-66828285D02*
X136521401Y-66619195D01*
D11*
X185759365Y-104489265D02*
X185710530Y-104867376D01*
X183581718Y-109217641D02*
X183576075Y-109223381D01*
X168093193Y-87663543D02*
X150127988Y-88543283D01*
D10*
X150776695Y-74421164D02*
X150776695Y-74421164D01*
X185554742Y-105610665D02*
X185447306Y-105976307D01*
X180724289Y-111304629D02*
X180415643Y-111428155D01*
X115281042Y-104781363D02*
X115254282Y-104678009D01*
X145555321Y-67076675D02*
X145816585Y-67279066D01*
D11*
X181620965Y-110840705D02*
X181326949Y-111010904D01*
D10*
X181910106Y-110654946D02*
X182194372Y-110453627D01*
X125138883Y-116763670D02*
X124982775Y-117066872D01*
D11*
X172434994Y-126511357D02*
X172349609Y-126586623D01*
D10*
X150776214Y-74421151D02*
X150776214Y-74421151D01*
D11*
X168696064Y-127993125D02*
X168696064Y-127993125D01*
X165318285Y-67599492D02*
X165470909Y-67758474D01*
X183241925Y-109570224D02*
X183147461Y-109657041D01*
X124842228Y-117373049D02*
X124982775Y-117066409D01*
X171751541Y-111810091D02*
X171751541Y-111810091D01*
D10*
X124524245Y-122096728D02*
X124491666Y-121957443D01*
D11*
X139780353Y-65583961D02*
X140174999Y-65562987D01*
X185311060Y-100907046D02*
X185393168Y-101149445D01*
D10*
X124593698Y-122368806D02*
X124558255Y-122233852D01*
D11*
X185554261Y-105611131D02*
X185446826Y-105976772D01*
D10*
X159967666Y-104008190D02*
X159967666Y-104008190D01*
X181620965Y-110840705D02*
X181910106Y-110654946D01*
X185642643Y-105240865D02*
X185554742Y-105610665D01*
D11*
X170455538Y-127709418D02*
X170243186Y-127778420D01*
D10*
X183537073Y-109269290D02*
X183533005Y-109275103D01*
D11*
X124963165Y-123437646D02*
X124895166Y-123275941D01*
X165616291Y-67924332D02*
X165754429Y-68097068D01*
X165470909Y-67758474D02*
X165616291Y-67924332D01*
X135242347Y-67568451D02*
X135242347Y-67568451D01*
X124430812Y-121672432D02*
X124430812Y-121672432D01*
X164816971Y-67163802D02*
X164991314Y-67302157D01*
X124372876Y-118957854D02*
X124435631Y-118634012D01*
D10*
X179132272Y-111766702D02*
X179460434Y-111705398D01*
D11*
X130138947Y-128191262D02*
X129948327Y-128129135D01*
X166125364Y-68656546D02*
X170524049Y-76134327D01*
D10*
X115228970Y-104572310D02*
X115205105Y-104464268D01*
D11*
X131585954Y-128512479D02*
X131412669Y-128489419D01*
D10*
X138266827Y-65855949D02*
X138635447Y-65759737D01*
X115088246Y-102616311D02*
X115115820Y-102393766D01*
X146758544Y-68208000D02*
X146538518Y-67957860D01*
X129011857Y-127766260D02*
X128659534Y-127596064D01*
D11*
X163836725Y-66575122D02*
X164047240Y-66679114D01*
D10*
X159921350Y-134590712D02*
X159921350Y-134590712D01*
D11*
X173183065Y-125683758D02*
X173129565Y-125758956D01*
X164250523Y-66789977D02*
X164446574Y-66907712D01*
D10*
X124982775Y-117066872D02*
X124842228Y-117373513D01*
X145283749Y-66886222D02*
X145555321Y-67076675D01*
X115309249Y-104882374D02*
X115281042Y-104781363D01*
X171079100Y-127444450D02*
X170873263Y-127542199D01*
D11*
X125138883Y-116763209D02*
X125310551Y-116463448D01*
X159921817Y-134591179D02*
X151424934Y-119820347D01*
D10*
X124277408Y-120287627D02*
X124277941Y-119950026D01*
X183512264Y-109309773D02*
X173233190Y-125608103D01*
X161750284Y-66017327D02*
X161750284Y-66017327D01*
X183823729Y-108929298D02*
X183706217Y-109072886D01*
X159782922Y-111717485D02*
X159782922Y-111717485D01*
D11*
X160037574Y-127877368D02*
X159921817Y-134591179D01*
D10*
X185759847Y-102934831D02*
X185789147Y-103329549D01*
X183582199Y-109217174D02*
X183582199Y-109217174D01*
X124292435Y-120629130D02*
X124323008Y-120973613D01*
D11*
X165754429Y-68097068D02*
X165885321Y-68276682D01*
X124323008Y-120973146D02*
X124292435Y-120628663D01*
D10*
X177770811Y-111856387D02*
X171751541Y-111809623D01*
X124982768Y-117066416D02*
X125138876Y-116763215D01*
D11*
X182473763Y-110236748D02*
X182194372Y-110453627D01*
D10*
X114429568Y-89608708D02*
X114429568Y-89608708D01*
X145283749Y-66886222D02*
X145001867Y-66707706D01*
D11*
X171751541Y-111810091D02*
X162398510Y-95535372D01*
D10*
X124372876Y-118958320D02*
X124325678Y-119285602D01*
D11*
X177400388Y-86876883D02*
X177400388Y-86876883D01*
D10*
X183424342Y-109396590D02*
X183334224Y-109483407D01*
X124717241Y-117683595D02*
X124607813Y-117997116D01*
D11*
X181326949Y-111010904D02*
X181028057Y-111165545D01*
D10*
X183515297Y-109304034D02*
X183512264Y-109309773D01*
D11*
X125264242Y-124033848D02*
X125184611Y-123892402D01*
D10*
X144709676Y-66541127D02*
X145001867Y-66707706D01*
X185173834Y-106695113D02*
X185007798Y-107048274D01*
D11*
X159921817Y-134591179D02*
X159921817Y-134591179D01*
D10*
X145001867Y-66707706D02*
X144709676Y-66541127D01*
X134200285Y-68688376D02*
X134359530Y-68490870D01*
D11*
X185788665Y-104107000D02*
X185759365Y-104489265D01*
D10*
X183533005Y-109275103D02*
X183529116Y-109280911D01*
X127993934Y-127211155D02*
X127680661Y-126996446D01*
D11*
X184392004Y-108083236D02*
X184313412Y-108222512D01*
D10*
X151424934Y-119820347D02*
X151424934Y-119820347D01*
D11*
X134339456Y-100882798D02*
X140937498Y-104887923D01*
D10*
X143771249Y-66113013D02*
X143437822Y-65994182D01*
D11*
X125264242Y-124033848D02*
X125264242Y-124033848D01*
X147095676Y-111208161D02*
X147095676Y-111208161D01*
D10*
X162398990Y-95534905D02*
X162398990Y-95534905D01*
X125034072Y-123594296D02*
X124963165Y-123437646D01*
X129377195Y-127921614D02*
X129011857Y-127766260D01*
D11*
X183576075Y-109223381D02*
X183570606Y-109229140D01*
X133899112Y-69096409D02*
X133899112Y-69096409D01*
D10*
X124491673Y-121957833D02*
X124524251Y-122097060D01*
X130697828Y-128348343D02*
X130513698Y-128300866D01*
X182748281Y-110004308D02*
X182748281Y-110004308D01*
X182473763Y-110236748D02*
X182194372Y-110453627D01*
X147118827Y-128548291D02*
X147118827Y-128548291D01*
X115436573Y-105262976D02*
X115402567Y-105171341D01*
D11*
X129948327Y-128129135D02*
X129755546Y-128062125D01*
D10*
X163836725Y-66575122D02*
X164047240Y-66679114D01*
D11*
X183555252Y-109246503D02*
X183550487Y-109252311D01*
D10*
X183518497Y-109298275D02*
X183515297Y-109304034D01*
X124630580Y-122501844D02*
X124668887Y-122632490D01*
X185311541Y-100906579D02*
X185393649Y-101148978D01*
X126818967Y-126263327D02*
X126557781Y-125989296D01*
X182748281Y-110004308D02*
X182748281Y-110004308D01*
X160037107Y-127876900D02*
X160037107Y-127876900D01*
D11*
X183560194Y-109240704D02*
X183555252Y-109246503D01*
D10*
X125310551Y-116463909D02*
X125138883Y-116763670D01*
X183051054Y-109743857D02*
X183147636Y-109657041D01*
X178118499Y-111857294D02*
X178461305Y-111842649D01*
X137904716Y-65970973D02*
X138266827Y-65855949D01*
X124277948Y-119950485D02*
X124277415Y-120288088D01*
D11*
X150127988Y-88543283D02*
X156841800Y-84723363D01*
X183424342Y-109396590D02*
X183334224Y-109483407D01*
X132257347Y-128555887D02*
X132092763Y-128552360D01*
D10*
X115508940Y-105439214D02*
X115472030Y-105352267D01*
D11*
X146538518Y-67957860D02*
X146758544Y-68208000D01*
D10*
X125264242Y-124033848D02*
X125184611Y-123892402D01*
X115587118Y-105606077D02*
X115547302Y-105523817D01*
D11*
X184392004Y-108083236D02*
X184392004Y-108083236D01*
X115124097Y-104008190D02*
X115161711Y-104240702D01*
X159782922Y-111717485D02*
X171751541Y-111810091D01*
X183529344Y-109281378D02*
X183525656Y-109287178D01*
D10*
X166008966Y-68463174D02*
X166125364Y-68656546D01*
D11*
X115070256Y-102841104D02*
X115061855Y-103069082D01*
X164991314Y-67302157D02*
X165158420Y-67447387D01*
D10*
X184137284Y-108502789D02*
X184039257Y-108644245D01*
X185447306Y-105976307D02*
X185320337Y-106337790D01*
D11*
X137904716Y-65970973D02*
X138266827Y-65855949D01*
D10*
X124607806Y-117996659D02*
X124717234Y-117683138D01*
D11*
X183050848Y-109743857D02*
X182952104Y-109830674D01*
D10*
X183424362Y-109396590D02*
X183512264Y-109309773D01*
D11*
X180102118Y-111536125D02*
X179783716Y-111628539D01*
D10*
X124491666Y-121957443D02*
X124460520Y-121816007D01*
D11*
X172261333Y-126661891D02*
X172170168Y-126737160D01*
D10*
X183241925Y-109570224D02*
X183147461Y-109657041D01*
D11*
X115254282Y-104677665D02*
X115309249Y-104882082D01*
D10*
X171683561Y-127093705D02*
X171484251Y-127220203D01*
X171282763Y-127337118D02*
X171079100Y-127444450D01*
X115587118Y-105606077D02*
X115587118Y-105606077D01*
X124435631Y-118634479D02*
X124372876Y-118958320D01*
D11*
X132579977Y-128548291D02*
X132579977Y-128548291D01*
X115094161Y-103769331D02*
X115124097Y-104008190D01*
D10*
X126557781Y-125989296D02*
X126309620Y-125700440D01*
D11*
X115321989Y-101530250D02*
X115256063Y-101741945D01*
X183147461Y-109657041D02*
X183050848Y-109743857D01*
X183518827Y-109298742D02*
X183515687Y-109304501D01*
D10*
X160037107Y-127876900D02*
X159921350Y-134590712D01*
X125310545Y-116463455D02*
X125310545Y-116463455D01*
D11*
X139392211Y-65623743D02*
X139780353Y-65583961D01*
D10*
X168695596Y-127992657D02*
X160037107Y-127876900D01*
X181326949Y-111010904D02*
X181028057Y-111165545D01*
D11*
X145283749Y-66886222D02*
X145555321Y-67076675D01*
X184616642Y-107742569D02*
X184392004Y-108083236D01*
X183512731Y-109310240D02*
X183512731Y-109310240D01*
X163618980Y-66478001D02*
X163836725Y-66575122D01*
D10*
X183050848Y-109743857D02*
X182952104Y-109830674D01*
X115402567Y-105171341D02*
X115370011Y-105077363D01*
X147535553Y-69327930D02*
X150776695Y-74421164D01*
D11*
X135054238Y-67744254D02*
X135242347Y-67568451D01*
X171283230Y-127337585D02*
X171079567Y-127444917D01*
D10*
X171752021Y-111809623D02*
X171752021Y-111809623D01*
X172434529Y-126510891D02*
X172349143Y-126586157D01*
D11*
X168923571Y-127991200D02*
X168696064Y-127993125D01*
X181028057Y-111165545D02*
X180724289Y-111304629D01*
X183570606Y-109229140D02*
X183565312Y-109234915D01*
D10*
X168093193Y-87663543D02*
X150127988Y-88543283D01*
X132092763Y-128552360D02*
X131926002Y-128543950D01*
D11*
X126444476Y-82524013D02*
X133899112Y-69096409D01*
X124460527Y-121816004D02*
X124430812Y-121672432D01*
X146067539Y-67493393D02*
X146308183Y-67719658D01*
D10*
X170524049Y-76134327D02*
X176335424Y-72754277D01*
D11*
X183334224Y-109483407D02*
X183241925Y-109570224D01*
X185446826Y-105976772D02*
X185319857Y-106338255D01*
X130513698Y-128300866D02*
X130327404Y-128248505D01*
D10*
X183147461Y-109657041D02*
X183050848Y-109743857D01*
X182851242Y-109917491D02*
X182748281Y-110004308D01*
D11*
X156841800Y-84723363D02*
X150776214Y-74421151D01*
D10*
X185592312Y-101884835D02*
X185642646Y-102132953D01*
D11*
X134200285Y-68688376D02*
X134359530Y-68490870D01*
D10*
X136521401Y-66619195D02*
X136857458Y-66428919D01*
X115681598Y-100711013D02*
X115795480Y-100512849D01*
D11*
X184313412Y-108222512D02*
X184228347Y-108362520D01*
D10*
X183582199Y-109217174D02*
X183576396Y-109222914D01*
X184039257Y-108644245D02*
X183934740Y-108786416D01*
X115338905Y-104981040D02*
X115309249Y-104882374D01*
X159921350Y-134590712D02*
X151424934Y-119820347D01*
X124842228Y-117373513D02*
X124717241Y-117683595D01*
D11*
X164635390Y-67032320D02*
X164816971Y-67163802D01*
X133899112Y-69096409D02*
X134046812Y-68890222D01*
X150776214Y-74421151D02*
X141631559Y-90881541D01*
D10*
X124895166Y-123275941D02*
X124830076Y-123109183D01*
D11*
X183537263Y-109269757D02*
X183533213Y-109275571D01*
D10*
X170665253Y-127630366D02*
X170455071Y-127708951D01*
D11*
X142326555Y-65808971D02*
X142326555Y-65808971D01*
X183533213Y-109275571D02*
X183529344Y-109281378D01*
X129377195Y-127921614D02*
X129011857Y-127766260D01*
D10*
X115205105Y-104464268D02*
X115161711Y-104241151D01*
X134695338Y-68108881D02*
X134871901Y-67924397D01*
D11*
X172818513Y-126135079D02*
X172747602Y-126210325D01*
D10*
X135552331Y-67302912D02*
X135868836Y-67056191D01*
X172260866Y-126661424D02*
X172169701Y-126736693D01*
X127380408Y-126766904D02*
X127093176Y-126522530D01*
X179460434Y-111705398D02*
X179132272Y-111766702D01*
X124430805Y-121672432D02*
X124430805Y-121672432D01*
X129755546Y-128062125D02*
X129755546Y-128062125D01*
X173182599Y-125683293D02*
X173129101Y-125758493D01*
X146067539Y-67493393D02*
X145816585Y-67279066D01*
X115070259Y-102841572D02*
X115088246Y-102616311D01*
X145816585Y-67279066D02*
X146067539Y-67493393D01*
X168923104Y-127990732D02*
X168695596Y-127992657D01*
X172886065Y-126059378D02*
X172818052Y-126134617D01*
D11*
X132092763Y-128552360D02*
X131926002Y-128543950D01*
D10*
X124524251Y-122097060D02*
X124558262Y-122234134D01*
X169592654Y-127927464D02*
X169371634Y-127958136D01*
X176335424Y-72754277D02*
X168093193Y-87663543D01*
X128320225Y-127411028D02*
X127993934Y-127211155D01*
X183334290Y-109483407D02*
X183424362Y-109396590D01*
X181028057Y-111165545D02*
X180724289Y-111304629D01*
D11*
X136521401Y-66619195D02*
X136857458Y-66428919D01*
X160037574Y-127877368D02*
X160037574Y-127877368D01*
X182952104Y-109830674D02*
X182851242Y-109917491D01*
D10*
X125264242Y-124033848D02*
X125264242Y-124033848D01*
X185320337Y-106337790D02*
X185173834Y-106695113D01*
D11*
X170524049Y-76134327D02*
X176335424Y-72754277D01*
X165885321Y-68276682D02*
X166008966Y-68463174D01*
D10*
X144407176Y-66386485D02*
X144709676Y-66541127D01*
D11*
X124513943Y-118313611D02*
X124607813Y-117996651D01*
D10*
X180724289Y-111304629D02*
X181028057Y-111165545D01*
X182748281Y-110004308D02*
X182473763Y-110236748D01*
D11*
X185007317Y-107048738D02*
X184821747Y-107397736D01*
X115073808Y-103533194D02*
X115094161Y-103769331D01*
D10*
X150776214Y-74421151D02*
X141631559Y-90881541D01*
X125184611Y-123892402D02*
X125107887Y-123745882D01*
X120217331Y-93058206D02*
X114429568Y-89608708D01*
X115397506Y-101321731D02*
X115482612Y-101115452D01*
D11*
X137200031Y-66257457D02*
X137549117Y-66104809D01*
D10*
X115124097Y-104008657D02*
X115124097Y-104008657D01*
D11*
X115205105Y-104463866D02*
X115254282Y-104677665D01*
D10*
X115152980Y-102173935D02*
X115199728Y-101956818D01*
D11*
X184136804Y-108503255D02*
X184038776Y-108644711D01*
X124430812Y-121672432D02*
X124369134Y-121321069D01*
D10*
X124708628Y-122761002D02*
X124708628Y-122761002D01*
X134524547Y-68297705D02*
X134695338Y-68108881D01*
X181620965Y-110840705D02*
X181326949Y-111010904D01*
X131491888Y-89608708D02*
X131491888Y-89608708D01*
X143437822Y-65994182D02*
X143437822Y-65994182D01*
X127680661Y-126996446D02*
X127380408Y-126766904D01*
X134339463Y-100883265D02*
X134339463Y-100883265D01*
D11*
X146968261Y-68470077D02*
X147167668Y-68744090D01*
X182851242Y-109917491D02*
X182748281Y-110004308D01*
D10*
X124963165Y-123437646D02*
X124895166Y-123275941D01*
D11*
X180724289Y-111304629D02*
X180415643Y-111428155D01*
D10*
X125107887Y-123745882D02*
X125034072Y-123594296D01*
X115547302Y-105523817D02*
X115508940Y-105439214D01*
X165318285Y-67599492D02*
X165470909Y-67758474D01*
X171484251Y-127220203D02*
X171282763Y-127337118D01*
X173233190Y-125608103D02*
X173233190Y-125608103D01*
D11*
X168696064Y-127993125D02*
X160037574Y-127877368D01*
X185393168Y-101149445D02*
X185467332Y-101393299D01*
D10*
X178799229Y-111812452D02*
X178461305Y-111842649D01*
X164047240Y-66679114D02*
X164250523Y-66789977D01*
X124323002Y-120973150D02*
X124292428Y-120628668D01*
D11*
X115681598Y-100710545D02*
X115577309Y-100911413D01*
D10*
X124369127Y-121321071D02*
X124323002Y-120973150D01*
X184392484Y-108082776D02*
X184313892Y-108222050D01*
D11*
X184228347Y-108362520D02*
X184136804Y-108503255D01*
D10*
X115795480Y-100512849D02*
X120217331Y-93058206D01*
X125310551Y-116463909D02*
X125310551Y-116463909D01*
X147167668Y-68744090D02*
X146968261Y-68470077D01*
X183529116Y-109280911D02*
X183525403Y-109286711D01*
D11*
X127380408Y-126766904D02*
X127093176Y-126522530D01*
D10*
X147356765Y-69030042D02*
X147167668Y-68744090D01*
D11*
X126074486Y-125396760D02*
X125852380Y-125078259D01*
X143771249Y-66113013D02*
X144094367Y-66243780D01*
D10*
X184822227Y-107397273D02*
X184617123Y-107742107D01*
X172596624Y-126360369D02*
X172517023Y-126435629D01*
D11*
X140983801Y-65577464D02*
X142326555Y-65808971D01*
D10*
X163618980Y-66478001D02*
X163836725Y-66575122D01*
X183934740Y-108786416D02*
X183823729Y-108929298D01*
D11*
X172076114Y-126812430D02*
X171881161Y-126958093D01*
X183550487Y-109252311D02*
X183545900Y-109258125D01*
D10*
X143771249Y-66113013D02*
X144094367Y-66243780D01*
D11*
X124982775Y-117066409D02*
X125138883Y-116763209D01*
X124277948Y-119950018D02*
X124294035Y-119615856D01*
D10*
X124460527Y-121816448D02*
X124491673Y-121957833D01*
X142326555Y-65808971D02*
X142326555Y-65808971D01*
X128366489Y-111208161D02*
X128366489Y-111208161D01*
X170028198Y-127837372D02*
X169811509Y-127887209D01*
X124558255Y-122233852D02*
X124524245Y-122096728D01*
D11*
X124369134Y-121321069D02*
X124323008Y-120973146D01*
X124717241Y-117683130D02*
X124842228Y-117373049D01*
X131059587Y-128428647D02*
X130879791Y-128390937D01*
D10*
X177770811Y-111856387D02*
X177770811Y-111856387D01*
D11*
X125034072Y-123594296D02*
X124963165Y-123437646D01*
X125643303Y-124744939D02*
X125447256Y-124396801D01*
D10*
X183512264Y-109309773D02*
X183424342Y-109396590D01*
D11*
X134046812Y-68890222D02*
X134200285Y-68688376D01*
X178461305Y-111842649D02*
X178118499Y-111857294D01*
D10*
X180102118Y-111536125D02*
X180415643Y-111428155D01*
X185711011Y-104866909D02*
X185642643Y-105240865D01*
D11*
X142326568Y-65808971D02*
X143437822Y-65994182D01*
X183934260Y-108786883D02*
X183823248Y-108929766D01*
X115482611Y-101114985D02*
X115397505Y-101321263D01*
D10*
X171752021Y-111809623D02*
X162398990Y-95534905D01*
X135242347Y-67568451D02*
X135242347Y-67568451D01*
X125447256Y-124396801D02*
X125264242Y-124033848D01*
X173072698Y-125833702D02*
X173013389Y-125908919D01*
D11*
X143437822Y-65994182D02*
X143771249Y-66113013D01*
X115370011Y-105077101D02*
X115436573Y-105262706D01*
X139010575Y-65682335D02*
X139392211Y-65623743D01*
D10*
X133899112Y-69096409D02*
X133899112Y-69096409D01*
D11*
X151424934Y-119820347D02*
X151424934Y-119820347D01*
X115309249Y-104882082D02*
X115370011Y-105077101D01*
D10*
X124430805Y-121672432D02*
X124369127Y-121321071D01*
D11*
X183515687Y-109304501D02*
X183512731Y-109310240D01*
X159967666Y-104008190D02*
X159967666Y-104008190D01*
X126444476Y-82524013D02*
X126444476Y-82524013D01*
D10*
X136857458Y-66428919D02*
X137200031Y-66257457D01*
X124607813Y-117997116D02*
X124513943Y-118314077D01*
X115482612Y-101115452D02*
X115577309Y-100911880D01*
X185534034Y-101638123D02*
X185592312Y-101884835D01*
X124294029Y-119615864D02*
X124325671Y-119285143D01*
X124830076Y-123109183D02*
X124767894Y-122937379D01*
D11*
X131491881Y-89608241D02*
X131491881Y-89608241D01*
D10*
X140576149Y-65560822D02*
X140983801Y-65577464D01*
D11*
X115199726Y-101956351D02*
X115152977Y-102173468D01*
X185319857Y-106338255D02*
X185173354Y-106695577D01*
X185467332Y-101393299D02*
X185533553Y-101638590D01*
D10*
X127093176Y-126522530D02*
X126818967Y-126263327D01*
D11*
X140174999Y-65562987D02*
X140576149Y-65560822D01*
D10*
X178799229Y-111812452D02*
X179132272Y-111766702D01*
X124668887Y-122632490D02*
X124708628Y-122761002D01*
D11*
X172597087Y-126360833D02*
X172517488Y-126436093D01*
D10*
X183541323Y-109263474D02*
X183537073Y-109269290D01*
D11*
X183522151Y-109292967D02*
X183518827Y-109298742D01*
X185591831Y-101885303D02*
X185642166Y-102133421D01*
D12*
X180702976Y-137866380D02*
X181036309Y-137390190D01*
X181274404Y-137866380D02*
X181274404Y-136866380D01*
X180893452Y-136866380D01*
X180798214Y-136914000D01*
X180750595Y-136961619D01*
X180702976Y-137056857D01*
X180702976Y-137199714D01*
X180750595Y-137294952D01*
X180798214Y-137342571D01*
X180893452Y-137390190D01*
X181274404Y-137390190D01*
X179893452Y-137818761D02*
X179988690Y-137866380D01*
X180179166Y-137866380D01*
X180274404Y-137818761D01*
X180322023Y-137723523D01*
X180322023Y-137342571D01*
X180274404Y-137247333D01*
X180179166Y-137199714D01*
X179988690Y-137199714D01*
X179893452Y-137247333D01*
X179845833Y-137342571D01*
X179845833Y-137437809D01*
X180322023Y-137533047D01*
X178988690Y-137818761D02*
X179083928Y-137866380D01*
X179274404Y-137866380D01*
X179369642Y-137818761D01*
X179417261Y-137771142D01*
X179464880Y-137675904D01*
X179464880Y-137390190D01*
X179417261Y-137294952D01*
X179369642Y-137247333D01*
X179274404Y-137199714D01*
X179083928Y-137199714D01*
X178988690Y-137247333D01*
X178655357Y-137199714D02*
X178417261Y-137866380D01*
X178179166Y-137199714D02*
X178417261Y-137866380D01*
X178512500Y-138104476D01*
X178560119Y-138152095D01*
X178655357Y-138199714D01*
X177369642Y-137818761D02*
X177464880Y-137866380D01*
X177655357Y-137866380D01*
X177750595Y-137818761D01*
X177798214Y-137771142D01*
X177845833Y-137675904D01*
X177845833Y-137390190D01*
X177798214Y-137294952D01*
X177750595Y-137247333D01*
X177655357Y-137199714D01*
X177464880Y-137199714D01*
X177369642Y-137247333D01*
X176798214Y-137866380D02*
X176893452Y-137818761D01*
X176941071Y-137723523D01*
X176941071Y-136866380D01*
X176417261Y-137866380D02*
X176417261Y-137199714D01*
X176417261Y-136866380D02*
X176464880Y-136914000D01*
X176417261Y-136961619D01*
X176369642Y-136914000D01*
X176417261Y-136866380D01*
X176417261Y-136961619D01*
X175941071Y-137199714D02*
X175941071Y-137866380D01*
X175941071Y-137294952D02*
X175893452Y-137247333D01*
X175798214Y-137199714D01*
X175655357Y-137199714D01*
X175560119Y-137247333D01*
X175512500Y-137342571D01*
X175512500Y-137866380D01*
X174607738Y-137199714D02*
X174607738Y-138009238D01*
X174655357Y-138104476D01*
X174702976Y-138152095D01*
X174798214Y-138199714D01*
X174941071Y-138199714D01*
X175036309Y-138152095D01*
X174607738Y-137818761D02*
X174702976Y-137866380D01*
X174893452Y-137866380D01*
X174988690Y-137818761D01*
X175036309Y-137771142D01*
X175083928Y-137675904D01*
X175083928Y-137390190D01*
X175036309Y-137294952D01*
X174988690Y-137247333D01*
X174893452Y-137199714D01*
X174702976Y-137199714D01*
X174607738Y-137247333D01*
X174131547Y-137866380D02*
X174131547Y-136866380D01*
X173750595Y-136866380D01*
X173655357Y-136914000D01*
X173607738Y-136961619D01*
X173560119Y-137056857D01*
X173560119Y-137199714D01*
X173607738Y-137294952D01*
X173655357Y-137342571D01*
X173750595Y-137390190D01*
X174131547Y-137390190D01*
X172702976Y-137866380D02*
X172702976Y-137342571D01*
X172750595Y-137247333D01*
X172845833Y-137199714D01*
X173036309Y-137199714D01*
X173131547Y-137247333D01*
X172702976Y-137818761D02*
X172798214Y-137866380D01*
X173036309Y-137866380D01*
X173131547Y-137818761D01*
X173179166Y-137723523D01*
X173179166Y-137628285D01*
X173131547Y-137533047D01*
X173036309Y-137485428D01*
X172798214Y-137485428D01*
X172702976Y-137437809D01*
X171798214Y-137866380D02*
X171798214Y-136866380D01*
X171798214Y-137818761D02*
X171893452Y-137866380D01*
X172083928Y-137866380D01*
X172179166Y-137818761D01*
X172226785Y-137771142D01*
X172274404Y-137675904D01*
X172274404Y-137390190D01*
X172226785Y-137294952D01*
X172179166Y-137247333D01*
X172083928Y-137199714D01*
X171893452Y-137199714D01*
X171798214Y-137247333D01*
X170655357Y-137199714D02*
X170417261Y-137866380D01*
X170179166Y-137199714D01*
X169607738Y-136866380D02*
X169512500Y-136866380D01*
X169417261Y-136914000D01*
X169369642Y-136961619D01*
X169322023Y-137056857D01*
X169274404Y-137247333D01*
X169274404Y-137485428D01*
X169322023Y-137675904D01*
X169369642Y-137771142D01*
X169417261Y-137818761D01*
X169512500Y-137866380D01*
X169607738Y-137866380D01*
X169702976Y-137818761D01*
X169750595Y-137771142D01*
X169798214Y-137675904D01*
X169845833Y-137485428D01*
X169845833Y-137247333D01*
X169798214Y-137056857D01*
X169750595Y-136961619D01*
X169702976Y-136914000D01*
X169607738Y-136866380D01*
X168845833Y-137771142D02*
X168798214Y-137818761D01*
X168845833Y-137866380D01*
X168893452Y-137818761D01*
X168845833Y-137771142D01*
X168845833Y-137866380D01*
X167845833Y-137866380D02*
X168417261Y-137866380D01*
X168131547Y-137866380D02*
X168131547Y-136866380D01*
X168226785Y-137009238D01*
X168322023Y-137104476D01*
X168417261Y-137152095D01*
X166655357Y-137485428D02*
X165893452Y-137485428D01*
X164226785Y-137866380D02*
X164226785Y-136866380D01*
X164226785Y-137818761D02*
X164322023Y-137866380D01*
X164512500Y-137866380D01*
X164607738Y-137818761D01*
X164655357Y-137771142D01*
X164702976Y-137675904D01*
X164702976Y-137390190D01*
X164655357Y-137294952D01*
X164607738Y-137247333D01*
X164512500Y-137199714D01*
X164322023Y-137199714D01*
X164226785Y-137247333D01*
X163369642Y-137818761D02*
X163464880Y-137866380D01*
X163655357Y-137866380D01*
X163750595Y-137818761D01*
X163798214Y-137723523D01*
X163798214Y-137342571D01*
X163750595Y-137247333D01*
X163655357Y-137199714D01*
X163464880Y-137199714D01*
X163369642Y-137247333D01*
X163322023Y-137342571D01*
X163322023Y-137437809D01*
X163798214Y-137533047D01*
X162988690Y-137199714D02*
X162750595Y-137866380D01*
X162512500Y-137199714D01*
X161750595Y-137818761D02*
X161845833Y-137866380D01*
X162036309Y-137866380D01*
X162131547Y-137818761D01*
X162179166Y-137723523D01*
X162179166Y-137342571D01*
X162131547Y-137247333D01*
X162036309Y-137199714D01*
X161845833Y-137199714D01*
X161750595Y-137247333D01*
X161702976Y-137342571D01*
X161702976Y-137437809D01*
X162179166Y-137533047D01*
X161417261Y-137199714D02*
X161036309Y-137199714D01*
X161274404Y-136866380D02*
X161274404Y-137723523D01*
X161226785Y-137818761D01*
X161131547Y-137866380D01*
X161036309Y-137866380D01*
X160702976Y-137866380D02*
X160702976Y-136866380D01*
X160274404Y-137866380D02*
X160274404Y-137342571D01*
X160322023Y-137247333D01*
X160417261Y-137199714D01*
X160560119Y-137199714D01*
X160655357Y-137247333D01*
X160702976Y-137294952D01*
X159607738Y-136866380D02*
X159512500Y-136866380D01*
X159417261Y-136914000D01*
X159369642Y-136961619D01*
X159322023Y-137056857D01*
X159274404Y-137247333D01*
X159274404Y-137485428D01*
X159322023Y-137675904D01*
X159369642Y-137771142D01*
X159417261Y-137818761D01*
X159512500Y-137866380D01*
X159607738Y-137866380D01*
X159702976Y-137818761D01*
X159750595Y-137771142D01*
X159798214Y-137675904D01*
X159845833Y-137485428D01*
X159845833Y-137247333D01*
X159798214Y-137056857D01*
X159750595Y-136961619D01*
X159702976Y-136914000D01*
X159607738Y-136866380D01*
X150738095Y-131502380D02*
X150738095Y-130502380D01*
X150500000Y-130502380D01*
X150357142Y-130550000D01*
X150261904Y-130645238D01*
X150214285Y-130740476D01*
X150166666Y-130930952D01*
X150166666Y-131073809D01*
X150214285Y-131264285D01*
X150261904Y-131359523D01*
X150357142Y-131454761D01*
X150500000Y-131502380D01*
X150738095Y-131502380D01*
X149833333Y-130502380D02*
X149214285Y-130502380D01*
X149547619Y-130883333D01*
X149404761Y-130883333D01*
X149309523Y-130930952D01*
X149261904Y-130978571D01*
X149214285Y-131073809D01*
X149214285Y-131311904D01*
X149261904Y-131407142D01*
X149309523Y-131454761D01*
X149404761Y-131502380D01*
X149690476Y-131502380D01*
X149785714Y-131454761D01*
X149833333Y-131407142D01*
X150738095Y-111902380D02*
X150738095Y-110902380D01*
X150500000Y-110902380D01*
X150357142Y-110950000D01*
X150261904Y-111045238D01*
X150214285Y-111140476D01*
X150166666Y-111330952D01*
X150166666Y-111473809D01*
X150214285Y-111664285D01*
X150261904Y-111759523D01*
X150357142Y-111854761D01*
X150500000Y-111902380D01*
X150738095Y-111902380D01*
X149785714Y-110997619D02*
X149738095Y-110950000D01*
X149642857Y-110902380D01*
X149404761Y-110902380D01*
X149309523Y-110950000D01*
X149261904Y-110997619D01*
X149214285Y-111092857D01*
X149214285Y-111188095D01*
X149261904Y-111330952D01*
X149833333Y-111902380D01*
X149214285Y-111902380D01*
X131138095Y-131502380D02*
X131138095Y-130502380D01*
X130900000Y-130502380D01*
X130757142Y-130550000D01*
X130661904Y-130645238D01*
X130614285Y-130740476D01*
X130566666Y-130930952D01*
X130566666Y-131073809D01*
X130614285Y-131264285D01*
X130661904Y-131359523D01*
X130757142Y-131454761D01*
X130900000Y-131502380D01*
X131138095Y-131502380D01*
X129709523Y-130502380D02*
X129900000Y-130502380D01*
X129995238Y-130550000D01*
X130042857Y-130597619D01*
X130138095Y-130740476D01*
X130185714Y-130930952D01*
X130185714Y-131311904D01*
X130138095Y-131407142D01*
X130090476Y-131454761D01*
X129995238Y-131502380D01*
X129804761Y-131502380D01*
X129709523Y-131454761D01*
X129661904Y-131407142D01*
X129614285Y-131311904D01*
X129614285Y-131073809D01*
X129661904Y-130978571D01*
X129709523Y-130930952D01*
X129804761Y-130883333D01*
X129995238Y-130883333D01*
X130090476Y-130930952D01*
X130138095Y-130978571D01*
X130185714Y-131073809D01*
X131138095Y-111902380D02*
X131138095Y-110902380D01*
X130900000Y-110902380D01*
X130757142Y-110950000D01*
X130661904Y-111045238D01*
X130614285Y-111140476D01*
X130566666Y-111330952D01*
X130566666Y-111473809D01*
X130614285Y-111664285D01*
X130661904Y-111759523D01*
X130757142Y-111854761D01*
X130900000Y-111902380D01*
X131138095Y-111902380D01*
X129661904Y-110902380D02*
X130138095Y-110902380D01*
X130185714Y-111378571D01*
X130138095Y-111330952D01*
X130042857Y-111283333D01*
X129804761Y-111283333D01*
X129709523Y-111330952D01*
X129661904Y-111378571D01*
X129614285Y-111473809D01*
X129614285Y-111711904D01*
X129661904Y-111807142D01*
X129709523Y-111854761D01*
X129804761Y-111902380D01*
X130042857Y-111902380D01*
X130138095Y-111854761D01*
X130185714Y-111807142D01*
X150738095Y-92302380D02*
X150738095Y-91302380D01*
X150500000Y-91302380D01*
X150357142Y-91350000D01*
X150261904Y-91445238D01*
X150214285Y-91540476D01*
X150166666Y-91730952D01*
X150166666Y-91873809D01*
X150214285Y-92064285D01*
X150261904Y-92159523D01*
X150357142Y-92254761D01*
X150500000Y-92302380D01*
X150738095Y-92302380D01*
X149214285Y-92302380D02*
X149785714Y-92302380D01*
X149500000Y-92302380D02*
X149500000Y-91302380D01*
X149595238Y-91445238D01*
X149690476Y-91540476D01*
X149785714Y-91588095D01*
X131138095Y-92302380D02*
X131138095Y-91302380D01*
X130900000Y-91302380D01*
X130757142Y-91350000D01*
X130661904Y-91445238D01*
X130614285Y-91540476D01*
X130566666Y-91730952D01*
X130566666Y-91873809D01*
X130614285Y-92064285D01*
X130661904Y-92159523D01*
X130757142Y-92254761D01*
X130900000Y-92302380D01*
X131138095Y-92302380D01*
X129709523Y-91635714D02*
X129709523Y-92302380D01*
X129947619Y-91254761D02*
X130185714Y-91969047D01*
X129566666Y-91969047D01*
X170338095Y-92302380D02*
X170338095Y-91302380D01*
X170100000Y-91302380D01*
X169957142Y-91350000D01*
X169861904Y-91445238D01*
X169814285Y-91540476D01*
X169766666Y-91730952D01*
X169766666Y-91873809D01*
X169814285Y-92064285D01*
X169861904Y-92159523D01*
X169957142Y-92254761D01*
X170100000Y-92302380D01*
X170338095Y-92302380D01*
X169433333Y-91302380D02*
X168766666Y-91302380D01*
X169195238Y-92302380D01*
X170338095Y-131502380D02*
X170338095Y-130502380D01*
X170100000Y-130502380D01*
X169957142Y-130550000D01*
X169861904Y-130645238D01*
X169814285Y-130740476D01*
X169766666Y-130930952D01*
X169766666Y-131073809D01*
X169814285Y-131264285D01*
X169861904Y-131359523D01*
X169957142Y-131454761D01*
X170100000Y-131502380D01*
X170338095Y-131502380D01*
X169290476Y-131502380D02*
X169100000Y-131502380D01*
X169004761Y-131454761D01*
X168957142Y-131407142D01*
X168861904Y-131264285D01*
X168814285Y-131073809D01*
X168814285Y-130692857D01*
X168861904Y-130597619D01*
X168909523Y-130550000D01*
X169004761Y-130502380D01*
X169195238Y-130502380D01*
X169290476Y-130550000D01*
X169338095Y-130597619D01*
X169385714Y-130692857D01*
X169385714Y-130930952D01*
X169338095Y-131026190D01*
X169290476Y-131073809D01*
X169195238Y-131121428D01*
X169004761Y-131121428D01*
X168909523Y-131073809D01*
X168861904Y-131026190D01*
X168814285Y-130930952D01*
X170338095Y-111902380D02*
X170338095Y-110902380D01*
X170100000Y-110902380D01*
X169957142Y-110950000D01*
X169861904Y-111045238D01*
X169814285Y-111140476D01*
X169766666Y-111330952D01*
X169766666Y-111473809D01*
X169814285Y-111664285D01*
X169861904Y-111759523D01*
X169957142Y-111854761D01*
X170100000Y-111902380D01*
X170338095Y-111902380D01*
X169195238Y-111330952D02*
X169290476Y-111283333D01*
X169338095Y-111235714D01*
X169385714Y-111140476D01*
X169385714Y-111092857D01*
X169338095Y-110997619D01*
X169290476Y-110950000D01*
X169195238Y-110902380D01*
X169004761Y-110902380D01*
X168909523Y-110950000D01*
X168861904Y-110997619D01*
X168814285Y-111092857D01*
X168814285Y-111140476D01*
X168861904Y-111235714D01*
X168909523Y-111283333D01*
X169004761Y-111330952D01*
X169195238Y-111330952D01*
X169290476Y-111378571D01*
X169338095Y-111426190D01*
X169385714Y-111521428D01*
X169385714Y-111711904D01*
X169338095Y-111807142D01*
X169290476Y-111854761D01*
X169195238Y-111902380D01*
X169004761Y-111902380D01*
X168909523Y-111854761D01*
X168861904Y-111807142D01*
X168814285Y-111711904D01*
X168814285Y-111521428D01*
X168861904Y-111426190D01*
X168909523Y-111378571D01*
X169004761Y-111330952D01*
X151738095Y-67197380D02*
X151738095Y-68006904D01*
X151690476Y-68102142D01*
X151642857Y-68149761D01*
X151547619Y-68197380D01*
X151357142Y-68197380D01*
X151261904Y-68149761D01*
X151214285Y-68102142D01*
X151166666Y-68006904D01*
X151166666Y-67197380D01*
X150738095Y-68149761D02*
X150595238Y-68197380D01*
X150357142Y-68197380D01*
X150261904Y-68149761D01*
X150214285Y-68102142D01*
X150166666Y-68006904D01*
X150166666Y-67911666D01*
X150214285Y-67816428D01*
X150261904Y-67768809D01*
X150357142Y-67721190D01*
X150547619Y-67673571D01*
X150642857Y-67625952D01*
X150690476Y-67578333D01*
X150738095Y-67483095D01*
X150738095Y-67387857D01*
X150690476Y-67292619D01*
X150642857Y-67245000D01*
X150547619Y-67197380D01*
X150309523Y-67197380D01*
X150166666Y-67245000D01*
X149404761Y-67673571D02*
X149261904Y-67721190D01*
X149214285Y-67768809D01*
X149166666Y-67864047D01*
X149166666Y-68006904D01*
X149214285Y-68102142D01*
X149261904Y-68149761D01*
X149357142Y-68197380D01*
X149738095Y-68197380D01*
X149738095Y-67197380D01*
X149404761Y-67197380D01*
X149309523Y-67245000D01*
X149261904Y-67292619D01*
X149214285Y-67387857D01*
X149214285Y-67483095D01*
X149261904Y-67578333D01*
X149309523Y-67625952D01*
X149404761Y-67673571D01*
X149738095Y-67673571D01*
X148214285Y-68197380D02*
X148785714Y-68197380D01*
X148500000Y-68197380D02*
X148500000Y-67197380D01*
X148595238Y-67340238D01*
X148690476Y-67435476D01*
X148785714Y-67483095D01*
X140461904Y-60298380D02*
X140461904Y-61107904D01*
X140414285Y-61203142D01*
X140366666Y-61250761D01*
X140271428Y-61298380D01*
X140080952Y-61298380D01*
X139985714Y-61250761D01*
X139938095Y-61203142D01*
X139890476Y-61107904D01*
X139890476Y-60298380D01*
X139461904Y-60393619D02*
X139414285Y-60346000D01*
X139319047Y-60298380D01*
X139080952Y-60298380D01*
X138985714Y-60346000D01*
X138938095Y-60393619D01*
X138890476Y-60488857D01*
X138890476Y-60584095D01*
X138938095Y-60726952D01*
X139509523Y-61298380D01*
X138890476Y-61298380D01*
X133770666Y-70936380D02*
X134104000Y-70460190D01*
X134342095Y-70936380D02*
X134342095Y-69936380D01*
X133961142Y-69936380D01*
X133865904Y-69984000D01*
X133818285Y-70031619D01*
X133770666Y-70126857D01*
X133770666Y-70269714D01*
X133818285Y-70364952D01*
X133865904Y-70412571D01*
X133961142Y-70460190D01*
X134342095Y-70460190D01*
X133437333Y-69936380D02*
X132818285Y-69936380D01*
X133151619Y-70317333D01*
X133008761Y-70317333D01*
X132913523Y-70364952D01*
X132865904Y-70412571D01*
X132818285Y-70507809D01*
X132818285Y-70745904D01*
X132865904Y-70841142D01*
X132913523Y-70888761D01*
X133008761Y-70936380D01*
X133294476Y-70936380D01*
X133389714Y-70888761D01*
X133437333Y-70841142D01*
X115871523Y-74472380D02*
X115204857Y-75472380D01*
X115204857Y-74472380D02*
X115871523Y-75472380D01*
X114300095Y-75472380D02*
X114871523Y-75472380D01*
X114585809Y-75472380D02*
X114585809Y-74472380D01*
X114681047Y-74615238D01*
X114776285Y-74710476D01*
X114871523Y-74758095D01*
X133770666Y-61415142D02*
X133818285Y-61462761D01*
X133961142Y-61510380D01*
X134056380Y-61510380D01*
X134199238Y-61462761D01*
X134294476Y-61367523D01*
X134342095Y-61272285D01*
X134389714Y-61081809D01*
X134389714Y-60938952D01*
X134342095Y-60748476D01*
X134294476Y-60653238D01*
X134199238Y-60558000D01*
X134056380Y-60510380D01*
X133961142Y-60510380D01*
X133818285Y-60558000D01*
X133770666Y-60605619D01*
X132818285Y-61510380D02*
X133389714Y-61510380D01*
X133104000Y-61510380D02*
X133104000Y-60510380D01*
X133199238Y-60653238D01*
X133294476Y-60748476D01*
X133389714Y-60796095D01*
X147994666Y-71444380D02*
X148328000Y-70968190D01*
X148566095Y-71444380D02*
X148566095Y-70444380D01*
X148185142Y-70444380D01*
X148089904Y-70492000D01*
X148042285Y-70539619D01*
X147994666Y-70634857D01*
X147994666Y-70777714D01*
X148042285Y-70872952D01*
X148089904Y-70920571D01*
X148185142Y-70968190D01*
X148566095Y-70968190D01*
X147137523Y-70777714D02*
X147137523Y-71444380D01*
X147375619Y-70396761D02*
X147613714Y-71111047D01*
X146994666Y-71111047D01*
X152820666Y-68144380D02*
X153154000Y-67668190D01*
X153392095Y-68144380D02*
X153392095Y-67144380D01*
X153011142Y-67144380D01*
X152915904Y-67192000D01*
X152868285Y-67239619D01*
X152820666Y-67334857D01*
X152820666Y-67477714D01*
X152868285Y-67572952D01*
X152915904Y-67620571D01*
X153011142Y-67668190D01*
X153392095Y-67668190D01*
X151915904Y-67144380D02*
X152392095Y-67144380D01*
X152439714Y-67620571D01*
X152392095Y-67572952D01*
X152296857Y-67525333D01*
X152058761Y-67525333D01*
X151963523Y-67572952D01*
X151915904Y-67620571D01*
X151868285Y-67715809D01*
X151868285Y-67953904D01*
X151915904Y-68049142D01*
X151963523Y-68096761D01*
X152058761Y-68144380D01*
X152296857Y-68144380D01*
X152392095Y-68096761D01*
X152439714Y-68049142D01*
X119450380Y-107783333D02*
X118974190Y-107450000D01*
X119450380Y-107211904D02*
X118450380Y-107211904D01*
X118450380Y-107592857D01*
X118498000Y-107688095D01*
X118545619Y-107735714D01*
X118640857Y-107783333D01*
X118783714Y-107783333D01*
X118878952Y-107735714D01*
X118926571Y-107688095D01*
X118974190Y-107592857D01*
X118974190Y-107211904D01*
X118450380Y-108116666D02*
X118450380Y-108783333D01*
X119450380Y-108354761D01*
X116083142Y-89833333D02*
X116130761Y-89785714D01*
X116178380Y-89642857D01*
X116178380Y-89547619D01*
X116130761Y-89404761D01*
X116035523Y-89309523D01*
X115940285Y-89261904D01*
X115749809Y-89214285D01*
X115606952Y-89214285D01*
X115416476Y-89261904D01*
X115321238Y-89309523D01*
X115226000Y-89404761D01*
X115178380Y-89547619D01*
X115178380Y-89642857D01*
X115226000Y-89785714D01*
X115273619Y-89833333D01*
X115178380Y-90690476D02*
X115178380Y-90500000D01*
X115226000Y-90404761D01*
X115273619Y-90357142D01*
X115416476Y-90261904D01*
X115606952Y-90214285D01*
X115987904Y-90214285D01*
X116083142Y-90261904D01*
X116130761Y-90309523D01*
X116178380Y-90404761D01*
X116178380Y-90595238D01*
X116130761Y-90690476D01*
X116083142Y-90738095D01*
X115987904Y-90785714D01*
X115749809Y-90785714D01*
X115654571Y-90738095D01*
X115606952Y-90690476D01*
X115559333Y-90595238D01*
X115559333Y-90404761D01*
X115606952Y-90309523D01*
X115654571Y-90261904D01*
X115749809Y-90214285D01*
X140033333Y-68296571D02*
X140366666Y-68296571D01*
X140366666Y-68820380D02*
X140366666Y-67820380D01*
X139890476Y-67820380D01*
X138985714Y-68820380D02*
X139557142Y-68820380D01*
X139271428Y-68820380D02*
X139271428Y-67820380D01*
X139366666Y-67963238D01*
X139461904Y-68058476D01*
X139557142Y-68106095D01*
X117420380Y-89833333D02*
X116944190Y-89500000D01*
X117420380Y-89261904D02*
X116420380Y-89261904D01*
X116420380Y-89642857D01*
X116468000Y-89738095D01*
X116515619Y-89785714D01*
X116610857Y-89833333D01*
X116753714Y-89833333D01*
X116848952Y-89785714D01*
X116896571Y-89738095D01*
X116944190Y-89642857D01*
X116944190Y-89261904D01*
X117420380Y-90785714D02*
X117420380Y-90214285D01*
X117420380Y-90500000D02*
X116420380Y-90500000D01*
X116563238Y-90404761D01*
X116658476Y-90309523D01*
X116706095Y-90214285D01*
X126896571Y-62488380D02*
X127229904Y-62012190D01*
X127468000Y-62488380D02*
X127468000Y-61488380D01*
X127087047Y-61488380D01*
X126991809Y-61536000D01*
X126944190Y-61583619D01*
X126896571Y-61678857D01*
X126896571Y-61821714D01*
X126944190Y-61916952D01*
X126991809Y-61964571D01*
X127087047Y-62012190D01*
X127468000Y-62012190D01*
X126468000Y-61964571D02*
X126134666Y-61964571D01*
X125991809Y-62488380D02*
X126468000Y-62488380D01*
X126468000Y-61488380D01*
X125991809Y-61488380D01*
X125610857Y-62440761D02*
X125468000Y-62488380D01*
X125229904Y-62488380D01*
X125134666Y-62440761D01*
X125087047Y-62393142D01*
X125039428Y-62297904D01*
X125039428Y-62202666D01*
X125087047Y-62107428D01*
X125134666Y-62059809D01*
X125229904Y-62012190D01*
X125420380Y-61964571D01*
X125515619Y-61916952D01*
X125563238Y-61869333D01*
X125610857Y-61774095D01*
X125610857Y-61678857D01*
X125563238Y-61583619D01*
X125515619Y-61536000D01*
X125420380Y-61488380D01*
X125182285Y-61488380D01*
X125039428Y-61536000D01*
X124610857Y-61964571D02*
X124277523Y-61964571D01*
X124134666Y-62488380D02*
X124610857Y-62488380D01*
X124610857Y-61488380D01*
X124134666Y-61488380D01*
X123848952Y-61488380D02*
X123277523Y-61488380D01*
X123563238Y-62488380D02*
X123563238Y-61488380D01*
X122420380Y-62488380D02*
X122991809Y-62488380D01*
X122706095Y-62488380D02*
X122706095Y-61488380D01*
X122801333Y-61631238D01*
X122896571Y-61726476D01*
X122991809Y-61774095D01*
X115134380Y-89833333D02*
X114658190Y-89500000D01*
X115134380Y-89261904D02*
X114134380Y-89261904D01*
X114134380Y-89642857D01*
X114182000Y-89738095D01*
X114229619Y-89785714D01*
X114324857Y-89833333D01*
X114467714Y-89833333D01*
X114562952Y-89785714D01*
X114610571Y-89738095D01*
X114658190Y-89642857D01*
X114658190Y-89261904D01*
X114229619Y-90214285D02*
X114182000Y-90261904D01*
X114134380Y-90357142D01*
X114134380Y-90595238D01*
X114182000Y-90690476D01*
X114229619Y-90738095D01*
X114324857Y-90785714D01*
X114420095Y-90785714D01*
X114562952Y-90738095D01*
X115134380Y-90166666D01*
X115134380Y-90785714D01*
X133770666Y-63447142D02*
X133818285Y-63494761D01*
X133961142Y-63542380D01*
X134056380Y-63542380D01*
X134199238Y-63494761D01*
X134294476Y-63399523D01*
X134342095Y-63304285D01*
X134389714Y-63113809D01*
X134389714Y-62970952D01*
X134342095Y-62780476D01*
X134294476Y-62685238D01*
X134199238Y-62590000D01*
X134056380Y-62542380D01*
X133961142Y-62542380D01*
X133818285Y-62590000D01*
X133770666Y-62637619D01*
X132865904Y-62542380D02*
X133342095Y-62542380D01*
X133389714Y-63018571D01*
X133342095Y-62970952D01*
X133246857Y-62923333D01*
X133008761Y-62923333D01*
X132913523Y-62970952D01*
X132865904Y-63018571D01*
X132818285Y-63113809D01*
X132818285Y-63351904D01*
X132865904Y-63447142D01*
X132913523Y-63494761D01*
X133008761Y-63542380D01*
X133246857Y-63542380D01*
X133342095Y-63494761D01*
X133389714Y-63447142D01*
X133770666Y-65479142D02*
X133818285Y-65526761D01*
X133961142Y-65574380D01*
X134056380Y-65574380D01*
X134199238Y-65526761D01*
X134294476Y-65431523D01*
X134342095Y-65336285D01*
X134389714Y-65145809D01*
X134389714Y-65002952D01*
X134342095Y-64812476D01*
X134294476Y-64717238D01*
X134199238Y-64622000D01*
X134056380Y-64574380D01*
X133961142Y-64574380D01*
X133818285Y-64622000D01*
X133770666Y-64669619D01*
X132913523Y-64907714D02*
X132913523Y-65574380D01*
X133151619Y-64526761D02*
X133389714Y-65241047D01*
X132770666Y-65241047D01*
X115228666Y-79703142D02*
X115276285Y-79750761D01*
X115419142Y-79798380D01*
X115514380Y-79798380D01*
X115657238Y-79750761D01*
X115752476Y-79655523D01*
X115800095Y-79560285D01*
X115847714Y-79369809D01*
X115847714Y-79226952D01*
X115800095Y-79036476D01*
X115752476Y-78941238D01*
X115657238Y-78846000D01*
X115514380Y-78798380D01*
X115419142Y-78798380D01*
X115276285Y-78846000D01*
X115228666Y-78893619D01*
X114847714Y-78893619D02*
X114800095Y-78846000D01*
X114704857Y-78798380D01*
X114466761Y-78798380D01*
X114371523Y-78846000D01*
X114323904Y-78893619D01*
X114276285Y-78988857D01*
X114276285Y-79084095D01*
X114323904Y-79226952D01*
X114895333Y-79798380D01*
X114276285Y-79798380D01*
X115228666Y-76205142D02*
X115276285Y-76252761D01*
X115419142Y-76300380D01*
X115514380Y-76300380D01*
X115657238Y-76252761D01*
X115752476Y-76157523D01*
X115800095Y-76062285D01*
X115847714Y-75871809D01*
X115847714Y-75728952D01*
X115800095Y-75538476D01*
X115752476Y-75443238D01*
X115657238Y-75348000D01*
X115514380Y-75300380D01*
X115419142Y-75300380D01*
X115276285Y-75348000D01*
X115228666Y-75395619D01*
X114895333Y-75300380D02*
X114276285Y-75300380D01*
X114609619Y-75681333D01*
X114466761Y-75681333D01*
X114371523Y-75728952D01*
X114323904Y-75776571D01*
X114276285Y-75871809D01*
X114276285Y-76109904D01*
X114323904Y-76205142D01*
X114371523Y-76252761D01*
X114466761Y-76300380D01*
X114752476Y-76300380D01*
X114847714Y-76252761D01*
X114895333Y-76205142D01*
X117601904Y-92970380D02*
X117601904Y-93779904D01*
X117554285Y-93875142D01*
X117506666Y-93922761D01*
X117411428Y-93970380D01*
X117220952Y-93970380D01*
X117125714Y-93922761D01*
X117078095Y-93875142D01*
X117030476Y-93779904D01*
X117030476Y-92970380D01*
X116030476Y-93970380D02*
X116601904Y-93970380D01*
X116316190Y-93970380D02*
X116316190Y-92970380D01*
X116411428Y-93113238D01*
X116506666Y-93208476D01*
X116601904Y-93256095D01*
D13*
X148500000Y-128350000D02*
X151050000Y-128350000D01*
X148500000Y-130050000D02*
X151050000Y-130050000D01*
X148500000Y-130050000D02*
X148500000Y-128350000D01*
X148500000Y-108750000D02*
X151050000Y-108750000D01*
X148500000Y-110450000D02*
X151050000Y-110450000D01*
X148500000Y-110450000D02*
X148500000Y-108750000D01*
X128900000Y-128350000D02*
X131450000Y-128350000D01*
X128900000Y-130050000D02*
X131450000Y-130050000D01*
X128900000Y-130050000D02*
X128900000Y-128350000D01*
X128900000Y-108750000D02*
X131450000Y-108750000D01*
X128900000Y-110450000D02*
X131450000Y-110450000D01*
X128900000Y-110450000D02*
X128900000Y-108750000D01*
X148500000Y-89150000D02*
X151050000Y-89150000D01*
X148500000Y-90850000D02*
X151050000Y-90850000D01*
X148500000Y-90850000D02*
X148500000Y-89150000D01*
X128900000Y-89150000D02*
X131450000Y-89150000D01*
X128900000Y-90850000D02*
X131450000Y-90850000D01*
X128900000Y-90850000D02*
X128900000Y-89150000D01*
X168100000Y-89150000D02*
X170650000Y-89150000D01*
X168100000Y-90850000D02*
X170650000Y-90850000D01*
X168100000Y-90850000D02*
X168100000Y-89150000D01*
X168100000Y-128350000D02*
X170650000Y-128350000D01*
X168100000Y-130050000D02*
X170650000Y-130050000D01*
X168100000Y-130050000D02*
X168100000Y-128350000D01*
X168100000Y-108750000D02*
X170650000Y-108750000D01*
X168100000Y-110450000D02*
X170650000Y-110450000D01*
X168100000Y-110450000D02*
X168100000Y-108750000D01*
X145300000Y-58200000D02*
X154700000Y-58200000D01*
X154700000Y-60100000D02*
X154700000Y-58200000D01*
X154700000Y-64000000D02*
X154700000Y-62000000D01*
X145300000Y-64000000D02*
X145300000Y-62000000D01*
X145300000Y-60100000D02*
X145300000Y-58200000D01*
X139700000Y-64806000D02*
X140500000Y-64806000D01*
X139700000Y-61686000D02*
X141500000Y-61686000D01*
X139700000Y-64806000D02*
X138900000Y-64806000D01*
X139700000Y-61686000D02*
X138900000Y-61686000D01*
X133376936Y-69569000D02*
X133831064Y-69569000D01*
X133376936Y-68099000D02*
X133831064Y-68099000D01*
X117062000Y-79120000D02*
X113062000Y-79120000D01*
X117062000Y-75820000D02*
X117062000Y-79120000D01*
X133865252Y-63473000D02*
X133342748Y-63473000D01*
X133865252Y-62003000D02*
X133342748Y-62003000D01*
X147600936Y-68607000D02*
X148055064Y-68607000D01*
X147600936Y-70077000D02*
X148055064Y-70077000D01*
X152881064Y-68607000D02*
X152426936Y-68607000D01*
X152881064Y-70077000D02*
X152426936Y-70077000D01*
X118083000Y-108177064D02*
X118083000Y-107722936D01*
X116613000Y-108177064D02*
X116613000Y-107722936D01*
X114781000Y-90261252D02*
X114781000Y-89738748D01*
X113311000Y-90261252D02*
X113311000Y-89738748D01*
X139097936Y-65638000D02*
X140302064Y-65638000D01*
X139097936Y-67458000D02*
X140302064Y-67458000D01*
X119353000Y-89772936D02*
X119353000Y-90227064D01*
X117883000Y-89772936D02*
X117883000Y-90227064D01*
X127718000Y-64786000D02*
X127718000Y-66786000D01*
X123268000Y-68086000D02*
X123718000Y-68536000D01*
X123268000Y-63486000D02*
X123718000Y-63036000D01*
X126668000Y-63486000D02*
X126218000Y-63036000D01*
X126218000Y-68536000D02*
X123718000Y-68536000D01*
X122218000Y-64786000D02*
X122218000Y-66786000D01*
X126218000Y-63036000D02*
X123718000Y-63036000D01*
X126668000Y-68086000D02*
X126218000Y-68536000D01*
X117067000Y-89772936D02*
X117067000Y-90227064D01*
X115597000Y-89772936D02*
X115597000Y-90227064D01*
X133865252Y-64035000D02*
X133342748Y-64035000D01*
X133865252Y-65505000D02*
X133342748Y-65505000D01*
X133865252Y-66067000D02*
X133342748Y-66067000D01*
X133865252Y-67537000D02*
X133342748Y-67537000D01*
X115323252Y-81761000D02*
X114800748Y-81761000D01*
X115323252Y-80291000D02*
X114800748Y-80291000D01*
X114800748Y-73433000D02*
X115323252Y-73433000D01*
X114800748Y-74903000D02*
X115323252Y-74903000D01*
D12*
X120465000Y-95943000D02*
X120465000Y-96168000D01*
X120465000Y-103193000D02*
X120140000Y-103193000D01*
X113215000Y-95943000D02*
X113540000Y-95943000D01*
X113215000Y-103193000D02*
X113540000Y-103193000D01*
X120465000Y-96168000D02*
X121890000Y-96168000D01*
X120465000Y-103193000D02*
X120465000Y-102868000D01*
X113215000Y-103193000D02*
X113215000Y-102868000D01*
X120465000Y-95943000D02*
X120140000Y-95943000D01*
X113215000Y-95943000D02*
X113215000Y-96268000D01*
%LPC*%
D14*
X148900000Y-129200000D03*
X151100000Y-129200000D03*
X148900000Y-109600000D03*
X151100000Y-109600000D03*
X129300000Y-129200000D03*
X131500000Y-129200000D03*
X129300000Y-109600000D03*
X131500000Y-109600000D03*
X148900000Y-90000000D03*
X151100000Y-90000000D03*
X129300000Y-90000000D03*
X131500000Y-90000000D03*
X168500000Y-90000000D03*
X170700000Y-90000000D03*
X168500000Y-129200000D03*
X170700000Y-129200000D03*
X168500000Y-109600000D03*
X170700000Y-109600000D03*
D15*
X169600000Y-80400000D03*
D16*
X174680000Y-80400000D03*
X164520000Y-80400000D03*
D17*
X172100000Y-72900000D03*
X167100000Y-72900000D03*
X169600000Y-72900000D03*
X172100000Y-87400000D03*
X167100000Y-87400000D03*
D18*
X173410000Y-82940000D03*
X167060000Y-85480000D03*
D15*
X130400000Y-80400000D03*
D16*
X135480000Y-80400000D03*
X125320000Y-80400000D03*
D17*
X132900000Y-72900000D03*
X127900000Y-72900000D03*
X130400000Y-72900000D03*
X132900000Y-87400000D03*
X127900000Y-87400000D03*
D18*
X134210000Y-82940000D03*
X127860000Y-85480000D03*
D15*
X150000000Y-80400000D03*
D16*
X155080000Y-80400000D03*
X144920000Y-80400000D03*
D17*
X152500000Y-72900000D03*
X147500000Y-72900000D03*
X150000000Y-72900000D03*
X152500000Y-87400000D03*
X147500000Y-87400000D03*
D18*
X153810000Y-82940000D03*
X147460000Y-85480000D03*
D19*
X135480000Y-100000000D03*
X125320000Y-100000000D03*
D15*
X130400000Y-100000000D03*
D20*
X134210000Y-102540000D03*
X127860000Y-105080000D03*
D19*
X135480000Y-119600000D03*
X125320000Y-119600000D03*
D15*
X130400000Y-119600000D03*
D20*
X134210000Y-122140000D03*
X127860000Y-124680000D03*
D19*
X174680000Y-119600000D03*
X164520000Y-119600000D03*
D15*
X169600000Y-119600000D03*
D20*
X173410000Y-122140000D03*
X167060000Y-124680000D03*
D19*
X174680000Y-100000000D03*
X164520000Y-100000000D03*
D15*
X169600000Y-100000000D03*
D20*
X173410000Y-102540000D03*
X167060000Y-105080000D03*
D19*
X155080000Y-100000000D03*
X144920000Y-100000000D03*
D15*
X150000000Y-100000000D03*
D20*
X153810000Y-102540000D03*
X147460000Y-105080000D03*
D19*
X155080000Y-119600000D03*
X144920000Y-119600000D03*
D15*
X150000000Y-119600000D03*
D20*
X153810000Y-122140000D03*
X147460000Y-124680000D03*
D21*
X115500000Y-134500000D03*
X184500000Y-134500000D03*
X184400000Y-65500000D03*
X115500000Y-65500000D03*
D22*
X147110000Y-64700000D03*
X152890000Y-64700000D03*
D23*
X146750000Y-66145000D03*
X147550000Y-66145000D03*
D24*
X148750000Y-66145000D03*
X149750000Y-66145000D03*
X150250000Y-66145000D03*
X151250000Y-66145000D03*
D23*
X152450000Y-66145000D03*
X153250000Y-66145000D03*
X153250000Y-66145000D03*
X152450000Y-66145000D03*
D24*
X151750000Y-66145000D03*
X150750000Y-66145000D03*
X149250000Y-66145000D03*
X148250000Y-66145000D03*
D23*
X147550000Y-66145000D03*
X146750000Y-66145000D03*
D25*
X154320000Y-61050000D03*
D26*
X154320000Y-65230000D03*
D25*
X145680000Y-61050000D03*
D26*
X145680000Y-65230000D03*
D27*
X140837500Y-62296000D03*
X140837500Y-63246000D03*
X140837500Y-64196000D03*
X138562500Y-64196000D03*
X138562500Y-63246000D03*
X138562500Y-62296000D03*
D28*
X132691500Y-68834000D03*
X134516500Y-68834000D03*
D29*
X116162000Y-78320000D03*
X113962000Y-78320000D03*
X113962000Y-76620000D03*
X116162000Y-76620000D03*
D30*
X134554000Y-62738000D03*
X132654000Y-62738000D03*
D28*
X146915500Y-69342000D03*
X148740500Y-69342000D03*
D31*
X153566500Y-69342000D03*
X151741500Y-69342000D03*
D32*
X117348000Y-108862500D03*
X117348000Y-107037500D03*
D33*
X114046000Y-90950000D03*
X114046000Y-89050000D03*
D34*
X138300000Y-66548000D03*
X141100000Y-66548000D03*
D35*
X118618000Y-89087500D03*
X118618000Y-90912500D03*
D36*
X121818000Y-63886000D03*
X128118000Y-63886000D03*
X128118000Y-67686000D03*
X121818000Y-67686000D03*
D35*
X116332000Y-89087500D03*
X116332000Y-90912500D03*
D30*
X134554000Y-64770000D03*
X132654000Y-64770000D03*
X134554000Y-66802000D03*
X132654000Y-66802000D03*
X116012000Y-81026000D03*
X114112000Y-81026000D03*
D37*
X114112000Y-74168000D03*
X116012000Y-74168000D03*
D38*
X121090000Y-96768000D03*
X121090000Y-97568000D03*
X121090000Y-98368000D03*
X121090000Y-99168000D03*
X121090000Y-99968000D03*
X121090000Y-100768000D03*
X121090000Y-101568000D03*
X121090000Y-102368000D03*
D39*
X119640000Y-103818000D03*
X118840000Y-103818000D03*
X118040000Y-103818000D03*
X117240000Y-103818000D03*
X116440000Y-103818000D03*
X115640000Y-103818000D03*
X114840000Y-103818000D03*
X114040000Y-103818000D03*
D38*
X112590000Y-102368000D03*
X112590000Y-101568000D03*
X112590000Y-100768000D03*
X112590000Y-99968000D03*
X112590000Y-99168000D03*
X112590000Y-98368000D03*
X112590000Y-97568000D03*
X112590000Y-96768000D03*
D39*
X114040000Y-95318000D03*
X114840000Y-95318000D03*
X115640000Y-95318000D03*
X116440000Y-95318000D03*
X117240000Y-95318000D03*
X118040000Y-95318000D03*
X118840000Y-95318000D03*
X119640000Y-95318000D03*
M02*
