G04 #@! TF.GenerationSoftware,KiCad,Pcbnew,(6.0.1)*
G04 #@! TF.CreationDate,2022-06-28T21:47:16+02:00*
G04 #@! TF.ProjectId,RecyclingPad_embedded,52656379-636c-4696-9e67-5061645f656d,rev?*
G04 #@! TF.SameCoordinates,Original*
G04 #@! TF.FileFunction,Profile,NP*
%FSLAX46Y46*%
G04 Gerber Fmt 4.6, Leading zero omitted, Abs format (unit mm)*
G04 Created by KiCad (PCBNEW (6.0.1)) date 2022-06-28 21:47:16*
%MOMM*%
%LPD*%
G01*
G04 APERTURE LIST*
G04 #@! TA.AperFunction,Profile*
%ADD10C,0.349999*%
G04 #@! TD*
G04 APERTURE END LIST*
D10*
X187100052Y-60277352D02*
X186854754Y-60168666D01*
X186604449Y-139927934D02*
X186854754Y-139831336D01*
X112899948Y-139722650D02*
X113145246Y-139831336D01*
X189170767Y-61977839D02*
X189004445Y-61764336D01*
X187801400Y-60674068D02*
X187573826Y-60530240D01*
X184749997Y-59750004D02*
X184749997Y-59750004D01*
X110277352Y-137100052D02*
X110397939Y-137339893D01*
X188639088Y-61360916D02*
X188441459Y-61172847D01*
X190249997Y-65250004D02*
X190243237Y-64977275D01*
X109856661Y-64171997D02*
X109810279Y-64437820D01*
X110072067Y-136604449D02*
X110168666Y-136854754D01*
X190143340Y-64171997D02*
X190084123Y-63909377D01*
X189004445Y-138235667D02*
X189170767Y-138022164D01*
X190223083Y-64706396D02*
X190189722Y-64437820D01*
X114977275Y-140243237D02*
X115250004Y-140249997D01*
X109915878Y-63909377D02*
X109856661Y-64171997D01*
X189927934Y-63395550D02*
X189831336Y-63145246D01*
X110277352Y-62899948D02*
X110168666Y-63145246D01*
X188235667Y-139004445D02*
X188441459Y-138827157D01*
X188639088Y-138639088D02*
X188639088Y-138639088D01*
X188441459Y-138827157D02*
X188639088Y-138639088D01*
X111764336Y-60995558D02*
X111558545Y-61172847D01*
X109750004Y-134749997D02*
X109756764Y-135022725D01*
X190243237Y-135022725D02*
X190249997Y-134749997D01*
X113650411Y-59987742D02*
X113395550Y-60072067D01*
X109987742Y-136349588D02*
X110072067Y-136604449D01*
X113909377Y-59915878D02*
X113650411Y-59987742D01*
X185828002Y-59856661D02*
X185562179Y-59810279D01*
X112660107Y-139602063D02*
X112899948Y-139722650D01*
X115250004Y-140249997D02*
X115250004Y-140249997D01*
X112198602Y-60674068D02*
X111977839Y-60829236D01*
X111977839Y-60829236D02*
X111764336Y-60995558D01*
X190249997Y-134749997D02*
X190249997Y-65250004D01*
X114171997Y-59856661D02*
X113909377Y-59915878D01*
X190243237Y-64977275D02*
X190223083Y-64706396D01*
X185293603Y-59776917D02*
X185022725Y-59756764D01*
X111360916Y-61360916D02*
X111360916Y-61360916D01*
X188022164Y-60829236D02*
X187801400Y-60674068D01*
X189602063Y-62660107D02*
X189469762Y-62426175D01*
X189722650Y-62899948D02*
X189602063Y-62660107D01*
X189469762Y-137573826D02*
X189602063Y-137339893D01*
X109856661Y-135828002D02*
X109915878Y-136090622D01*
X186349588Y-59987742D02*
X186090622Y-59915878D01*
X186349588Y-140012259D02*
X186604449Y-139927934D01*
X110530240Y-137573826D02*
X110674068Y-137801400D01*
X189325935Y-62198602D02*
X189170767Y-61977839D01*
X109810279Y-64437820D02*
X109776917Y-64706396D01*
X185562179Y-140189722D02*
X185828002Y-140143340D01*
X189170767Y-138022164D02*
X189325935Y-137801400D01*
X190249997Y-65250004D02*
X190249997Y-65250004D01*
X190189722Y-135562179D02*
X190223083Y-135293603D01*
X186090622Y-59915878D02*
X185828002Y-59856661D01*
X187801400Y-139325935D02*
X188022164Y-139170767D01*
X109987742Y-63650411D02*
X109915878Y-63909377D01*
X111360916Y-138639088D02*
X111360916Y-138639088D01*
X185022725Y-59756764D02*
X184749997Y-59750004D01*
X110674068Y-62198602D02*
X110530240Y-62426175D01*
X188022164Y-139170767D02*
X188235667Y-139004445D01*
X189831336Y-63145246D02*
X189722650Y-62899948D01*
X109756764Y-64977275D02*
X109750004Y-65250004D01*
X186604449Y-60072067D02*
X186349588Y-59987742D01*
X109915878Y-136090622D02*
X109987742Y-136349588D01*
X188639088Y-61360916D02*
X188639088Y-61360916D01*
X110995558Y-138235667D02*
X111172847Y-138441459D01*
X190143340Y-135828002D02*
X190189722Y-135562179D01*
X186854754Y-139831336D02*
X187100052Y-139722650D01*
X187339893Y-60397939D02*
X187100052Y-60277352D01*
X187339893Y-139602063D02*
X187573826Y-139469762D01*
X110168666Y-63145246D02*
X110072067Y-63395550D01*
X110168666Y-136854754D02*
X110277352Y-137100052D01*
X190223083Y-135293603D02*
X190243237Y-135022725D01*
X109776917Y-64706396D02*
X109756764Y-64977275D01*
X113909377Y-140084123D02*
X114171997Y-140143340D01*
X111558545Y-138827157D02*
X111764336Y-139004445D01*
X112426175Y-139469762D02*
X112660107Y-139602063D01*
X190012259Y-136349588D02*
X190084123Y-136090622D01*
X114977275Y-59756764D02*
X114706396Y-59776917D01*
X189927934Y-136604449D02*
X190012259Y-136349588D01*
X188827157Y-138441459D02*
X189004445Y-138235667D01*
X184749997Y-59750004D02*
X115250004Y-59750004D01*
X115250004Y-59750004D02*
X114977275Y-59756764D01*
X189004445Y-61764336D02*
X188827157Y-61558545D01*
X113395550Y-60072067D02*
X113145246Y-60168666D01*
X190084123Y-136090622D02*
X190143340Y-135828002D01*
X113145246Y-139831336D02*
X113395550Y-139927934D01*
X109756764Y-135022725D02*
X109776917Y-135293603D01*
X112899948Y-60277352D02*
X112660107Y-60397939D01*
X190084123Y-63909377D02*
X190012259Y-63650411D01*
X110397939Y-62660107D02*
X110277352Y-62899948D01*
X111558545Y-61172847D02*
X111360916Y-61360916D01*
X111977839Y-139170767D02*
X112198602Y-139325935D01*
X190012259Y-63650411D02*
X189927934Y-63395550D01*
X189325935Y-137801400D02*
X189469762Y-137573826D01*
X109750004Y-65250004D02*
X109750004Y-65250004D01*
X109750004Y-65250004D02*
X109750004Y-134749997D01*
X113145246Y-60168666D02*
X112899948Y-60277352D01*
X185022725Y-140243237D02*
X185293603Y-140223083D01*
X111764336Y-139004445D02*
X111977839Y-139170767D01*
X189722650Y-137100052D02*
X189831336Y-136854754D01*
X113650411Y-140012259D02*
X113909377Y-140084123D01*
X184749997Y-140249997D02*
X184749997Y-140249997D01*
X114437820Y-59810279D02*
X114171997Y-59856661D01*
X110995558Y-61764336D02*
X110829236Y-61977839D01*
X185828002Y-140143340D02*
X186090622Y-140084123D01*
X187100052Y-139722650D02*
X187339893Y-139602063D01*
X188441459Y-61172847D02*
X188235667Y-60995558D01*
X185562179Y-59810279D02*
X185293603Y-59776917D01*
X111360916Y-138639088D02*
X111558545Y-138827157D01*
X112426175Y-60530240D02*
X112198602Y-60674068D01*
X189469762Y-62426175D02*
X189325935Y-62198602D01*
X112660107Y-60397939D02*
X112426175Y-60530240D01*
X114706396Y-140223083D02*
X114977275Y-140243237D01*
X188827157Y-61558545D02*
X188639088Y-61360916D01*
X113395550Y-139927934D02*
X113650411Y-140012259D01*
X109776917Y-135293603D02*
X109810279Y-135562179D01*
X187573826Y-60530240D02*
X187339893Y-60397939D01*
X110829236Y-61977839D02*
X110674068Y-62198602D01*
X186854754Y-60168666D02*
X186604449Y-60072067D01*
X184749997Y-140249997D02*
X185022725Y-140243237D01*
X189831336Y-136854754D02*
X189927934Y-136604449D01*
X189602063Y-137339893D02*
X189722650Y-137100052D01*
X111172847Y-61558545D02*
X110995558Y-61764336D01*
X112198602Y-139325935D02*
X112426175Y-139469762D01*
X110829236Y-138022164D02*
X110995558Y-138235667D01*
X110397939Y-137339893D02*
X110530240Y-137573826D01*
X187573826Y-139469762D02*
X187801400Y-139325935D01*
X109810279Y-135562179D02*
X109856661Y-135828002D01*
X111360916Y-61360916D02*
X111172847Y-61558545D01*
X185293603Y-140223083D02*
X185562179Y-140189722D01*
X114706396Y-59776917D02*
X114437820Y-59810279D01*
X110530240Y-62426175D02*
X110397939Y-62660107D01*
X188235667Y-60995558D02*
X188022164Y-60829236D01*
X114437820Y-140189722D02*
X114706396Y-140223083D01*
X115250004Y-59750004D02*
X115250004Y-59750004D01*
X110674068Y-137801400D02*
X110829236Y-138022164D01*
X188639088Y-138639088D02*
X188827157Y-138441459D01*
X109750004Y-134749997D02*
X109750004Y-134749997D01*
X114171997Y-140143340D02*
X114437820Y-140189722D01*
X110072067Y-63395550D02*
X109987742Y-63650411D01*
X190189722Y-64437820D02*
X190143340Y-64171997D01*
X186090622Y-140084123D02*
X186349588Y-140012259D01*
X115250004Y-140249997D02*
X184749997Y-140249997D01*
X111172847Y-138441459D02*
X111360916Y-138639088D01*
M02*
